<svg width="175" height="130" viewBox="0 0 175 130" fill="none" xmlns="http://www.w3.org/2000/svg">
<path d="M173.694 59.9707C174.112 59.7499 174.163 60.314 174.276 60.369C173.498 60.5653 173.653 59.838 173.694 59.9707Z" fill="#065393"/>
<path d="M166.034 61.7248L166.242 61.8872L164.986 61.7665L166.034 61.7248Z" fill="#065393"/>
<path d="M159.229 64.1383C159.575 63.0363 161.758 63.4562 162.872 62.7294L163 62.4503L163.801 62.9407C162.296 63.396 160.182 63.5317 159.229 64.1383Z" fill="#065393"/>
<path d="M156.115 67.2129C156.246 66.8019 155.219 67.1607 156.967 66.8508C156.886 66.9109 156.877 66.9371 156.832 66.9802C156.673 67.0124 156.469 67.0877 156.115 67.2129Z" fill="#065393"/>
<path d="M156.819 66.9871C157.571 66.7814 156.432 67.4109 156.819 66.9871V66.9871Z" fill="#065393"/>
<path d="M153.343 67.7929L154.398 67.813C154.243 68.0828 153.384 68.3832 153.761 68.4432C152.695 68.5373 152.85 68.2674 153.343 67.7929Z" fill="#065393"/>
<path d="M152.223 67.3666L152.769 67.3681C152.714 67.4815 152.572 67.5492 152.223 67.3666Z" fill="#065393"/>
<path d="M153.924 67.3624C153.924 67.3624 153.642 67.3659 153.343 67.3778C153.061 67.3812 152.753 67.3754 152.753 67.3754C152.862 67.1927 152.789 66.9009 153.282 67.3414C153.146 67.1013 153.415 67.2999 153.924 67.3624Z" fill="#065393"/>
<path d="M154.491 67.0485C154.981 66.7059 155.648 66.3666 154.592 66.3465C156.475 65.9071 156.4 66.6185 154.491 67.0485Z" fill="#065393"/>
<path d="M158.584 63.3343L159.201 62.8445L159.92 62.9374C159.552 62.8952 158.622 63.643 158.584 63.3343Z" fill="#065393"/>
<path d="M147.27 69.7712C147.159 69.5843 147.492 69.1859 147.515 68.9136L148.306 68.9726C147.95 69.1858 147.25 69.4541 147.27 69.7712Z" fill="#065393"/>
<path d="M147.513 68.9126L146.336 68.8198C147.309 68.5743 147.517 68.6927 147.513 68.9126Z" fill="#065393"/>
<path d="M151.793 66.4172C151.793 66.4172 152.285 66.4882 152.767 66.5413C153.259 66.6123 153.751 66.6393 153.751 66.6393C153.751 66.6393 153.179 66.6284 152.591 66.582C152.011 66.5533 151.44 66.4985 151.44 66.4985L151.793 66.4172Z" fill="#065393"/>
<path d="M143.019 70.6403L143.725 70.9793L142.468 70.489L143.019 70.6403Z" fill="#065393"/>
<path d="M140.157 71.0248C140.689 71.3165 139.598 71.7708 140.149 71.9221C139.356 71.995 138.639 71.7262 137.992 71.5115C138.642 71.5943 139.339 71.5019 140.157 71.0248Z" fill="#065393"/>
<path d="M136.929 71.2101C137.262 71.2692 137.603 71.3901 137.988 71.5118C137.637 71.4611 137.295 71.3842 136.929 71.2101Z" fill="#065393"/>
<path d="M144.471 69.2954C144.407 69.4349 144.312 69.7851 143.709 70.0288C143.709 70.0288 143.791 69.8808 143.873 69.7327C143.947 69.567 144.047 69.4105 144.047 69.4105C144.179 69.369 144.321 69.3453 144.471 69.2954Z" fill="#065393"/>
<path d="M144.055 69.3837L144.046 69.4099C143.577 69.5242 143.251 69.5708 143.118 69.6123C143.224 69.5615 143.515 69.5318 144.055 69.3837Z" fill="#065393"/>
<path d="M144.595 69.2803C144.551 69.2795 144.515 69.2964 144.48 69.3133C144.508 69.2346 144.525 69.2262 144.595 69.2803Z" fill="#065393"/>
<path d="M149.079 67.6231C148.368 67.504 146.962 67.4332 148.146 66.7166C148.696 66.9559 148.018 67.4094 149.079 67.6231Z" fill="#065393"/>
<path d="M144.978 68.487L146.111 68.1214C146.117 68.2711 145.954 68.5232 146.296 68.6001L144.978 68.487Z" fill="#065393"/>
<path d="M144.384 68.4219L144.981 68.4861L144.565 68.6189L144.384 68.4219Z" fill="#065393"/>
<path d="M138.914 70.4396C138.372 70.2621 137.808 70.3129 137.155 70.3621C137.828 70.1725 138.517 70.0185 139.178 69.9431C139.316 70.0953 139.645 70.3743 138.914 70.4396Z" fill="#065393"/>
<path d="M141.425 69.8981C141.381 69.8973 141.337 69.8965 141.311 69.8872C141.347 69.8263 141.4 69.8009 141.425 69.8981Z" fill="#065393"/>
<path d="M130.874 70.9362C130.901 70.9015 130.928 70.8668 130.973 70.8237C130.99 70.8592 130.998 70.8769 130.997 70.9209L130.874 70.9362Z" fill="#065393"/>
<path d="M139.294 69.8223C139.79 69.6294 140.114 69.7147 140.411 69.8348C140.024 69.845 139.627 69.8815 139.177 69.9433C139.143 69.8722 139.118 69.819 139.294 69.8223Z" fill="#065393"/>
<path d="M135.145 71.168C135.402 71.0233 135.687 70.8879 135.997 70.7618C135.764 70.9598 135.248 71.2931 135.145 71.168Z" fill="#065393"/>
<path d="M141.157 70.0672C141.183 70.0765 141.21 70.0858 141.227 70.0774C141.075 70.2153 141.094 70.1628 141.157 70.0672Z" fill="#065393"/>
<path d="M141.157 70.0678C140.877 70.0272 140.658 69.9351 140.44 69.8429C140.766 69.8403 141.047 69.8369 141.31 69.8859C141.248 69.9375 141.194 70.0069 141.157 70.0678Z" fill="#065393"/>
<path d="M128.846 67.414C128.933 67.9172 130.297 68.4007 131.382 67.7526C132.512 68.0645 131.924 69.8043 130.946 70.8152C130.906 70.5945 130.875 70.3915 129.701 70.1228C129.906 69.9595 130.551 69.8046 131.013 69.5846C131.475 69.3646 131.761 69.1413 131.246 68.9291C129.7 68.7501 130.001 69.1518 129.256 69.4632C129.876 68.7975 127.266 68.5806 127.593 67.6189L128.933 67.9172C128.971 67.7684 128.474 67.5477 128.846 67.414Z" fill="#065393"/>
<path d="M133.22 70.6026L133.712 70.6295C133.164 70.7599 132.772 70.99 132.077 71.4519C131.245 71.2601 131.072 71.0808 130.996 70.921L133.403 70.6677L133.22 70.6026Z" fill="#065393"/>
<path d="M135.898 70.4155C135.459 69.9056 134.291 69.7866 134.928 69.1124C136.33 68.9895 135.96 69.4488 136.819 69.6059C134.529 69.7383 137.519 69.8392 135.89 70.3538C136.347 70.3976 136.752 70.379 137.149 70.3425C136.742 70.4492 136.352 70.5913 135.988 70.7428C136.006 70.7343 136.015 70.7081 136.033 70.6996C136.123 70.6134 136.15 70.5787 136.043 70.6295L135.999 70.6286C136.001 70.5406 135.949 70.4781 135.898 70.4155C135.252 70.6144 135.798 70.572 136.035 70.6117C136.043 70.6294 136.06 70.665 136.069 70.6827L136.051 70.6912C136.051 70.6912 135.461 70.6887 134.89 70.6779C134.31 70.6492 133.721 70.6028 133.721 70.6028C134.198 70.5063 134.814 70.518 135.898 70.4155Z" fill="#065393"/>
<path d="M146.695 65.7745C146.641 65.8439 146.658 65.8794 146.657 65.9234C146.508 65.8853 146.447 65.849 146.695 65.7745Z" fill="#065393"/>
<path d="M145.878 66.2937C146.053 66.341 146.234 66.5381 146.739 66.3629C147.157 66.0981 146.682 66.1066 146.659 65.9214C147.001 65.9983 147.844 66.076 146.92 66.5599L146.745 66.5126C145.901 66.8925 144.881 67.8146 145.056 67.8619C145.225 67.302 145.382 66.9002 145.878 66.2937Z" fill="#065393"/>
<path d="M140.883 68.3472L138.982 68.3814C138.982 68.3814 139.214 68.2275 139.419 68.0642C139.625 67.9009 139.856 67.7469 139.856 67.7469L139.85 68.0548C140.886 67.7577 140.72 68.1417 140.883 68.3472Z" fill="#065393"/>
<path d="M130.655 71.2145L130.934 71.8005L129.788 70.9956L130.655 71.2145Z" fill="#065393"/>
<path d="M128.12 71.2027L128.215 71.7237L127.552 71.4295L128.12 71.2027Z" fill="#065393"/>
<path d="M134.394 45.4427L134 45.8047C134.171 45.6144 134.296 45.5112 134.394 45.4427Z" fill="#065393"/>
<path d="M136.127 42.2205L136.399 42.2433C136.212 42.3541 136.089 42.3694 136.127 42.2205Z" fill="#065393"/>
<path d="M89.5625 32.8965C89.4853 31.8655 89.3599 30.5961 89.8192 30.9656L90.1788 31.4916C89.7907 32.0033 89.6148 32.4575 89.5625 32.8965Z" fill="#065393"/>
<path d="M127.285 19.1735C127.196 19.2158 127.107 19.2582 127.018 19.3005C126.865 19.0688 126.719 18.8548 126.6 18.6502C126.808 18.8125 127.042 18.9841 127.285 19.1735Z" fill="#065393"/>
<path d="M127.309 21.5584L128.323 21.4458C128.076 21.5202 127.749 21.5668 127.309 21.5584Z" fill="#065393"/>
<path d="M120.331 60.5105L119.487 60.4769C120.212 59.8483 120.097 60.3389 120.331 60.5105Z" fill="#065393"/>
<path d="M102.542 65.8924C101.771 65.737 101.175 65.5848 100.714 65.3033C101.661 65.5061 102.544 65.3469 102.542 65.8924Z" fill="#065393"/>
<path d="M140.353 47.1578C140.093 47.4345 139.906 47.5013 139.802 47.4201C140.089 47.1528 140.268 47.0242 140.353 47.1578Z" fill="#065393"/>
<path d="M98.8329 64.1508C98.9733 64.171 99.1044 64.2175 99.2533 64.2556C99.6686 64.6242 100.128 64.9937 100.72 65.3218C100.01 65.1587 99.2416 64.8713 98.8329 64.1508Z" fill="#065393"/>
<path d="M49.8768 86.0785C49.8235 86.1039 49.744 86.1199 49.6992 86.1631C49.6831 86.0836 49.7626 86.0675 49.8768 86.0785Z" fill="#065393"/>
<path d="M26.9441 91.4494C27.1716 91.5153 27.5497 91.5313 27.8922 91.5642C27.7332 91.5964 27.4346 91.5643 26.9441 91.4494Z" fill="#065393"/>
<path d="M117.867 70.9014C118.402 71.0172 117.945 70.9733 117.867 70.9014V70.9014Z" fill="#065393"/>
<path d="M120.695 68.9666C120.591 68.8854 120.513 68.8136 120.515 68.6816C120.557 68.8144 120.625 68.9125 120.695 68.9666Z" fill="#065393"/>
<path d="M96.8012 58.0147C96.7927 57.997 96.7928 57.997 96.7665 57.9877C96.9509 58.0088 96.9154 58.0257 96.8012 58.0147Z" fill="#065393"/>
<path d="M118.713 70.7592C118.492 70.799 118.263 70.821 118.008 70.8338C118.123 70.8008 118.326 70.7694 118.713 70.7592Z" fill="#065393"/>
<path d="M118.573 71.0018C118.767 70.9967 118.907 71.017 119.057 71.0111C119.108 71.1176 119.045 71.1692 118.573 71.0018Z" fill="#065393"/>
<path d="M117.122 70.7548C117.429 70.8046 117.72 70.819 118.001 70.8155C117.878 70.8308 117.851 70.8655 117.859 70.8832C117.701 70.8714 117.49 70.841 117.122 70.7548Z" fill="#065393"/>
<path d="M90.7292 79.7992C90.7021 79.8339 90.6666 79.8508 90.6395 79.8855C90.0686 79.8306 90.2894 79.7909 90.7292 79.7992Z" fill="#065393"/>
<path d="M102.604 26.3779C102.586 26.3864 102.56 26.3771 102.542 26.3856C102.56 26.3771 102.569 26.3509 102.579 26.3247L102.604 26.3779Z" fill="#065393"/>
<path d="M104.24 25.8371C103.251 25.5895 102.972 25.9186 102.585 26.3424C102.585 26.3424 102.479 25.9356 102.364 25.511C102.248 25.0865 102.16 24.6713 102.16 24.6713C102.16 24.6713 102.709 24.9545 103.213 25.2368C103.736 25.5108 104.24 25.8371 104.24 25.8371Z" fill="#065393"/>
<path d="M128.9 52.5709L129.311 51.2853C127.725 51.8887 127.257 52.8741 127.45 51.5403C128.171 52.0467 128.997 51.1737 129.77 50.2822C130.148 49.8406 130.536 49.3728 130.928 49.0987C131.294 48.8153 131.675 48.6994 132.066 48.9268L132.241 48.059C132.123 48.268 132.018 48.2308 131.891 48.4219C132.127 46.6754 133.611 48.2347 134.561 46.3874C134.811 45.7234 134.848 45.161 134.42 45.452C134.42 45.452 134.725 45.1762 135.011 44.9089C135.316 44.6331 135.594 44.348 135.594 44.348C135.787 43.9294 135.462 43.888 135.261 44.2889C135.261 44.2889 135.569 43.7932 135.896 43.2891C136.204 42.7934 136.478 42.2707 136.478 42.2707L136.426 42.2521C136.621 42.159 136.897 42.0059 137.173 41.8088C137.432 41.6201 137.682 41.4137 137.835 41.2758C137.829 40.6246 137.54 41.4814 137.404 41.2412C137.404 41.2412 137.629 40.9815 137.854 40.7218C138.079 40.4622 138.295 40.1847 138.295 40.1847C138.161 39.8566 137.904 39.9133 137.663 40.1375C137.403 40.3701 137.122 40.7871 136.991 41.1982C136.41 40.2984 136.616 40.1352 136.956 39.7985C137.262 39.4787 137.808 38.9788 137.622 37.673C137.622 37.673 137.485 37.9343 137.365 38.1872C137.293 38.309 137.228 38.4486 137.183 38.5357C137.137 38.6228 137.083 38.6922 137.083 38.6922C136.714 38.1924 136.669 37.778 136.687 37.312C136.687 36.8544 136.732 36.3538 136.523 35.7339C136.687 35.8954 136.948 36.5338 137.255 37.0412C137.562 37.5486 137.907 37.9072 138.279 37.3159C138.217 36.91 138.305 36.4541 138.731 35.7935C138.117 35.6938 138.375 35.0476 138.452 34.2483L137.616 34.2764C137.878 33.4543 138.281 33.5236 138.661 32.994C138.486 32.0316 137.81 31.9396 137.23 31.8669C137.14 31.5397 137.177 31.4348 137.248 31.4009C137.345 31.3764 137.511 31.4499 137.659 31.5319C137.973 31.6875 138.376 31.8007 138.243 30.9271C138.09 30.6514 137.98 30.3766 137.862 30.1279C137.761 29.8708 137.704 29.6146 137.622 29.349C137.539 29.0835 137.518 28.7663 137.418 28.4653C137.354 28.1473 137.273 27.7938 137.131 27.4039C136.385 26.8442 136.814 27.8378 136.43 27.7161C136.43 27.7161 136.461 27.4615 136.466 27.1977C136.471 26.9338 136.458 26.6784 136.458 26.6784C136.32 26.5262 136.211 26.7089 136.148 26.8045C135.888 26.122 136.74 26.2174 136.116 25.2288C136.208 25.0106 136.088 24.8499 135.835 24.7307C135.6 24.6031 135.224 24.4991 134.838 24.4214C134.068 24.222 133.191 24.0293 132.811 23.2301C132.388 23.2573 132.713 23.7562 132.453 23.9888C131.772 23.2456 131.426 22.931 131.123 22.6613C130.83 22.3653 130.58 22.0702 129.925 21.3362C129.925 21.3362 129.538 21.3465 129.141 21.3829C128.754 21.3931 128.366 21.4473 128.366 21.4473C129.577 21.1536 128.472 20.0239 127.327 19.175C127.788 18.955 128.188 18.7866 128.462 18.7214C128.462 18.7214 127.974 18.4746 127.485 18.2717C127.24 18.1703 126.987 18.0511 126.795 17.9682C126.612 17.9031 126.481 17.8566 126.481 17.8566C126.197 17.948 126.367 18.2592 126.65 18.6694C126.52 18.5789 126.389 18.4884 126.303 18.3988C125.517 18.5774 125.841 19.1203 126.253 19.6649C126.519 19.538 126.794 19.4288 127.06 19.3019C127.454 19.8989 127.758 20.5383 127.547 21.0094C127.444 20.8842 127.235 20.7659 126.964 20.6551C127.058 20.8065 127.108 20.957 127.028 21.0171C126.956 21.0949 126.784 20.8717 126.525 20.6028C126.525 20.6028 126.363 20.8109 126.218 21.0105C126.056 21.2186 125.92 21.436 125.92 21.436L125.892 21.0571C125.892 21.0571 125.724 21.0715 125.487 21.0758C125.24 21.1063 124.932 21.1004 124.605 21.147C124.297 21.1851 123.962 21.2139 123.733 21.236C123.486 21.2665 123.344 21.2902 123.344 21.2902C121.684 20.2291 120.031 18.7722 116.918 18.6865C117.733 19.3004 117.179 19.7826 117.313 20.5683C118.034 19.6581 119.598 20.7437 121.052 20.5954C120.268 20.6861 120.454 21.0768 120.645 21.2036C120.645 21.2036 119.998 20.9889 119.314 20.8351C118.64 20.6551 117.965 20.5191 117.965 20.5191C118.085 21.1813 117.445 21.0283 116.796 21.4031C117.165 20.0287 114.705 20.765 113.555 20.6375C113.573 21.0866 113.918 21.4452 115.2 21.1176C114.564 21.7038 114.05 21.4477 113.51 21.1382C112.979 20.8465 112.404 20.554 111.786 21.1318C112.104 21.0675 112.264 20.9473 112.445 21.1443C111.596 20.917 109.873 21.7817 110.422 22.021L110.723 21.9211C109.713 22.3154 108.189 22.8672 106.843 23.2903C105.506 23.7312 104.321 24.0342 103.898 23.6478C103.957 23.7721 104.802 24.6769 105.019 24.813C105.019 24.813 104.705 24.7014 104.214 24.5865C103.741 24.4631 103.076 24.3009 102.409 24.1826C101.068 23.9283 99.6622 23.8136 99.6622 23.8136C100.097 24.0858 100.346 24.8825 100.765 25.5328C101.157 26.1738 101.693 26.6591 102.535 26.3672C102.21 26.7834 101.814 27.2334 100.804 27.6277C100.968 27.3316 100.623 26.014 100.188 26.2433C99.996 27.0756 99.9386 27.3209 99.8101 27.6C99.6994 27.8707 99.5184 28.1312 99.2995 28.9981C99.5117 28.483 98.0814 27.8135 97.4971 28.4623C97.7424 28.5198 98.5241 29.5201 98.8429 29.4118C98.8429 29.4118 98.6839 29.444 98.4547 29.466C98.2162 29.5143 97.9245 29.5879 97.6242 29.6438C97.006 29.764 96.4039 29.9637 96.4039 29.9637C96.9367 29.7099 97.4198 30.6782 97.4875 31.2778C97.3623 30.9234 96.4941 32.6227 96.1347 33.0119C96.1347 33.0119 96.1829 32.7928 96.2048 32.5644C96.253 32.3454 96.3011 32.1263 96.3011 32.1263C96.0103 32.6135 95.7405 32.9164 95.4023 33.1211C95.064 33.3258 94.7012 33.4333 94.3291 33.567C93.957 33.7007 93.5849 33.8344 93.2374 34.0654C92.8983 34.3141 92.6099 34.6694 92.3792 35.2369C92.8045 35.0778 94.3481 35.3448 94.1157 36.4579C93.6827 36.5552 92.5875 36.7719 91.5473 37.3329C91.023 37.6045 90.4624 37.937 89.9702 38.3676C89.4958 38.7897 89.134 39.3107 88.8685 39.8512L89.2196 40.3595C89.2196 40.3595 89.1646 40.4728 89.1004 40.6123C89.0268 40.7781 88.9525 40.9879 88.8781 41.1977C88.72 41.6434 88.5535 42.0714 88.5535 42.0714C88.8664 41.8134 89.2519 41.4335 89.6824 41.0106C90.095 40.5961 90.6666 40.1494 91.1588 39.7188C92.1346 38.8399 93.3016 38.0878 93.9011 37.5625C93.9986 38.453 94.3165 37.9311 93.9513 39.0856C94.2322 39.5837 94.7259 38.6076 94.8375 38.293C94.8375 38.293 94.7193 38.9595 94.601 39.6259C94.5444 40.2848 94.4964 40.9614 94.4964 40.9614C93.5863 40.6977 93.421 42.9119 92.7105 42.7928C92.7105 42.7928 92.9886 42.0502 93.2845 41.2991C93.6328 40.5666 94.0065 39.8874 94.0065 39.8874C93.5869 39.7386 92.9036 40.0424 92.2838 40.7081C91.9431 41.0448 91.7325 41.472 91.5474 41.9524C91.3801 42.4244 91.2288 42.9758 91.2974 43.5315C91.6654 44.0752 92.8451 43.121 93.1428 43.197C92.9999 43.3087 92.8587 43.7899 92.8055 44.2729C92.7658 44.5097 92.7523 44.7558 92.7668 44.9233C92.7896 45.1085 92.8311 45.2413 92.892 45.2776C92.892 45.2776 92.9841 45.0594 93.0763 44.8412C93.1947 44.6322 93.3046 44.4056 93.3046 44.4056C93.4527 44.9451 93.2768 45.3993 93.1002 45.8975C93.025 46.1513 92.9582 46.4228 92.9794 46.6959C93.0183 46.9606 93.1537 47.2448 93.4388 47.523C93.5226 47.7446 93.8787 47.9889 94.1384 48.2138C94.4336 48.4218 94.6501 48.6019 94.4193 48.7119C93.8154 48.542 92.7582 48.6099 91.8127 48.8207C90.8409 49.0222 89.9276 49.392 89.6824 49.7921C89.7425 49.8724 90.223 50.515 90.783 51.1416C91.0495 51.4723 91.3785 51.7513 91.6729 52.0033C91.9588 52.2375 92.2278 52.4362 92.3936 52.5098C92.9349 52.7312 93.2088 52.2085 93.4735 51.712C93.7381 51.2155 93.9934 50.7452 94.4391 50.9033C94.2345 51.0226 94.1627 51.5579 94.1501 51.7601C94.3489 51.9486 94.5011 51.8107 94.6254 51.7515C94.7759 51.7016 94.8808 51.7388 95.127 52.2098C94.4556 52.813 96.3766 54.055 94.7593 53.0387C94.9429 53.5614 95.1231 53.8024 95.3743 54.0095C95.6256 54.2167 95.9208 54.4247 96.2981 54.9422C95.9547 54.9533 95.7332 55.4946 95.7114 56.1805C95.6988 56.8402 95.9037 57.636 96.2277 58.1789C96.3461 57.97 96.7334 57.9598 96.9093 57.9631C98.7272 59.5375 99.9849 60.0278 101.846 61.1895C102.138 61.1159 103.161 61.4345 102.978 60.8679C103.158 61.1529 103.237 61.5944 103.847 61.9139C105.353 61.8282 102.577 61.1243 103.895 60.7798C103.71 61.2602 105.073 62.2012 105.799 62.9014C105.494 63.2211 104.97 62.9912 104.441 62.6116C103.921 62.2057 103.358 61.7111 103.049 61.2916C102.776 61.7704 102.833 62.4842 103.276 63.2318C103.702 63.9878 104.441 64.8993 105.484 65.5791C107.181 66.5793 106.529 65.2558 106.788 65.5247C110.208 66.5753 109.108 68.4286 112.293 68.4364C113.62 68.0657 112.653 67.0882 113.04 66.6644C112.342 66.3431 111.735 66.3052 111.19 66.3036C110.644 66.302 110.142 66.3453 109.635 66.1509C109.635 66.1509 109.969 66.166 110.294 66.2074C110.62 66.2048 110.954 66.2199 110.954 66.2199C110.538 65.8952 109.641 65.3854 109.042 65.4092C109.316 65.3441 109.808 65.415 110.447 65.568C111.07 65.6854 111.858 65.8764 112.672 66.0767C113.486 66.3209 114.39 66.4349 115.241 66.5743C115.662 66.6351 116.075 66.6781 116.47 66.7297C116.874 66.7549 117.235 66.7354 117.579 66.7244C118.022 67.0144 118.807 67.3813 118.389 67.6021L117.548 67.3925C116.677 67.8511 119.052 68.3978 117.923 68.4995C118.472 68.7828 119.073 69.1285 119.728 69.361C120.402 69.585 121.138 69.7134 121.985 69.6151L122.36 68.848C122.312 69.067 121.244 69.249 120.801 68.959C121.471 69.359 123.386 68.1195 124.088 69.136C124.088 69.136 123.804 69.2714 123.494 69.3975C123.192 69.5413 122.891 69.6412 122.891 69.6412C124.044 70.0943 125.505 70.9668 127.014 70.7491C126.339 71.5282 126.682 70.646 125.591 71.558C126.536 70.4321 121.755 71.5114 123.291 70.3439C122.137 71.3514 121.385 70.642 119.856 71.4576C119.922 71.1861 120.41 71.0194 119.143 71.0129C119.1 70.9241 118.962 70.8159 118.884 70.744C118.84 70.7432 118.84 70.7431 118.804 70.7601C118.822 70.7516 118.84 70.7432 118.884 70.744C118.841 70.6992 118.832 70.6814 118.901 70.7355C119.211 70.6534 119.468 70.5527 119.576 70.414C119.017 69.7434 117.042 69.4859 116.434 69.0783C115.686 69.1081 116.683 69.4174 116.247 69.6467C116.247 69.6467 116.021 69.4928 115.787 69.3212C115.561 69.1673 115.327 68.9957 115.327 68.9957C115.132 69.5463 113.178 69.5619 114.854 70.245L113.258 69.9594C112.252 70.1338 110.938 69.8449 110.215 69.4264C109.425 69.3673 108.54 68.2418 109.046 68.8938L106.746 67.7237L106.673 67.8455C106.07 67.6316 105.513 67.3307 104.92 67.0026C104.337 66.6923 103.762 66.3558 103.207 65.9669C102.624 65.6127 102.023 65.2669 101.395 64.9997C100.759 64.6709 100.095 64.4207 99.3151 64.2474C98.986 63.9684 98.6578 63.6454 98.2687 63.286C97.8702 62.9529 97.3932 62.5918 96.758 62.219L96.226 62.4288C95.8386 61.9815 95.1086 61.5013 94.475 61.0405C93.8507 60.5534 93.3415 60.0334 93.366 59.6731C92.9 59.6554 92.3848 59.4432 91.9272 58.9858C91.4518 58.5368 90.9882 57.9296 90.5339 57.2963C90.1422 56.6113 89.7513 55.8823 89.412 55.2159C89.0905 54.5411 88.8214 53.8848 88.5219 53.4392L89.0919 53.0805C88.7256 52.4487 88.563 51.7417 88.3743 51.0254C88.2846 50.6542 88.1771 50.2914 88.1322 49.8769C88.0957 49.4803 88.0424 49.0481 88.0067 48.6075L88.6055 48.5837C88.6393 48.1972 88.5504 47.7819 88.4708 47.3404C88.3828 46.8812 88.26 46.3949 88.1026 45.8816C87.9367 45.3505 87.8504 44.8033 87.7555 44.2384C87.6784 43.665 87.5667 43.0645 87.6571 42.4767C87.5412 42.5537 87.4761 42.7372 87.4804 42.9749C87.4847 43.2125 87.5414 43.4688 87.6167 43.6726C87.2343 42.9614 87.2223 42.2044 87.2889 41.4754C87.3312 41.1066 87.3911 40.7294 87.4858 40.3793C87.5982 40.0206 87.7368 39.6713 87.8755 39.322C88.0141 38.9727 88.135 38.6318 88.2821 38.3002C88.403 37.9594 88.5847 37.6549 88.6878 37.3225C88.9465 36.6763 89.0555 36.036 89.0596 35.3585C89.4917 34.8476 89.5618 34.4002 89.5972 33.9257C89.5786 33.9782 89.5338 34.0213 89.5067 34.056C89.5253 34.0036 89.5625 33.8987 89.6082 33.8116C89.6225 33.5215 89.6461 33.2051 89.6875 32.8803C89.6994 33.1797 89.7028 33.4614 89.6809 33.6897C89.8914 33.2626 90.2473 32.5918 90.7242 32.0378L90.3038 31.4754C90.3401 31.4145 90.3672 31.3798 90.412 31.3367C90.5582 30.5916 90.938 30.9772 91.1825 31.5362C91.4252 31.268 91.7195 31.0624 91.9774 30.9178C91.6965 30.4197 91.9941 30.0382 92.3527 29.693C92.7027 29.3301 93.0444 28.9495 92.8362 28.3296C93.1973 28.3101 93.8086 27.6266 94.5139 27.0945C95.2107 26.5446 95.9845 26.1106 96.5072 26.3845C96.4217 26.2509 96.5131 26.0766 96.2442 26.3355C96.6788 25.6926 97.1742 25.0861 97.8998 24.8711L97.6426 24.0567C97.6426 24.0567 98.1365 23.9957 98.6304 23.9347C99.1243 23.8737 99.6174 23.8567 99.6174 23.8567C100.129 22.8721 100.332 22.3833 99.1418 22.4926C100.407 22.1295 100.885 21.989 101.319 21.8037C101.745 21.6447 102.135 21.5025 103.254 21.427L102.909 21.0245C103.247 20.8637 103.741 20.8027 104.191 20.6969C104.633 20.6173 105.022 20.5191 105.142 20.2223C105.659 19.4314 107.532 18.5607 109.789 17.8557C112.046 17.1508 114.652 16.6284 116.724 15.9463C116.391 16.7583 116.862 16.5121 117.457 16.2507C118.052 15.9892 118.779 15.6863 118.9 16.2605C119.118 15.8951 119.721 15.6514 119.005 15.3826C121.199 15.6444 122.351 14.7688 123.817 15.879C124.088 15.5321 123.397 15.3166 123.629 15.1187C123.803 15.21 124.3 15.4746 124.559 15.2859C124.8 15.1057 124.266 14.946 123.917 14.7634C126.226 15.0361 126.274 16.2337 126.263 17.263C126.838 17.0979 127.287 17.0801 127.646 17.1925C128.005 17.3049 128.299 17.5569 128.616 17.9941C129.07 17.7563 129.794 17.5853 128.483 17.1204C128.869 17.1982 130.054 17.3527 131.13 17.6899C131.654 17.8759 132.161 18.0703 132.508 18.2969C132.856 18.5235 133.046 18.7383 132.989 18.9396C133.308 18.8313 134.011 19.3462 134.157 19.5161C135.726 20.2939 135.928 20.3066 137.306 21.4151L136.844 21.2215C136.832 21.8372 137.064 22.0968 137.456 22.3242C137.821 22.5864 138.354 22.7901 138.792 23.344L138.829 23.2391C139.542 23.6838 139.887 24.0423 140.138 24.2935C140.362 24.5353 140.429 24.7214 140.505 24.8812C140.648 25.2271 140.828 25.4681 141.974 26.7306L141.338 26.8592C141.07 27.0741 141.057 27.3202 141.184 27.5866C141.328 27.8446 141.586 28.1574 141.887 28.5151C142.507 29.2221 143.166 30.2377 143.068 31.2213L142.586 30.6226C142.52 30.8941 142.629 31.1689 142.834 31.4632C143.022 31.766 143.306 32.0881 143.599 32.4281C143.918 32.7773 144.193 33.1257 144.424 33.4733C144.655 33.8208 144.842 34.1675 144.863 34.4407C144.982 34.6893 145.081 34.0753 145.15 33.7159C145.526 35.1925 145.269 35.2932 144.953 35.2695C144.61 35.2366 144.216 35.1411 143.986 36.1223C144.374 36.5696 145.164 35.7575 145.048 37.2071C145.123 37.4109 144.994 37.7341 144.801 38.1527C144.608 38.5714 144.326 39.0764 144.026 39.5898C143.726 40.1033 143.434 40.6345 143.186 41.1665C142.957 41.6901 142.823 42.2331 142.832 42.7084C142.674 42.195 142.498 41.7341 141.912 42.4709C141.757 42.7847 141.661 43.1788 141.565 43.617C141.468 44.0551 141.381 44.511 141.275 44.9753C141.064 45.904 140.661 46.7058 139.908 46.9995C139.913 47.1932 139.937 47.2904 140.007 47.3445C139.613 47.7066 139.081 48.374 138.533 48.9619C137.977 49.532 137.404 50.0227 136.989 50.1116C137.296 50.619 137.154 51.1442 136.818 51.6746C136.465 52.2134 135.909 52.7396 135.337 53.2302C134.218 54.2208 133.13 55.0008 133.892 55.64C133.892 55.64 133.362 56.2195 132.832 56.7989C132.293 57.3606 131.754 57.9223 131.754 57.9223L131.964 57.9967C131.36 58.7859 130.797 59.2064 130.326 59.4526C129.855 59.6988 129.44 59.7877 129.016 59.8588C128.797 60.2682 129.16 60.1607 129.256 60.2241C128.38 61.4041 127.866 62.0191 127.277 62.4742C126.653 62.9023 125.97 63.1621 124.739 63.5962L124.982 64.2431C124.602 64.3151 124.004 65.21 123.14 66.2319C122.233 67.2089 121.068 68.3306 119.737 68.9212C119.798 68.9576 119.919 69.0303 120.149 68.9643C119.777 69.1419 119.429 69.3729 119.064 69.6123C118.698 69.8517 118.35 70.1267 118.036 70.4287C117.356 71.0141 116.737 71.6798 116.118 72.2576C115.805 72.5596 115.518 72.8269 115.214 73.0587C114.902 73.2727 114.6 73.4605 114.307 73.5782C113.713 73.8396 113.132 73.855 112.575 73.51L110.495 74.1303C112.699 72.5357 109.637 73.4717 110.376 72.553C109.435 73.0015 108.376 74.53 109.591 74.0164L109.71 73.8074C110.758 74.6369 106.997 75.7972 107.467 76.5101C102.739 78.9806 98.2597 81.7903 93.5187 83.5478L93.7156 82.4517L92.1189 83.1252C91.7604 83.4704 91.7935 84.043 92.9555 83.5547C92.5361 84.3211 90.8124 83.8131 90.7278 83.6355C88.5502 84.782 91.9983 84.3812 91.2896 84.6317L90.2992 84.8856L90.4785 84.7131C89.5566 84.6075 89.3789 84.2346 87.97 84.7533C87.1337 85.2389 87.675 85.4604 87.3291 85.6034C87.3629 85.6745 87.2386 85.7337 86.7887 85.7955L84.699 86.4861L85.3246 85.5125C84.2793 85.4222 83.3508 86.126 84.0931 85.0315C83.0481 86.7714 76.311 87.5407 75.5178 88.0711C74.0791 87.8414 72.7632 88.0979 71.1546 88.4721C71.5284 88.2504 71.6069 87.3632 70.236 87.7331C70.643 88.5415 70.0476 88.8469 69.2061 89.1389C68.374 89.4046 67.3227 89.6222 66.834 90.3344C67.2746 89.8413 66.2605 89.954 65.3268 90.0066C64.3669 90.0499 63.4966 90.007 64.2137 89.3167C63.0466 89.6112 64.2189 89.9679 63.3817 90.4975C61.9151 90.3464 60.3869 90.6605 58.753 90.9814C57.9403 91.1507 57.1098 91.3285 56.2539 91.453C55.398 91.5775 54.5337 91.6842 53.6448 91.6937C53.5788 91.4636 54.1318 91.0694 53.363 90.782C53.363 90.782 52.9258 91.0992 52.4708 91.4249C52.0252 91.7244 51.5702 92.0502 51.5702 92.0502C50.8589 91.975 50.8646 90.752 49.6249 91.626C49.7957 91.4356 50.0392 91.1235 49.5825 91.0796C46.1726 91.789 42.6466 91.6603 39.1215 91.4877C35.587 91.3412 32.0788 91.2041 28.4913 91.9981C29.4664 91.6207 28.8346 91.5295 28.1233 91.4543C28.591 91.3841 28.1604 90.8919 28.272 90.5773C28.272 90.5773 27.521 90.739 26.7877 90.8922C26.0283 91.0361 25.295 91.1894 25.295 91.1894C24.8458 90.2921 22.1614 90.7865 21.949 89.929L22.8591 90.1927C21.7627 89.0808 24.8056 88.2411 24.7419 86.9641C25.9854 88.202 28.4181 85.6702 30.4973 87.3816C31.0031 87.1624 30.1006 86.9605 30.3873 86.6931C30.9134 87.2487 31.5875 87.4287 32.8494 87.2416L32.7199 87.1071C36.2341 87.394 37.7657 86.904 41.7051 86.5742L41.4117 87.1933C42.2583 87.095 42.4291 86.9047 42.8283 86.7363C43.8138 87.6614 40.4509 86.8231 41.329 87.8429C41.8955 87.2025 43.3917 87.187 44.8354 87.1529C46.2884 87.0926 47.6982 86.9874 48.0287 86.2634C49.332 86.209 47.6804 86.9959 48.9753 86.9237L49.3084 86.5253L49.6688 87.0073C50.5247 86.8828 50.9128 86.3711 50.9364 86.0547C50.7419 86.1038 50.3393 85.9906 50.1194 85.9864C50.6522 85.7325 51.4353 85.7298 52.1297 85.7695C52.8156 85.7913 53.4212 85.8732 53.6165 85.7802L52.3784 86.1086C55.9484 86.2381 60.2074 85.2985 63.7123 85.6115L63.495 85.9329C66.1752 86.1159 65.5306 85.3118 68.4289 85.1294L68.3156 85.0744C68.9364 85.2798 69.7111 85.2594 70.4799 85.0892C69.7094 84.8898 71.7027 84.1798 70.6945 83.9846C73.5887 84.0221 72.1687 84.1974 74.224 84.8525L74.5427 84.2866C75.2676 84.5732 75.3691 84.7863 76.8069 84.6025C75.5602 84.4555 77.5459 83.6838 76.125 83.4456C77.478 82.6267 78.6054 82.5689 79.556 82.5518C80.4982 82.5169 81.2289 82.4957 81.6863 81.5805C83.3754 82.5189 79.3548 82.9527 80.1718 83.0211C79.6416 83.6005 81.5488 83.716 82.4275 83.3192C83.3485 83.0111 83.5502 81.1936 85.859 80.5512C85.629 80.6172 85.5867 80.5284 85.3566 80.5944C86.1329 80.0284 87.1801 80.4883 88.0502 79.6162C88.9104 80.1869 89.3973 79.1051 89.9075 80.0387L87.7163 80.5161C88.3514 80.4314 89.061 80.5945 89.8087 80.6088C90.1867 80.6248 90.5918 80.606 91.0164 80.4909C91.4232 80.3843 91.8494 80.1812 92.2781 79.8462C92.0607 79.7101 91.3748 79.6883 90.935 79.6799C91.3933 79.1783 92.092 79.4555 92.5858 78.937C92.3218 78.4744 91.6757 78.6733 90.9053 78.9314C90.1349 79.1895 89.2139 79.4975 88.4603 79.3336C88.9296 78.7178 91.1109 79.2257 90.1059 78.397C91.5033 79.4091 92.2455 77.3995 94.1646 77.8144L93.8406 77.2714C94.1222 77.268 94.7278 77.3499 95.1625 77.1646C95.1625 77.1646 94.8918 77.0539 94.6034 76.9516C94.3327 76.8409 94.062 76.7301 94.062 76.7301C95.5548 76.8905 96.1592 75.1862 97.4464 75.0523C95.0337 76.0711 97.2089 75.9717 96.3566 76.8354C98.0159 76.5678 98.2907 76.0011 98.5756 75.3642C98.8689 74.745 99.1293 74.0108 100.814 73.339C100.336 73.4795 99.3315 74.481 100.143 74.3997C100.705 73.9792 101.42 73.3769 101.667 72.8889C103.876 71.9454 101.627 73.6272 102.702 73.5069C102.897 73.0003 103.189 72.9266 103.575 72.9604C103.953 72.9764 104.426 73.0998 104.939 72.9423L104.651 72.3825C106.856 70.6999 105.92 73.1722 107.87 71.5463L106.51 71.3004L107.75 70.8841L107.144 70.3886C108.618 70.1438 108.915 69.7624 109.961 68.8936C109.916 69.4382 110.728 69.7705 111.77 69.1216C112.277 68.3569 111.07 68.8883 112.548 68.0101C112.022 67.9121 111.383 67.7151 111.067 68.6066C110.893 68.4713 110.524 68.4731 110.35 68.3378C110.613 67.9293 111.068 67.6036 111.539 67.3574C111.976 67.0841 112.42 66.8726 112.687 66.7017C112.499 66.8565 112.284 67.046 112.229 67.2033L114.767 66.4949C114.96 66.0762 114.581 66.1042 114.22 66.1237C114.673 65.886 115.13 65.9298 115.771 65.5373C115.319 65.2295 115.038 64.7754 114.036 65.1875C114.036 65.1875 114.603 64.9607 115.171 64.7339C115.445 64.6248 115.738 64.5072 115.933 64.4141C116.129 64.321 116.271 64.2533 116.271 64.2533C116.267 63.9717 116.84 63.0235 116.487 63.0608C117.299 62.0204 119.659 61.8981 120.665 60.395C120.805 60.4153 120.999 60.3662 121.32 60.1699C121.894 59.5913 122.346 58.9399 122.886 58.3343C123.434 57.7464 123.991 57.1322 124.941 56.7016L125.055 55.2959C126.27 54.3687 124.835 57.1659 126.862 55.6118C127.611 55.0806 127.572 54.8159 127.391 54.6188C127.21 54.4218 126.887 54.2925 126.999 53.9778C127.468 53.8196 128.124 53.5945 128.747 53.2104C129.37 52.8263 129.909 52.2206 130.155 51.363C129.451 51.8071 129.276 52.2173 128.9 52.5709ZM138.225 37.3853C138.035 37.672 137.445 38.1711 137.738 38.5111C138.523 38.3764 138.293 37.9849 138.225 37.3853ZM124.347 19.919C124.598 20.1702 125.013 20.0813 125.508 19.9323C125.176 19.8292 124.798 19.8132 124.347 19.919ZM112.074 69.3033C112.066 69.2856 112.04 69.2763 112.031 69.2585C111.107 69.2849 111.45 69.2738 112.074 69.3033ZM113.928 69.4442C114.093 69.5617 114.065 69.6404 113.967 69.7089C113.883 69.5313 113.471 69.4443 113.005 69.3826C113.166 69.2625 113.422 69.2058 113.928 69.4442ZM86.8284 85.5587L87.0973 85.2998C86.3133 85.3465 86.5755 85.4395 86.8284 85.5587Z" fill="#065393"/>
<path d="M127.284 21.2861C127.4 21.2091 127.455 21.0958 127.51 20.9824C127.621 21.1253 127.593 21.248 127.284 21.2861Z" fill="#065393"/>
<path d="M120.475 60.507C120.457 60.5155 120.448 60.5417 120.43 60.5501C120.386 60.5493 120.352 60.5222 120.317 60.4952L120.475 60.507Z" fill="#065393"/>
<path d="M94.8683 51.3523C94.6441 51.1104 94.4614 51.0014 94.3041 50.9456C94.4462 50.8779 94.6297 50.943 94.8683 51.3523Z" fill="#065393"/>
<path d="M123.448 71.685C123.448 71.685 123.168 71.6445 122.852 71.5769C122.563 71.5186 122.274 71.4603 122.274 71.4603C122.835 71.5414 123.058 71.4136 123.341 71.3222C123.321 71.4626 123.088 71.6606 123.448 71.685Z" fill="#065393"/>
<path d="M133.315 67.5956C133.481 67.6692 133.658 67.5846 133.816 67.6404L133.801 67.9304C133.097 67.961 132.59 67.7666 133.315 67.5956Z" fill="#065393"/>
<path d="M124.606 69.6299C124.704 69.1038 125.431 69.3024 126.203 69.4139C126.159 69.413 126.107 69.3944 126.071 69.4114C126.321 70.164 125.455 69.9012 124.606 69.6299Z" fill="#065393"/>
<path d="M126.41 69.4452C126.664 69.4764 126.911 69.4899 127.14 69.4679C127.231 69.7512 126.848 69.5415 126.41 69.4452Z" fill="#065393"/>
<path d="M116.156 70.2346C116.553 70.1542 116.292 70.9324 116.559 70.7615C116.728 71.1166 116.1 70.8495 115.701 70.5164C115.303 70.1832 115.133 69.872 116.156 70.2346Z" fill="#065393"/>
<path d="M125.308 67.9012L125.005 68.5466L124.576 68.0105L125.308 67.9012Z" fill="#065393"/>
<path d="M119.089 67.9673C119.089 67.9673 119.414 67.9647 119.714 67.9528C120.031 67.9325 120.348 67.9121 120.348 67.9121C120.311 68.017 120.477 68.0906 120.66 68.1556C120.274 68.1219 119.869 68.1406 119.552 68.1169C119.271 68.1204 119.069 68.0638 119.089 67.9673Z" fill="#065393"/>
<path d="M120.683 68.1653C121.087 68.1906 121.474 68.2243 121.691 68.3605C121.463 68.3385 120.998 68.2769 120.683 68.1653Z" fill="#065393"/>
<path d="M123.605 67.6671L123.224 67.7831L122.344 67.7664C122.344 67.7664 122.662 67.746 122.979 67.7256C123.278 67.7137 123.605 67.6671 123.605 67.6671Z" fill="#065393"/>
<path d="M105.956 64.744C105.956 64.744 105.652 64.5622 105.356 64.3982C105.208 64.3162 105.051 64.2164 104.938 64.1615C104.834 64.0803 104.747 64.0346 104.747 64.0346C104.708 63.7699 105.103 63.8214 105.537 64.0937C105.796 64.3626 106.231 64.6348 105.956 64.744Z" fill="#065393"/>
<path d="M110.415 64.4933C110.028 64.5035 109.964 64.643 109.706 64.7877L109.923 64.0087L110.415 64.4933Z" fill="#065393"/>
<path d="M106.864 62.9833C106.825 62.7186 105.385 61.6616 106.868 62.3498C106.898 62.5967 108.055 63.2875 106.864 62.9833Z" fill="#065393"/>
<path d="M92.0425 50.4981L92.1508 50.8169L90.9102 51.2772C90.9102 51.2772 91.1867 51.0801 91.481 50.8745C91.766 50.6952 92.0425 50.4981 92.0425 50.4981Z" fill="#065393"/>
<path d="M96.1593 34.8076C95.9793 35.4817 95.7772 35.469 95.5666 35.4386C95.3644 35.426 95.1716 35.3871 95.0973 36.0544C94.6804 36.2313 95.2324 34.9659 94.8502 35.1698C95.5224 34.5227 95.584 34.0575 96.1593 34.8076Z" fill="#065393"/>
<path d="M94.8436 35.1511C94.7446 35.2636 94.6195 35.3668 94.4766 35.4785C94.6651 35.2797 94.7725 35.185 94.8436 35.1511Z" fill="#065393"/>
<path d="M23.0115 91.7967L21.9265 91.9432L22.6461 91.5785L23.0115 91.7967Z" fill="#065393"/>
<path d="M21.0921 90.5551L20.7337 91.3578L20.1779 90.5113C20.4401 90.6042 20.8866 90.7183 21.0921 90.5551Z" fill="#065393"/>
<path d="M136.935 34.818L137.138 34.7866C137.355 34.9227 137.36 35.1164 137.327 35.5029C137.327 35.5029 137.224 35.3338 137.14 35.1562C137.055 34.9786 136.935 34.818 136.935 34.818Z" fill="#065393"/>
<path d="M133.053 46.0156L133.163 45.8329L133.57 46.5974L133.053 46.0156Z" fill="#065393"/>
<path d="M125.375 54.009C125.672 53.6715 126.144 53.3813 126.432 53.026C125.672 53.6715 125.968 54.7506 125.375 54.009Z" fill="#065393"/>
<path d="M53.7216 69.7162C53.8028 69.6121 54.0575 70.1009 54.1175 70.1813C53.8799 70.1855 53.6446 69.6003 53.7216 69.7162Z" fill="#065393"/>
<path d="M51.4095 69.7067L51.5558 69.8767L51.0339 69.5588L51.4095 69.7067Z" fill="#065393"/>
<path d="M49.8679 70.6806C49.515 69.8028 50.5055 70.464 50.6112 69.9997L50.5536 69.7874L51.0798 70.3429C50.673 70.4496 49.9718 70.3042 49.8679 70.6806Z" fill="#065393"/>
<path d="M50.1155 72.8946C49.9725 72.5487 49.7755 72.7297 50.2517 72.6772C50.2508 72.7211 50.2593 72.7389 50.2584 72.7829C50.2407 72.7913 50.1874 72.8167 50.1155 72.8946Z" fill="#065393"/>
<path d="M50.2749 72.774C50.4525 72.6894 50.3215 73.1004 50.2749 72.774V72.774Z" fill="#065393"/>
<path d="M49.416 73.0738L49.8093 73.2133C49.8846 73.4171 49.7231 73.5812 49.8711 73.6632C49.5455 73.6658 49.4702 73.462 49.416 73.0738Z" fill="#065393"/>
<path d="M48.8543 72.6232L49.0294 72.6705C49.0539 72.7678 49.0531 72.8117 48.8543 72.6232Z" fill="#065393"/>
<path d="M49.4209 72.766L49.0267 72.6705C48.9768 72.52 48.8144 72.2705 49.1849 72.6823C49.0216 72.4768 49.2204 72.6654 49.4209 72.766Z" fill="#065393"/>
<path d="M49.4816 72.5645C49.4951 72.3184 49.5695 72.1086 49.2024 71.9785C49.6718 71.8202 49.9594 72.424 49.4816 72.5645Z" fill="#065393"/>
<path d="M49.2867 69.9117L49.3019 69.5776L49.6064 69.7594C49.4583 69.6774 49.4314 70.1696 49.2867 69.9117Z" fill="#065393"/>
<path d="M48.3364 74.3301C48.2163 74.1695 48.1257 73.8422 48.0158 73.6113L48.3042 73.7136C48.2839 73.854 48.1918 74.0722 48.3364 74.3301Z" fill="#065393"/>
<path d="M48.0068 73.5931L47.5957 73.4621C47.7835 73.3073 47.9137 73.3978 48.0068 73.5931Z" fill="#065393"/>
<path d="M48.2521 71.7764L49.037 72.1433L48.1811 71.8103L48.2521 71.7764Z" fill="#065393"/>
<path d="M47.4559 74.9029L47.8374 75.2006L47.2208 74.7753L47.4559 74.9029Z" fill="#065393"/>
<path d="M46.816 75.2066C47.1104 75.4586 47.0242 75.8265 47.2416 75.9626C47.0471 76.0117 46.7341 75.8122 46.4558 75.6397C46.6656 75.7141 46.8 75.5847 46.816 75.2066Z" fill="#065393"/>
<path d="M46.03 75.43C46.1526 75.4587 46.3091 75.5585 46.4656 75.6582C46.343 75.6295 46.2034 75.5652 46.03 75.43Z" fill="#065393"/>
<path d="M47.2554 73.7989C47.3062 73.9055 47.4238 74.1981 47.3672 74.3994L47.1573 73.8675C47.1844 73.8328 47.2199 73.8159 47.2554 73.7989Z" fill="#065393"/>
<path d="M47.148 73.8499C47.0584 73.9362 46.9958 73.9878 46.9688 74.0225C46.9958 73.9878 47.0406 73.9446 47.148 73.8499Z" fill="#065393"/>
<path d="M47.2639 73.7718L47.2461 73.7803C47.2292 73.7448 47.2207 73.727 47.2639 73.7718Z" fill="#065393"/>
<path d="M47.9054 72.5957C47.6009 72.4139 47.145 72.3261 47.1737 71.7459C47.4681 71.9978 47.4529 72.3319 47.9054 72.5957Z" fill="#065393"/>
<path d="M47.0235 73.1247L47.2044 72.8641C47.2814 72.98 47.3474 73.21 47.4954 73.292L47.0235 73.1247Z" fill="#065393"/>
<path d="M46.7976 73.0586L47.0251 73.1245L46.9439 73.2285L46.7976 73.0586Z" fill="#065393"/>
<path d="M46.1741 74.7292C45.9305 74.5838 45.8062 74.643 45.6556 74.693C45.7469 74.5187 45.8467 74.3622 46.0065 74.2861C46.1097 74.4112 46.3255 74.6353 46.1741 74.7292Z" fill="#065393"/>
<path d="M46.6214 74.2536L46.5775 74.2527C46.5698 74.191 46.5791 74.1648 46.6214 74.2536Z" fill="#065393"/>
<path d="M44.3281 75.5195C44.3112 75.484 44.2943 75.4485 44.3036 75.4223L44.3637 75.5026L44.3281 75.5195Z" fill="#065393"/>
<path d="M45.9584 74.1784C46.0142 74.0211 46.136 74.0938 46.2925 74.1936C46.1868 74.2003 46.0811 74.2071 45.983 74.2757C45.9491 74.2046 45.9144 74.1776 45.9584 74.1784Z" fill="#065393"/>
<path d="M45.5075 75.4372C45.51 75.3052 45.5125 75.1733 45.5235 75.0591C45.5725 75.2536 45.6022 75.5446 45.5075 75.4372Z" fill="#065393"/>
<path d="M46.6269 74.4034L46.6531 74.4127C46.6861 74.5278 46.6607 74.4745 46.6269 74.4034Z" fill="#065393"/>
<path d="M46.6307 74.4027C46.5258 74.3655 46.4218 74.2843 46.3177 74.2032C46.4057 74.2048 46.4937 74.2065 46.5985 74.2437C46.5977 74.2877 46.6053 74.3494 46.6307 74.4027Z" fill="#065393"/>
<path d="M42.0337 72.758C42.3248 73.1859 42.8661 73.4073 42.8076 72.7815C43.2618 72.9573 43.9979 74.5024 44.2882 75.4318C44.1596 75.2534 44.0488 75.0665 43.6546 74.971C43.581 74.6792 43.8566 74.0685 43.4041 73.8047C42.9381 73.7871 43.2307 74.127 43.2156 74.4611C43.0074 73.8412 42.3105 73.9335 41.8689 73.098L42.3332 73.2036C42.2571 73.0438 42.0219 72.9161 42.0337 72.758Z" fill="#065393"/>
<path d="M44.7519 75.0799L44.8839 75.0824C44.8196 75.222 44.8416 75.4512 44.9035 75.9011C44.5973 75.8073 44.4594 75.6551 44.3562 75.5299L44.8297 75.1518L44.7519 75.0799Z" fill="#065393"/>
<path d="M45.3474 74.7743C44.9684 74.3448 44.5996 74.3026 44.4177 73.692C44.7373 73.5397 44.8702 73.9558 45.1764 74.0496C44.6098 74.2324 45.4809 74.2313 45.2958 74.7118C45.4362 74.732 45.5334 74.7075 45.6307 74.6829C45.5757 74.7963 45.547 74.9189 45.5267 75.0593C45.5183 75.0416 45.5183 75.0416 45.5098 75.0238C45.4937 74.9443 45.4768 74.9088 45.476 74.9528C45.476 74.9528 45.4582 74.9612 45.4498 74.9435C45.4244 74.8902 45.399 74.8369 45.3474 74.7743C45.2645 74.9663 45.4151 74.9164 45.4937 74.9443L45.5453 75.0069L44.8933 75.0561C44.9482 74.9427 45.0903 74.875 45.3474 74.7743Z" fill="#065393"/>
<path d="M46.2728 70.867C46.2804 70.9288 46.3151 70.9558 46.332 70.9913C46.2533 70.9635 46.2187 70.9364 46.2728 70.867Z" fill="#065393"/>
<path d="M46.2568 71.29C46.3439 71.3357 46.4903 71.5056 46.563 71.3838C46.5756 71.1817 46.4175 71.1699 46.3329 70.9923C46.4809 71.0743 46.7955 71.1859 46.7093 71.5538L46.6399 71.4997C46.5554 71.7796 46.6731 72.5298 46.7425 72.5839C46.5225 72.1222 46.388 71.7941 46.2568 71.29Z" fill="#065393"/>
<path d="M45.7078 72.9236L45.153 72.9482L45.0929 72.4103L45.2375 72.6682C45.4185 72.4077 45.5615 72.7536 45.7078 72.9236Z" fill="#065393"/>
<path d="M44.4365 75.7946L44.8062 76.2504L44.1219 75.683L44.4365 75.7946Z" fill="#065393"/>
<path d="M43.8866 76.0578L44.1776 76.4857L43.8731 76.3039L43.8866 76.0578Z" fill="#065393"/>
<path d="M18.3446 93.2397L18.3937 93.4342C18.3336 93.3538 18.326 93.2921 18.3446 93.2397Z" fill="#065393"/>
<path d="M16.8701 92.4812L17.1543 92.3458C17.0291 92.449 16.9226 92.4998 16.8701 92.4812Z" fill="#065393"/>
<path d="M30.996 84.0741C31.0917 84.5951 31.2973 85.3469 30.9902 84.8395L30.7449 84.3245C30.9292 84.3456 30.9842 84.2323 30.996 84.0741Z" fill="#065393"/>
<path d="M20.311 86.8096C20.2501 86.7733 20.1977 86.7547 20.1368 86.7183C20.4176 86.7588 20.6806 86.8079 20.9436 86.8569C20.7593 86.8358 20.5309 86.8138 20.311 86.8096Z" fill="#065393"/>
<path d="M17.0986 86.0548C17.0986 86.0548 17.1409 86.1436 17.1747 86.2147C17.217 86.3035 17.2509 86.3745 17.2509 86.3745C17.1553 86.3111 17.1045 86.2045 17.0986 86.0548Z" fill="#065393"/>
<path d="M24.7196 97.3917L24.5852 97.9786C24.3678 97.8425 24.6181 97.6361 24.7196 97.3917Z" fill="#065393"/>
<path d="M38.4086 79.2344C38.3681 79.5152 38.3123 79.6725 38.2227 79.7588C38.2386 79.3807 38.1074 78.8767 38.4086 79.2344Z" fill="#065393"/>
<path d="M24.5961 89.805C24.5157 89.8651 24.3999 89.9421 24.2578 90.0098C24.3119 89.9404 24.4278 89.8634 24.5961 89.805Z" fill="#065393"/>
<path d="M37.7866 80.0329C37.779 79.9712 37.8061 79.9365 37.7985 79.8747C37.9566 79.8866 38.1063 79.8806 38.223 79.7597C38.2087 80.0497 38.1428 80.2773 37.7866 80.0329Z" fill="#065393"/>
<path d="M42.5576 106.521C42.5754 106.513 42.6109 106.496 42.6287 106.487C42.5923 106.548 42.5745 106.557 42.5576 106.521Z" fill="#065393"/>
<path d="M50.4052 104.286C50.3798 104.233 50.2927 104.187 50.2233 104.133C50.2766 104.107 50.346 104.162 50.4052 104.286Z" fill="#065393"/>
<path d="M41.9163 77.5861C42.0313 77.5531 41.9594 77.6309 41.9163 77.5861V77.5861Z" fill="#065393"/>
<path d="M41.2624 75.347C41.2015 75.3107 41.1499 75.2481 41.073 75.1322C41.1499 75.2481 41.21 75.3284 41.2624 75.347Z" fill="#065393"/>
<path d="M41.9388 77.2702C41.9371 77.3582 41.9092 77.4368 41.8906 77.4893C41.8915 77.4453 41.9016 77.3751 41.9388 77.2702Z" fill="#065393"/>
<path d="M42.0506 77.5006C42.0692 77.4481 42.1047 77.4312 42.1317 77.3965C42.1833 77.4591 42.2172 77.5301 42.0506 77.5006Z" fill="#065393"/>
<path d="M41.7306 77.6532C41.8017 77.6194 41.838 77.5585 41.8744 77.4976C41.8735 77.5416 41.8904 77.5771 41.8904 77.5771C41.8811 77.6033 41.8194 77.6109 41.7306 77.6532Z" fill="#065393"/>
<path d="M33.8487 100.082C33.8665 100.073 33.8842 100.065 33.902 100.056C33.9147 100.312 33.8631 100.249 33.8487 100.082Z" fill="#065393"/>
<path d="M24.3622 80.8064C24.8985 81.2917 24.945 81.1606 25.0017 80.9593L25.7394 82.4164L24.3622 80.8064Z" fill="#065393"/>
<path d="M21.6654 95.2301C21.6654 95.2301 21.4625 95.2614 21.2595 95.2928C21.0565 95.3241 20.8273 95.3461 20.8273 95.3461C20.8791 96.3238 21.6082 96.3905 20.6001 96.6529C21.1243 95.9237 20.6464 95.6066 20.1592 95.3158C19.6812 94.9987 19.2118 94.6994 19.9449 94.0887L19.3013 94.1556C19.4062 94.1928 19.3343 94.2706 19.4392 94.3078C18.0099 94.5094 20.1461 93.2302 19.2174 93.0189C18.8224 92.9674 18.3556 92.9937 18.3251 93.2043C18.3251 93.2043 18.3014 93.0631 18.26 92.9303C18.2363 92.7891 18.221 92.6656 18.221 92.6656C18.0112 92.5912 17.7 92.7613 17.9183 92.8534L17.1984 92.303L17.1451 92.3284C17.3599 92.1389 17.6483 91.7836 17.7565 91.6449C17.211 91.6433 17.6043 91.7828 17.2685 91.8556L17.3911 91.4267C16.58 91.5081 16.3441 91.882 16.7899 92.04C15.4037 92.2864 15.4147 92.1722 15.506 91.998C15.5889 91.806 15.7952 91.5988 14.5214 91.4865L14.6907 91.8417C12.9011 92.0188 13.0135 91.6602 11.3888 91.4973C11.7321 91.4862 12.6633 91.5655 13.4736 91.5282C14.2923 91.5086 15.0069 91.4078 15.0813 91.198C14.7387 91.1651 14.4063 91.062 14.7015 90.8124C13.6951 90.9868 13.6375 90.7746 13.3423 90.5666L11.9832 90.7783C11.9535 90.4874 12.7113 90.4314 13.1375 90.2283C12.5785 90.0153 11.3191 90.0705 10.2104 90.0758C9.69525 89.8636 10.3101 89.9193 10.9698 89.9319C11.6295 89.9444 12.307 89.9485 12.0388 89.7059C11.3292 89.5428 11.1126 89.3627 11.1515 89.1698C11.5853 89.0285 12.1334 88.8981 12.7347 88.7424C12.5629 88.5192 11.7045 88.7756 11.3891 88.708L12.968 88.5005C13.0129 88.4573 12.617 88.4498 12.4056 88.4634C13.1566 88.3017 13.9542 88.4665 14.7593 88.2354C15.6304 88.2344 15.2194 88.1034 14.9242 87.8954C14.6197 87.7136 14.4843 87.4295 15.5677 87.3709C15.3148 87.2517 14.6889 87.3102 14.2153 87.2308C15.1337 87.0546 15.4695 86.9818 15.8399 86.9361C16.2103 86.8904 16.607 86.8539 17.5229 86.8097C17.5052 86.8182 17.215 86.3463 17.215 86.3463C17.7352 86.7522 19.2144 86.7012 20.2691 86.7652C20.5651 86.9292 20.8265 87.0662 20.9745 87.1482C20.9745 87.1482 21.2215 87.1177 21.4591 87.1134C21.6883 87.0914 21.926 87.0871 21.926 87.0871C21.7957 86.9966 21.4016 86.9012 20.9017 86.8125C21.0159 86.8234 21.1301 86.8344 21.2265 86.8538C20.993 86.6382 20.3358 86.4937 19.6254 86.3746C19.7641 86.4828 19.9206 86.5826 20.1033 86.6917C19.3311 86.5802 18.471 86.467 17.8324 86.2701C17.9905 86.2819 18.1757 86.259 18.3347 86.2269C18.1241 86.1965 17.9398 86.1753 17.8349 86.1381C17.7478 86.0925 18.0463 86.1246 18.4244 86.1406C18.4244 86.1406 18.1537 86.0298 17.9008 85.9106C17.6479 85.7914 17.4035 85.69 17.4035 85.69L17.9025 85.8227C17.8847 85.8311 18.0673 85.0251 18.085 85.0166C19.818 85.0408 21.639 85.5242 22.6276 85.3583C21.8596 85.0269 21.6286 84.6793 20.9435 84.1559C21.1744 84.5035 20.9359 84.5517 20.5748 84.5713C20.2137 84.5908 19.7121 84.5901 19.5498 84.7981C19.7121 84.5901 19.2757 84.4058 19.0651 84.3754C19.0651 84.3754 19.488 84.3482 19.9024 84.3033C20.3075 84.2846 20.7126 84.2659 20.7126 84.2659C20.1129 83.8762 20.4656 83.8389 20.4807 83.5048C21.3952 84.4637 21.85 83.6804 22.4556 83.7624C22.1807 83.414 21.7899 83.1426 21.4136 83.4962C21.3002 82.9836 21.7544 83.1595 22.1815 83.37C22.6087 83.5805 22.991 83.8341 22.9562 83.3495C22.8497 83.4003 22.848 83.4883 22.6661 83.3352C23.1381 83.5026 23.5101 82.9113 23.1717 82.6585L23.0652 82.7093C23.1548 82.623 23.2174 82.5714 23.28 82.5198C23.3426 82.4682 23.4229 82.4081 23.5117 82.3658C23.6808 82.2634 23.8846 82.1881 24.0876 82.1568C24.4935 82.0941 24.9317 82.1905 25.2667 82.6192C25.1897 82.5033 24.4867 81.5309 24.3403 81.3609L27.1944 83.9669C26.6191 83.2169 25.7002 81.1052 25.0177 80.9074C25.0565 80.7146 25.1309 80.5048 25.5597 80.6274C25.5479 80.7855 26.0894 81.9221 26.2476 81.9339C25.9869 80.8379 26.1536 81.325 26.0494 80.3287C26.0359 80.5748 26.9724 81.763 27.1339 81.5988C26.9875 81.4289 26.3572 80.3346 26.2092 80.2526L27.467 81.2004C27.2057 81.0635 26.7826 80.1755 26.6675 79.7509C26.7766 80.0258 27.0599 79.4768 27.2705 79.5072L27.2536 79.9293C27.6595 79.4091 28.8634 81.3414 29.3725 80.9463C29.139 80.7307 28.2304 79.4639 28.3859 79.1501C28.9121 79.7057 30.851 81.8543 31.6215 82.0538L31.4887 81.6377L32.101 81.8253C31.2805 81.0178 29.3933 79.3893 28.5593 78.8279C28.5846 78.4236 28.3393 78.3661 28.6589 78.2138C28.5523 77.807 28.1742 77.791 28.0677 77.8418L28.6257 77.1837C29.0598 77.9575 29.6297 77.5988 29.9961 78.2305L28.7612 77.9254C29.1868 78.6814 30.5301 79.7629 30.9258 79.3128C30.8538 78.9331 29.9994 78.0545 29.8547 77.7966C30.0882 78.0122 30.6253 77.9961 30.5677 77.7838L30.1152 77.52C30.2115 77.0819 31.1928 78.2268 31.0607 77.3092C31.1512 77.179 30.8101 76.143 31.1012 76.5709C31.4523 77.5367 33.0564 80.1717 33.5826 80.7273C33.5842 80.6393 33.6754 79.55 33.5442 79.0459C33.3216 78.2586 32.2685 77.649 32.0789 76.9766C32.216 77.1728 32.4765 77.3538 32.5721 77.4172C32.5856 77.1711 32.1347 76.8193 32.4442 76.7372C32.9671 77.4687 32.9271 76.3328 32.9704 77.2928C33.3654 77.3443 33.1437 76.9705 33.4634 76.8182C33.6817 77.3679 34.7636 78.3124 35.1586 78.3639C35.03 78.1855 34.9124 77.8929 34.8794 77.7778C35.3622 77.3735 35.4247 76.8643 35.9059 76.5479C35.8306 76.3441 35.9345 75.9677 35.6401 75.7157C35.7882 75.7978 36.0216 76.0134 36.1815 75.9372C36.0654 75.0991 35.7747 76.0439 35.5106 75.1238C35.8016 75.5517 36.2778 75.4991 36.6626 75.6208C37.0273 76.3405 36.2584 76.0531 35.8736 75.9314C36.4455 76.8574 37.4344 77.6065 38.2243 77.7095C38.7791 77.6849 38.0178 77.0017 38.1658 77.0837C38.8203 76.445 39.8322 78.2945 40.046 77.2338C39.9283 76.4837 39.3116 76.0584 39.1094 75.5882C38.6434 75.5705 38.8499 76.2784 38.6013 76.3968L38.6891 75.941C38.454 75.8133 38.1461 75.8075 38.1326 76.0536C38.0133 75.3914 39.3554 75.1441 39.6267 74.2958C39.8619 74.4234 40.1681 74.5173 40.224 74.8175L39.977 74.848C40.1065 75.44 40.734 75.2936 40.6478 75.6615C41.102 75.8373 41.7111 76.2008 41.8877 75.7026L41.5231 74.983C41.6424 75.1877 41.5477 75.5378 41.3218 75.3839C41.661 75.5928 41.2928 74.1339 41.9907 74.9127L42.0492 75.5386C42.5119 75.7321 43.2588 76.2479 43.4515 75.8292C43.7274 76.5912 43.3289 75.8005 43.593 76.7206C43.1826 75.6305 42.826 77.2604 42.4883 76.0485C42.8378 77.1022 42.3353 76.6879 42.5283 77.6418C42.4006 77.4194 42.3616 77.1547 42.1807 77.4153C42.1291 77.3527 42.0513 77.2808 41.9988 77.2622C41.9811 77.2707 41.9895 77.2884 41.9895 77.2884L41.9904 77.2445C41.9557 77.2174 41.9557 77.2174 41.9819 77.2267C41.9844 77.0947 41.9522 76.9358 41.893 76.8115C41.4438 76.3718 41.0337 76.6543 40.7292 76.4725C40.6463 76.6645 40.9627 76.6882 41.0185 76.9884L40.566 76.7246C40.8554 77.2405 40.6686 77.8088 41.2217 77.8722L40.9181 78.1039C40.8928 78.5082 40.6941 78.7772 40.4057 78.6749C40.3229 78.8669 39.6724 78.3706 40.0539 78.6682L39.3409 78.6811L39.4263 78.8147C38.9528 79.1928 37.8634 78.6442 37.8568 79.9111C37.6023 79.8799 37.3299 79.8571 37.1304 80.1701L37.3504 80.6318C37.0425 80.6259 36.9649 81.4692 36.5851 81.0836C37.0708 82.3775 35.6879 81.9904 35.4241 82.4429L35.0561 81.8992C34.8058 82.1056 34.454 82.0989 33.988 82.0812L33.6986 81.5654C33.1573 81.3439 33.1905 82.374 32.711 82.6025C32.8573 82.7724 32.9478 82.6422 32.9418 82.4925C33.1079 83.9387 31.2985 82.382 31.33 83.5001C31.1034 83.3902 31.0484 83.5035 31.0451 83.6794C31.0628 83.671 31.0628 83.671 31.089 83.6803C31.0713 83.6887 31.062 83.715 31.0442 83.7234C31.051 83.8292 31.057 83.9789 31.046 84.093C31.0223 83.9518 30.9986 83.8106 31.0265 83.7319C30.9199 83.7827 30.7524 83.7971 30.5241 83.7751L30.7949 84.3434C30.7771 84.3519 30.7771 84.3519 30.7509 84.3426C30.7365 84.6327 30.4903 84.1616 30.2966 83.7092C30.1655 83.6627 30.0437 83.59 29.9134 83.4995C30.3356 84.4315 29.3603 83.4362 29.7986 84.4476C29.4188 84.0621 28.8903 84.5535 28.2211 83.6521C28.2981 83.768 28.2964 83.8559 28.3674 83.8221C28.2846 84.0141 28.1924 84.2323 27.8879 84.0505L28.2526 84.7702L27.3509 84.0667C27.411 84.6046 27.4669 84.9048 28.0049 85.3022C27.011 84.817 27.4162 85.2558 26.5112 84.7282L26.8022 85.1561C26.6424 85.2323 26.0435 84.7985 26.1764 85.2146C26.2153 85.4793 26.1587 85.6806 26.0056 85.8625C25.9338 85.9403 25.8441 86.0266 25.7367 86.1213C25.6387 86.1899 25.5583 86.2499 25.4602 86.3185C25.2015 86.5071 24.8717 86.7296 25.057 87.1643C24.4598 86.6426 24.5537 86.794 24.6561 86.9631C24.7669 87.15 24.9395 87.3292 24.3829 86.9843C24.6866 87.21 24.8244 87.3623 25.1822 87.5186C24.9192 87.4696 24.9784 87.594 24.9945 87.6735C25.0021 87.7352 24.9488 87.7606 24.3103 87.5637C24.7027 87.7471 24.9395 87.7868 25.1662 87.8967C25.0613 87.8595 24.7636 87.7835 24.9903 87.8934C25.217 88.0033 25.3574 88.0235 25.5587 88.0801C25.3997 88.1123 24.0176 87.6813 22.7058 87.2603C23.1575 87.5681 23.0433 87.5571 22.0081 87.3966C22.3921 87.5623 22.8116 87.7111 23.1296 87.6468C23.0839 87.7339 23.3318 88.117 22.042 87.9252C22.3313 87.9835 22.0048 88.0301 21.8289 88.0268C21.6674 88.1909 21.7816 88.2019 21.4272 88.3271L21.2699 88.2713C19.4583 88.2192 20.6694 88.3831 20.2627 88.4897L20.4563 88.4846C20.8843 88.6511 20.6907 88.6562 20.5139 88.6969C20.3287 88.7197 20.1519 88.7604 20.7482 88.8685L19.5422 88.8983C19.181 88.9179 18.9434 88.9221 18.7844 88.9543C18.3877 88.9908 19.055 89.0651 19.7054 89.1038C20.3558 89.1426 20.98 89.1721 20.6967 89.2635L19.9575 89.267C19.6218 89.3398 20.5808 89.3405 21.6025 89.2895C22.554 89.2284 23.5232 89.1589 23.9105 89.1487C24.122 89.1351 24.193 89.1013 24.3258 89.0598C25.8236 88.9563 22.976 89.2453 22.8585 89.4102C23.5909 89.301 24.6243 89.0919 24.8527 89.1138C25.1436 89.0841 24.6396 89.2153 24.2937 89.3583C23.9478 89.5013 23.7508 89.6824 24.4045 89.5452C23.9182 89.668 23.4057 89.7814 23.174 89.9354C23.1817 89.9971 23.7196 89.9369 24.0638 89.8819C24.408 89.8269 24.5577 89.8209 24.041 90.1543C24.1738 90.1128 24.2626 90.0705 24.3691 90.0197C24.1628 90.227 24.255 90.4663 23.8069 90.8977C24.9011 90.2674 24.7912 90.4941 24.7676 90.8104C24.7355 91.109 24.7288 91.4608 25.4036 90.6817L25.6887 90.9599L25.78 90.7857C25.9119 90.7882 25.9365 90.8854 26.0025 91.1155C26.0338 91.3185 26.0026 91.573 25.9629 91.8098C26.1312 91.7515 26.1438 91.5493 26.181 91.4444C27.0081 91.4426 27.0327 91.5398 27.0896 92.7112L27.443 92.1724C27.4 92.5851 28.8494 91.7856 29.1033 92.7759C29.1312 92.6973 29.1684 92.5924 29.1794 92.4782C29.5204 93.5142 31.7089 91.796 30.8484 94.0146L31.0363 94.7749C30.3529 94.6211 30.6398 95.7264 30.2136 95.9295C30.376 96.179 31.1608 95.6308 30.9281 95.3712L30.8301 95.4397C31.3178 94.3139 31.7798 95.4666 32.1637 94.7172C33.303 95.4164 34.7721 95.4355 35.9055 95.985L35.3187 96.7658L35.7205 96.923C35.9167 96.7859 36.2067 96.3427 35.9098 96.2227C36.3131 95.8344 36.1527 96.8696 36.0698 97.0616C36.7836 97.0048 36.3986 95.968 36.5644 96.0415L36.7632 96.2301L36.6651 96.2987C36.6567 96.7385 36.4826 97.1047 36.8319 97.2433C37.1321 97.1874 37.2192 96.7756 37.3156 96.795C37.3519 96.7341 37.3874 96.7172 37.4467 96.8415L37.9711 97.0274L37.424 97.5714C37.4596 98.012 37.8951 97.7827 37.2584 98.4129C38.2096 97.4367 39.2891 98.9707 39.6722 98.7228C39.7129 99.3571 40.009 99.5211 40.4023 99.6606C40.2247 99.7452 39.78 100.458 40.1479 100.544C40.8648 98.9391 41.0875 100.184 41.9415 99.2324C41.3141 99.8364 42.7383 99.8987 41.8158 100.752C42.1498 100.767 42.1345 100.186 42.5353 99.93C42.8518 100.869 44.1297 100.303 44.7954 100.923C44.7033 101.142 44.3997 101.373 44.4099 101.761L45.3663 100.978C45.4771 101.165 44.8675 102.218 45.5466 101.677C45.4206 101.824 45.2227 102.049 45.2819 102.173C47.3439 102.019 47.9533 104.67 50.498 103.654C50.0794 103.919 50.2004 104.035 50.3391 104.144C50.1801 104.176 50.0745 104.64 49.8936 104.901L50.9397 104.489C50.6514 105.302 51.6003 104.916 51.2867 105.675L51.1504 105.435C50.9553 106.443 49.7367 107.133 49.1787 108.248C49.4026 107.118 47.5847 109.247 47.8448 107.598C47.6131 107.752 47.7493 107.992 47.5515 108.217C47.685 107.674 47.5826 107.505 47.1682 107.55L47.1395 107.673C46.4019 107.131 45.8158 107.41 44.7459 107.222L45.1162 106.719C44.8794 106.679 44.7534 106.827 44.5843 106.929C44.8133 105.992 45.1603 107.178 45.435 106.153C44.5894 107.123 44.0673 105.432 43.209 106.604C42.9215 106.457 43.6335 106.031 43.3375 105.867L43.0855 106.161L43.2529 105.689C43.016 105.65 42.6922 106.022 42.5282 106.318C42.5899 106.31 42.6221 106.469 42.6475 106.523C42.1849 106.787 42.0063 106 41.8549 106.094L42.2608 106.031C41.6154 105.271 40.3941 105.177 39.9752 104.07L40.1731 103.845C39.8363 103.046 39.5481 103.859 38.9957 103.294L38.9856 103.364C38.983 103.039 38.8992 102.817 38.6894 102.743C38.6996 103.13 38.0569 103.153 38.1009 103.612C37.7303 102.742 37.9976 103.029 38.0904 101.852L37.7666 102.224C37.8282 101.759 37.9289 101.558 37.6615 101.271C37.731 101.783 37.106 101.798 37.1374 102.458C35.9475 103.025 36.6204 100.961 35.5769 102.156C35.893 100.807 36.5249 101.813 36.4784 101.487C36.8361 101.185 36.6913 100.47 36.4097 100.473C36.1737 100.39 35.2233 101.779 34.6752 101.452C34.7361 101.489 34.6905 101.576 34.7429 101.594C34.3784 101.79 34.5525 100.966 34.0442 101.317C34.2792 100.53 33.6949 101.178 34.1438 100.245L34.5304 100.737C34.3705 100.355 34.6841 99.1382 33.9314 99.3879C33.8748 99.5892 33.8774 99.9148 33.9002 100.1C33.6237 100.297 33.7302 99.7888 33.4452 99.9682C32.9963 100.901 33.9629 100.506 33.8853 101.349C33.5276 101.65 33.6576 100.368 33.2763 101.443C33.7336 100.07 32.6454 101.308 32.7906 100.149L32.5159 100.716C32.5006 100.593 32.5242 100.276 32.3931 100.23L32.2106 101.036C32.2426 100.28 31.353 101.248 31.2303 100.762C31.8309 101.108 31.7165 100.182 32.1875 99.9354C31.822 98.8022 30.986 101.118 30.2779 100.409C30.3456 100.552 30.8868 100.315 30.8496 99.9628C30.6204 99.9848 30.2931 100.075 30.0597 100.317C29.5572 99.903 30.4478 99.8056 30.4037 99.3472C29.8473 99.9173 30.2709 98.9311 30.1456 98.5767L29.8447 99.1341C29.026 99.1538 30.2994 97.8933 29.5053 98.0102L29.3211 98.9042L29.1256 98.5397L28.8492 99.1944C28.7823 98.5508 28.614 98.6092 28.2089 98.6278C28.4972 98.2726 28.7034 97.6078 28.4429 97.4268C28.0691 97.6485 28.2646 98.013 27.9008 97.7069C27.8053 98.101 27.6642 98.5823 28.1208 98.1686C28.038 98.3606 28.0253 98.5628 27.9425 98.7548C27.5239 99.0196 27.3741 98.568 27.2438 98.4775C27.314 98.4876 27.402 98.4893 27.4645 98.4377L27.3003 97.3611C27.0948 97.5244 27.0821 97.7265 27.0695 97.9287C26.984 97.795 27.0423 97.5058 26.8867 97.362C26.6753 97.8332 26.42 98.3034 26.5546 98.6316L26.288 97.8434C26.1527 98.0168 25.7087 98.2283 25.6961 98.4304C25.2453 98.5363 25.421 97.167 24.829 97.2965C24.8484 97.2001 24.8594 97.0859 24.8086 96.9793C24.3705 96.883 23.7388 97.2493 23.632 96.385L22.9505 97.0583C22.7026 96.6753 23.846 96.2395 23.4179 95.6154C23.247 95.3482 23.0424 95.4675 22.9147 95.7026C22.7608 95.9284 22.6492 96.2431 22.4463 96.2744C22.3904 95.9742 22.3455 95.5598 22.2016 95.2579C22.0578 94.956 21.815 94.7666 21.2586 94.8792C21.2721 95.0906 21.5275 95.0779 21.6654 95.2301ZM15.1337 91.2166C15.0526 91.3206 14.7388 91.6226 15.374 91.5379C16.2687 91.2206 15.6691 91.2884 15.1337 91.2166ZM19.5204 85.8799C19.1956 85.8385 19.1931 85.9704 19.3572 86.1319C19.5162 86.0998 19.5881 86.0219 19.5204 85.8799ZM40.4115 77.9095C40.403 77.8918 40.403 77.8918 40.3853 77.9002C40.3439 78.225 40.3464 78.0931 40.4115 77.9095ZM40.649 77.4477C40.7361 77.4933 40.7785 77.5821 40.8123 77.6532C40.7091 77.528 40.6203 77.5703 40.5391 77.6744C40.4714 77.5323 40.4562 77.4088 40.649 77.4477ZM37.0999 97.0285L36.9486 97.1224C37.023 97.3701 37.0611 97.2213 37.0999 97.0285Z" fill="#065393"/>
<path d="M17.4857 86.1319C17.5991 86.1868 17.7302 86.2333 17.8875 86.2891C17.7116 86.2858 17.5365 86.2384 17.4857 86.1319Z" fill="#065393"/>
<path d="M24.7598 97.2867C24.759 97.3307 24.7497 97.3569 24.7227 97.3916L24.7598 97.2867Z" fill="#065393"/>
<path d="M32.0058 76.599C31.9771 76.7216 31.9924 76.8451 32.0254 76.9601C31.9399 76.8265 31.9069 76.7115 32.0058 76.599Z" fill="#065393"/>
<path d="M43.2078 77.1016L42.8822 77.1042C43.0149 77.0627 42.9912 76.9215 42.9937 76.7896C43.0614 76.9316 43.119 77.1439 43.2078 77.1016Z" fill="#065393"/>
<path d="M43.2139 72.5001C43.3011 72.5458 43.285 72.4663 43.3721 72.5119L43.5168 72.7699C43.357 72.846 43.1311 72.6921 43.2139 72.5001Z" fill="#065393"/>
<path d="M42.3217 75.1926C42.0577 74.7301 42.303 74.7875 42.5322 74.7655C42.5145 74.7739 42.5144 74.774 42.4967 74.7824C42.9341 75.3803 42.6279 75.2864 42.3217 75.1926Z" fill="#065393"/>
<path d="M42.5741 74.7654C42.6358 74.7577 42.6891 74.7323 42.7339 74.6892C42.9056 74.9124 42.706 74.7679 42.5741 74.7654Z" fill="#065393"/>
<path d="M41.3027 77.443C41.3061 77.2671 41.7147 77.9876 41.6394 77.7838C42.0962 78.2853 40.687 77.4313 41.3027 77.443Z" fill="#065393"/>
<path d="M41.5323 73.6276L41.82 74.2315L41.4402 73.8459L41.5323 73.6276Z" fill="#065393"/>
<path d="M40.4505 74.8842L40.6238 74.562C40.6746 74.6685 40.7533 74.6964 40.8235 74.7066C40.6628 74.8267 40.5529 75.0534 40.4505 74.8842Z" fill="#065393"/>
<path d="M40.8138 74.6887C40.8941 74.6286 40.983 74.5864 41.0785 74.6498C41.0253 74.6752 40.9187 74.7259 40.8138 74.6887Z" fill="#065393"/>
<path d="M41.0444 73.708L41.0503 73.8577L40.8711 74.0303L41.0444 73.708Z" fill="#065393"/>
<path d="M37.6209 76.8004L37.2243 76.8369C37.0779 76.6669 37.0813 76.491 37.2394 76.5028C37.4052 76.5764 37.5634 76.5882 37.6209 76.8004Z" fill="#065393"/>
<path d="M37.567 74.732C37.5552 74.8901 37.6406 75.0237 37.6982 75.236L37.2625 74.5502L37.567 74.732Z" fill="#065393"/>
<path d="M36.6119 75.102C36.4656 74.932 35.8516 74.8323 36.2423 74.6462C36.3886 74.8162 36.7853 74.7797 36.6119 75.102Z" fill="#065393"/>
<path d="M32.73 78.7584L32.801 78.7245L33.4922 79.8552L32.73 78.7584Z" fill="#065393"/>
<path d="M27.1462 78.5204C27.3228 78.0222 27.6707 79.1639 27.7602 78.62C28.0114 78.8272 27.6817 79.0497 27.8982 79.2298C27.5049 79.0903 27.5007 79.3102 27.1462 78.5204Z" fill="#065393"/>
<path d="M27.9004 79.2298C27.9613 79.2662 28.04 79.2941 28.1186 79.322C28.0045 79.311 27.9436 79.2746 27.9004 79.2298Z" fill="#065393"/>
<path d="M51.5886 104.116L51.9692 104L51.5938 104.31L51.5886 104.116Z" fill="#065393"/>
<path d="M51.5742 105.233L52.0367 104.512L51.8026 105.255C51.7772 105.202 51.7002 105.086 51.5742 105.233Z" fill="#065393"/>
<path d="M11.338 91.1084L11.6382 91.0525C12.0611 91.0254 12.1922 91.0719 12.4366 91.1733L11.338 91.1084Z" fill="#065393"/>
<path d="M17.9773 93.9808L17.8724 93.9436L18.812 93.5831L17.9773 93.9808Z" fill="#065393"/>
<path d="M22.2142 97.3877C21.9782 97.3041 21.8166 97.0106 21.6069 96.9362C22.0044 97.3134 22.7308 96.5969 22.2142 97.3877Z" fill="#065393"/>
</svg>
