<svg width="111" height="110" viewBox="0 0 111 110" fill="none" xmlns="http://www.w3.org/2000/svg">
<rect width="111" height="110" fill="white"/>
<path d="M38 74.9995L38.0997 50.9024C38.0997 49.6805 38.6781 48.5188 39.6355 47.7576L53.5967 36.8408C55.0327 35.7191 57.0471 35.7191 58.503 36.8408L72.4643 47.7376C73.4416 48.4988 74 49.6605 74 50.9024V74.9995" stroke="#065393" stroke-width="2" stroke-miterlimit="10" stroke-linejoin="round"/>
<path d="M58.4 62.1772H53.6C51.608 62.1772 50 63.6512 50 65.4772V73.1772H62V65.4772C62 63.6512 60.392 62.1772 58.4 62.1772Z" stroke="#065393" stroke-width="3" stroke-miterlimit="10" stroke-linejoin="round"/>
<path d="M51 58.1772H47C45.9 58.1772 45 57.2772 45 56.1772V53.1772C45 52.0772 45.9 51.1772 47 51.1772H51C52.1 51.1772 53 52.0772 53 53.1772V56.1772C53 57.2772 52.1 58.1772 51 58.1772Z" stroke="#065393" stroke-width="2" stroke-miterlimit="10" stroke-linejoin="round"/>
<path d="M65 57.9995H61C59.9 57.9995 59 57.0995 59 55.9995V52.9995C59 51.8995 59.9 50.9995 61 50.9995H65C66.1 50.9995 67 51.8995 67 52.9995V55.9995C67 57.0995 66.1 57.9995 65 57.9995Z" stroke="#065393" stroke-width="2" stroke-miterlimit="10" stroke-linejoin="round"/>
<path d="M70 45.1772L69.9391 39.1772H61" stroke="#065393" stroke-width="2" stroke-miterlimit="10" stroke-linecap="round" stroke-linejoin="round"/>
</svg>
