<svg width="111" height="110" viewBox="0 0 111 110" fill="none" xmlns="http://www.w3.org/2000/svg">
<rect width="111" height="110" fill="#DAEEFA"/>
<path d="M53.6318 35.1172C50.8115 35.5547 48.6475 37.0156 47.6006 39.1797C47.1787 40.0625 46.96 40.9062 46.8975 41.9219C46.835 42.9922 47.0225 44.4062 47.3896 45.5625C47.4209 45.6797 47.3818 45.7031 47.1318 45.7031C46.71 45.7109 46.2256 45.9531 45.9678 46.2969C45.749 46.5781 45.7412 46.6172 45.7178 47.6641C45.6943 48.625 45.71 48.7656 45.8506 49.0547C46.0928 49.5234 46.5146 49.7734 47.1865 49.8281L47.7412 49.8828L47.9209 50.3906C48.3506 51.6328 49.124 52.7656 50.1631 53.6562C50.9521 54.3359 51.0459 54.5469 50.9912 55.5469C50.9443 56.2734 50.7646 56.8906 50.3896 57.5312L50.1553 57.9453L49.085 58C42.4365 58.3438 39.3193 60.8438 38.2881 66.6719C37.9053 68.8359 37.6709 72.9766 37.8975 73.7734C37.999 74.1562 38.4678 74.6719 38.8662 74.8516C39.1631 74.9922 39.8584 75 54.999 75C70.1396 75 70.835 74.9922 71.1318 74.8516C71.5303 74.6719 71.999 74.1562 72.1006 73.7734C72.2646 73.1875 72.1475 69.1406 71.9053 67.2656C71.1006 60.8906 68.1006 58.3516 60.9521 58L59.835 57.9453L59.6006 57.5469C59.0459 56.5781 58.8428 55.3438 59.1084 54.4609C59.2021 54.125 59.3271 53.9609 59.8193 53.4922C60.749 52.6094 61.4053 51.5781 61.7959 50.375L61.9678 49.8672L62.46 49.8203C63.0693 49.7734 63.4443 49.5625 63.71 49.1094C63.8896 48.7969 63.9053 48.7031 63.9053 47.7812C63.9053 46.6562 63.7959 46.3047 63.335 46L63.0771 45.8359L63.2646 45.0469C63.4365 44.3594 63.46 44.0703 63.46 42.7734C63.4678 41.4766 63.4443 41.2109 63.2959 40.6641C62.4678 37.6562 60.0225 35.625 56.624 35.125C55.6553 34.9766 54.5068 34.9766 53.6318 35.1172ZM57.3662 36.3516C59.8428 37 61.6475 38.6875 62.2334 40.8984C62.4678 41.7578 62.4443 43.8359 62.1943 44.8984C62.0928 45.3438 61.9834 45.7031 61.9521 45.7031C61.9209 45.7031 61.835 45.3047 61.7568 44.8203C61.6006 43.7656 61.4521 43.4141 61.0303 43.0312C60.5146 42.5625 60.335 42.5391 58.2021 42.6562C55.3975 42.8047 54.1006 42.6797 52.374 42.0938C51.585 41.8281 51.3818 41.7812 51.0771 41.8281C50.5693 41.9062 50.1709 42.2031 49.6006 42.9297C49.3271 43.2734 48.9131 43.7969 48.6787 44.1016L48.2412 44.6484L48.1396 44.2188C47.96 43.4609 47.9287 41.8438 48.0771 41.0938C48.4443 39.2812 49.5303 37.8828 51.2334 37.0078C52.6396 36.2891 53.5928 36.0859 55.3506 36.125C56.3818 36.1484 56.7334 36.1875 57.3662 36.3516ZM52.1475 43.1562C53.8506 43.7422 55.2256 43.8828 57.9756 43.7422C59.0381 43.6953 59.999 43.6719 60.1084 43.7031C60.2178 43.7266 60.3662 43.8359 60.4365 43.9375C60.5928 44.1797 61.0928 47.4062 61.0928 48.1797C61.0928 50.2188 59.8584 52.4219 58.1084 53.4844C57.0146 54.1484 55.5537 54.4688 54.3193 54.3125C52.749 54.1172 51.5537 53.5312 50.4287 52.3906C49.874 51.8359 49.6475 51.5312 49.3584 50.9766C48.7256 49.7422 48.6475 49.4141 48.6084 47.5781L48.5771 45.9766L49.6475 44.6094C50.7881 43.1484 51.0303 42.8906 51.2334 42.8906C51.3037 42.8906 51.71 43.0078 52.1475 43.1562ZM47.499 47.7734V48.75H47.2334C46.8271 48.75 46.7178 48.5391 46.7178 47.7734C46.7178 47.0078 46.8271 46.7969 47.2334 46.7969H47.499V47.7734ZM62.7178 46.8906C62.7803 46.9531 62.8115 47.2656 62.8115 47.7734C62.8115 48.6328 62.7646 48.75 62.4053 48.75H62.1865L62.1787 48.1406C62.1787 47.8125 62.1475 47.375 62.1162 47.1641L62.0537 46.7969H62.3428C62.499 46.7969 62.6631 46.8359 62.7178 46.8906ZM52.9756 55.1562C54.5537 55.5938 56.2959 55.4922 57.7568 54.8828C57.874 54.8359 57.8896 54.8828 57.8896 55.3672C57.8896 56.2734 58.2412 57.375 58.8662 58.4375L59.0771 58.7891L57.0615 63.8438C55.96 66.6328 55.0303 68.9062 54.999 68.9062C54.9678 68.9062 54.0381 66.6328 52.9365 63.8438L50.9209 58.7891L51.1318 58.4375C51.7568 57.375 52.1084 56.2734 52.1084 55.375C52.1084 54.875 52.1162 54.8438 52.2568 54.9141C52.335 54.9609 52.6553 55.0625 52.9756 55.1562ZM52.1475 64.7812C53.3975 67.8984 54.4834 70.5312 54.5615 70.6172C54.7646 70.8359 55.2334 70.8359 55.4365 70.6172C55.5146 70.5312 56.6084 67.8984 57.8584 64.7812L60.124 59.1016L61.1396 59.1172C63.3975 59.1641 65.6162 59.6562 67.0068 60.4375C68.7803 61.4297 69.8818 63.0078 70.4678 65.3906C70.8584 67.0156 71.0928 69.5078 71.0928 72.2109C71.0928 73.5 71.0928 73.5234 70.8975 73.7109L70.71 73.9062H54.999H39.2881L39.1006 73.7109C38.9131 73.5312 38.9053 73.4922 38.9053 72.3672C38.9053 69.9688 39.1631 67.3906 39.5693 65.7266C40.5693 61.6094 43.1084 59.625 48.0068 59.1484C48.3975 59.1094 48.9756 59.0859 49.2959 59.0938L49.874 59.1016L52.1475 64.7812Z" fill="#065393"/>
<path d="M45.5075 61.5554C43.9528 62.0944 42.8434 62.9616 42.1013 64.2272C41.7341 64.8679 41.7184 65.1726 42.0466 65.4147C42.3591 65.6491 42.6325 65.5007 42.945 64.9382C43.6013 63.7429 44.6325 62.9382 46.07 62.5007C46.3825 62.4069 46.6716 62.2819 46.7184 62.2272C46.8747 62.0397 46.8356 61.6257 46.6403 61.4694C46.4138 61.2819 46.2497 61.2976 45.5075 61.5554Z" fill="#065393"/>
<path d="M62.3049 62.6951C62.1174 62.8748 62.1096 62.9295 62.1096 63.8279V64.7654H61.1721C60.2736 64.7654 60.219 64.7732 60.0393 64.9607C59.844 65.1482 59.844 65.1717 59.844 66.4685C59.844 68.2264 59.7971 68.156 61.1174 68.1873L62.094 68.2185L62.1252 69.1951C62.1565 70.5154 62.0861 70.4685 63.844 70.4685C65.1408 70.4685 65.1643 70.4685 65.3518 70.2732C65.5393 70.0935 65.5471 70.0389 65.5471 69.1482V68.2185L66.5315 68.1873C67.8674 68.156 67.8127 68.2264 67.8127 66.4451V65.0857L67.6096 64.9295C67.4221 64.781 67.2971 64.7654 66.4768 64.7654H65.5471V63.8357C65.5471 63.0154 65.5315 62.8904 65.383 62.7029L65.2268 62.4998H63.8596C62.5158 62.4998 62.4924 62.4998 62.3049 62.6951ZM64.4533 64.4607C64.4533 65.3982 64.4533 65.406 64.6799 65.6326C64.9065 65.8592 64.9143 65.8592 65.8518 65.8592H66.7971V66.4842V67.1092H65.8674C65.3518 67.1092 64.8752 67.1326 64.8049 67.156C64.5471 67.2576 64.4533 67.617 64.4533 68.5154V69.3748H63.8283H63.2033V68.4373C63.2033 67.5389 63.1955 67.4842 63.008 67.3045C62.8283 67.117 62.7736 67.1092 61.8752 67.1092H60.9377V66.4842V65.8592H61.7971C62.6955 65.8592 63.0549 65.7654 63.1565 65.5076C63.1799 65.4373 63.2033 64.9607 63.2033 64.4451V63.5154H63.8283H64.4533V64.4607Z" fill="#065393"/>
<path d="M41.3751 66.4297C41.1954 66.6094 41.0704 67.1016 40.9688 68.0157C40.9219 68.4375 40.9376 68.5157 41.086 68.6641C41.3907 68.9688 41.9063 68.8282 41.9844 68.4141C42.3047 66.8594 42.2969 66.5157 41.9532 66.3282C41.7266 66.211 41.5704 66.2344 41.3751 66.4297Z" fill="#065393"/>
</svg>
