<svg width="111" height="111" viewBox="0 0 111 111" fill="none" xmlns="http://www.w3.org/2000/svg">
<rect y="0.177734" width="111" height="110" fill="white"/>
<g clip-path="url(#clip0_1425_20712)">
<path d="M42.84 35.1772L36 42.0972L67.48 73.4289L76 75.1772L74.3983 66.5056L42.84 35.1772ZM69.4167 71.0139C69.1383 71.2906 68.69 71.2906 68.4133 71.0139L39.6433 42.4739C39.365 42.1956 39.365 41.7489 39.6417 41.4689C39.9183 41.1922 40.37 41.1922 40.6467 41.4689L69.4167 70.0122C69.695 70.2872 69.6933 70.7372 69.4167 71.0139ZM71.99 67.4606C72.2667 67.7372 72.2667 68.1889 71.99 68.4656C71.7133 68.7406 71.2633 68.7422 70.9867 68.4656L42.215 39.9222C41.94 39.6472 41.94 39.1972 42.215 38.9206C42.4933 38.6439 42.9417 38.6439 43.2167 38.9189L71.99 67.4606ZM67.2317 44.0156C66.9067 43.6906 66.9067 43.1622 67.2317 42.8372C67.5567 42.5122 68.085 42.5122 68.41 42.8372C68.735 43.1622 68.735 43.6906 68.41 44.0156C68.085 44.3406 67.5583 44.3422 67.2317 44.0156ZM54.3417 65.0839L44.25 75.1772L36 66.9972L46.0983 56.8989L48.4633 59.2489L47.785 59.9272L48.9633 61.1056L47.785 62.2839L46.6067 61.1056L45.4283 62.2839L46.6067 63.4622L45.4283 64.6406L44.25 63.4622L43.0717 64.6406L44.25 65.8189L43.0717 66.9972L41.8933 65.8189L40.715 66.9989L44.25 70.5339L52.0117 62.7722L54.3417 65.0839ZM57.7333 45.2639L67.82 35.1772L76 43.4272L65.9783 53.4506L63.6483 51.1372L71.3567 43.4289L67.8217 39.8939L64.2867 43.4272L65.465 44.6056L64.285 45.7856L63.1067 44.6072L61.9283 45.7856L63.1067 46.9639L61.9283 48.1422L60.75 46.9622L60.1 47.6122L57.7333 45.2639Z" fill="#065393"/>
</g>
<defs>
<clipPath id="clip0_1425_20712">
<rect width="40" height="40" fill="white" transform="translate(36 35.1772)"/>
</clipPath>
</defs>
</svg>
