<svg width="111" height="110" viewBox="0 0 111 110" fill="none" xmlns="http://www.w3.org/2000/svg">
<rect width="111" height="110" fill="#DAEEFA"/>
<g clip-path="url(#clip0_1426_20721)">
<path d="M54.7115 35.0469C54.6099 35.0938 35.6412 49.8906 35.2974 50.1953C35.0474 50.4219 34.9615 50.6875 35.0396 50.9922C35.0943 51.2344 37.8677 54.0781 38.2193 54.2656C38.4927 54.4062 38.7037 54.4062 38.9849 54.2578L39.2193 54.1328V63.7891V73.4375H37.4224C36.0162 73.4375 35.5709 73.4609 35.399 73.5469C34.8834 73.8203 34.8834 74.6172 35.399 74.8906C35.7271 75.0547 74.274 75.0547 74.6021 74.8906C75.1177 74.6172 75.1177 73.8203 74.6021 73.5469C74.4302 73.4609 73.9849 73.4375 72.5787 73.4375H70.7818V69.7266C70.7818 65.75 70.774 65.7109 70.3834 65.5C70.1099 65.3594 69.8912 65.3594 69.6177 65.5C69.2271 65.7109 69.2193 65.75 69.2193 69.7266V73.4375H56.8756H44.5318V69.6875C44.5318 65.6719 44.5318 65.6328 44.1334 65.4219C43.8599 65.2812 43.6412 65.2812 43.3677 65.4219C42.9693 65.6328 42.9693 65.6719 42.9693 69.6875V73.4375H41.8756H40.7818L40.7974 63.1484L40.8209 52.8672L47.9146 47.3281L55.0006 41.7891L62.0943 47.3281L69.1802 52.8594L69.2193 56.7188C69.2427 58.8438 69.2896 60.6484 69.3287 60.7266C69.4068 60.8906 69.774 61.0938 70.0006 61.0938C70.2584 61.0938 70.5865 60.8906 70.6881 60.6641C70.7584 60.5156 70.7818 59.5859 70.7818 57.2969V54.1328L71.0162 54.2578C71.2818 54.3984 71.5084 54.4062 71.7427 54.2891C71.9849 54.1641 74.7506 51.4062 74.8912 51.1562C75.0552 50.8359 75.024 50.5781 74.774 50.2969C74.649 50.1562 73.524 49.25 72.2818 48.2812L70.0084 46.5234V42.5234C70.0006 39.5938 69.9771 38.4688 69.9068 38.3203C69.7193 37.9062 69.5865 37.8906 66.9537 37.8906C64.3912 37.8906 64.1802 37.9141 64.0162 38.2578C63.9771 38.3359 63.9302 39.1484 63.9068 40.0547L63.8677 41.7188L62.8912 40.9531C59.0631 37.9453 55.4849 35.1641 55.3365 35.0938C55.1646 35 54.8834 34.9844 54.7115 35.0469ZM63.7193 43.5781C68.4927 47.3047 72.5318 50.4609 72.7037 50.6016L73.0084 50.8516L72.1881 51.6719C71.7427 52.125 71.3443 52.5 71.3131 52.5C71.2896 52.5 67.6802 49.7031 63.3131 46.2891C58.9068 42.8516 55.2584 40.0625 55.1412 40.0391C55.0162 40.0078 54.8287 40.0312 54.7115 40.0938C54.5865 40.1562 50.9459 42.9688 46.6177 46.3516C42.2896 49.7344 38.7193 52.5 38.6881 52.5C38.6568 52.5 38.2662 52.1328 37.8131 51.6797C37.2896 51.1562 37.024 50.8359 37.0709 50.7891C37.2193 50.6484 54.9615 36.7969 55.0006 36.7969C55.024 36.7969 58.9459 39.8516 63.7193 43.5781ZM68.4381 42.3516C68.4381 44.6406 68.4146 45.2344 68.3443 45.1875C68.2896 45.1484 67.6177 44.6406 66.8599 44.0391L65.4693 42.9609V41.2031V39.4531H66.9537H68.4381V42.3516Z" fill="#065393"/>
<path d="M47.1173 52.1406C46.711 52.3671 46.7266 52.0546 46.7188 60.2968C46.7188 68.6406 46.7032 68.2968 47.1485 68.4999C47.2969 68.5702 49.2344 68.5937 55.0079 68.5937C63.3282 68.5937 62.9844 68.6093 63.1876 68.164C63.3204 67.8671 63.3204 52.7577 63.1876 52.4609C62.9844 52.0156 63.3282 52.0312 54.9844 52.0312C48.7579 52.039 47.2657 52.0546 47.1173 52.1406ZM54.2188 56.5624V59.5312H51.2501H48.2813V56.5624V53.5937H51.2501H54.2188V56.5624ZM61.7188 56.5624V59.5312H58.7501H55.7813V56.5624V53.5937H58.7501H61.7188V56.5624ZM54.2188 64.0624V67.0312H51.2501H48.2813V64.0624V61.0937H51.2501H54.2188V64.0624ZM61.7188 64.0624V67.0312H58.7501H55.7813V64.0624V61.0937H58.7501H61.7188V64.0624Z" fill="#065393"/>
<path d="M43.2411 62.4453C43.1083 62.5547 43.0224 62.7266 42.9911 62.9375C42.9521 63.2188 42.9833 63.2969 43.1864 63.5234C43.3818 63.7422 43.4755 63.7891 43.7489 63.7891C44.0224 63.7891 44.1161 63.7422 44.3114 63.5234C44.5146 63.2969 44.5458 63.2188 44.5068 62.9375C44.4521 62.5156 44.163 62.2656 43.7489 62.2656C43.5458 62.2656 43.3739 62.3281 43.2411 62.4453Z" fill="#065393"/>
<path d="M69.6163 62.7656C68.9366 63.1406 69.2257 64.2188 69.9991 64.2188C70.3976 64.2188 70.7804 63.8359 70.7804 63.4453C70.7804 62.8594 70.1319 62.4766 69.6163 62.7656Z" fill="#065393"/>
</g>
<defs>
<clipPath id="clip0_1426_20721">
<rect width="40" height="40" fill="white" transform="translate(35 35)"/>
</clipPath>
</defs>
</svg>
