<svg width="40" height="40" viewBox="0 0 40 40" fill="none" xmlns="http://www.w3.org/2000/svg">
<rect width="40" height="40" fill="white"/>
<g clip-path="url(#clip0_2128_11184)">
<path d="M25.9223 15.3904C26.1311 16.6907 25.8906 18.0188 25.2348 19.1857C24.579 20.3526 23.5415 21.2988 22.2696 21.8899C20.9978 22.4809 19.5566 22.6866 18.1508 22.4778C16.7451 22.2689 15.4465 21.6561 14.4397 20.7266C13.4329 19.797 12.7692 18.598 12.543 17.3001C12.3168 16.0022 12.5396 14.6714 13.1798 13.4972C13.8199 12.3229 14.8447 11.365 16.1086 10.7595C17.3724 10.154 18.8108 9.93191 20.2192 10.1247C21.6558 10.3214 22.9859 10.9395 24.0128 11.8877C25.0398 12.8359 25.7092 14.0639 25.9223 15.3904Z" stroke="white" stroke-width="2" stroke-linecap="round" stroke-linejoin="round"/>
<path d="M28.4609 7.78125H28.4779" stroke="white" stroke-width="2" stroke-linecap="round" stroke-linejoin="round"/>
<path d="M16.0861 22.7733L17.3316 22.5077C17.3733 22.499 17.4145 22.4886 17.4552 22.4764C17.6694 22.4234 17.8665 22.3234 18.0298 22.1848C18.1931 22.0463 18.3177 21.8734 18.393 21.6808C18.4682 21.4882 18.492 21.2816 18.4622 21.0788C18.4324 20.8759 18.3499 20.6826 18.2218 20.5155C18.0825 20.352 17.9101 20.215 17.7141 20.1124C17.4826 19.9905 17.2403 19.887 16.9898 19.803L15.6224 19.3421C14.8556 19.0785 14.0862 18.8218 13.3141 18.5718C12.8115 18.4061 12.3833 18.2624 12.0161 18.1561C11.9467 18.1358 11.8689 18.1171 11.8062 18.0968C11.4757 17.991 11.1302 17.9299 10.7807 17.9155C10.5987 17.9088 10.4173 17.9396 10.2498 18.0058C10.0823 18.0721 9.93301 18.172 9.8127 18.2983C9.74965 18.3642 9.69034 18.433 9.63501 18.5046C9.52841 18.656 9.44043 18.8179 9.3727 18.9874C9.11886 19.6796 8.99194 20.4061 9.0004 21.1374C9.00378 21.7983 9.0224 22.6468 9.4167 23.2218C9.51106 23.3694 9.63789 23.4972 9.78901 23.5968C10.0699 23.7749 10.3526 23.7983 10.647 23.8171C11.087 23.8468 11.5152 23.7468 11.9399 23.6561L16.081 22.7718L16.0861 22.7733ZM29.9952 16.6624C29.6548 16.003 29.1972 15.4009 28.6413 14.8811C28.4995 14.7566 28.3434 14.6466 28.1759 14.553C28.0935 14.5109 28.0088 14.4728 27.9221 14.4389C27.754 14.3743 27.5725 14.3452 27.3907 14.3535C27.2089 14.3619 27.0314 14.4076 26.8712 14.4874C26.6309 14.5968 26.3736 14.7718 26.0318 15.0655C25.9844 15.1093 25.9252 15.1593 25.8727 15.2046C25.5901 15.4483 25.2753 15.7514 24.9013 16.103C24.3259 16.6421 23.7556 17.1827 23.1921 17.7311L22.1801 18.6999C21.9949 18.8765 21.8262 19.0673 21.6758 19.2702C21.547 19.4415 21.4567 19.6349 21.4101 19.8389C21.3823 19.995 21.3863 20.1545 21.4219 20.3093C21.4219 20.3171 21.4253 20.3233 21.427 20.3296C21.5065 20.6501 21.7177 20.9295 22.0161 21.1091C22.3144 21.2886 22.6766 21.3542 23.0262 21.2921C23.0683 21.2867 23.1101 21.2794 23.1515 21.2702L28.5415 20.1202C28.9662 20.0296 29.3978 19.9452 29.7802 19.7421C30.0358 19.6046 30.2795 19.4686 30.447 19.1952C30.5359 19.0441 30.5895 18.8775 30.6044 18.7061C30.689 18.028 30.3032 17.2577 29.9952 16.6624ZM20.3473 18.7546C20.7366 18.3014 20.7366 17.6264 20.7704 17.0749C20.8889 15.2296 21.0124 13.3843 21.1106 11.5389C21.1478 10.8389 21.229 10.1483 21.185 9.4452C21.1478 8.86395 21.1427 8.19676 20.745 7.7202C20.0461 6.87957 18.5501 6.94832 17.5279 7.07801C17.2149 7.11707 16.9018 7.17176 16.5921 7.24051C16.2828 7.30759 15.9762 7.38525 15.6732 7.47332C14.6916 7.7702 13.3158 8.31239 13.0839 9.35457C12.9519 9.94364 13.2633 10.5468 13.5053 11.0843C13.7981 11.7358 14.1992 12.3218 14.563 12.9358C15.5276 14.5546 16.5092 16.1639 17.4873 17.7749C17.7784 18.2561 18.0966 18.8639 18.6635 19.1139C18.7007 19.1296 18.7396 19.1421 18.7786 19.153C19.0324 19.2421 19.3082 19.2593 19.5722 19.203L19.6196 19.1921C19.8635 19.131 20.0843 19.0088 20.2576 18.8389C20.2891 18.8118 20.3191 18.7846 20.3473 18.7546ZM19.8802 23.6936C19.7088 23.472 19.4578 23.3136 19.1718 23.2467C18.8858 23.1797 18.5834 23.2085 18.3182 23.328C18.2322 23.3682 18.15 23.4152 18.0729 23.4686C17.8525 23.6288 17.6557 23.8147 17.4873 24.0218C17.4433 24.0733 17.4027 24.1421 17.3519 24.1843L16.4855 25.2858C15.9947 25.903 15.509 26.5218 15.0284 27.1499C14.7153 27.5561 14.4429 27.8983 14.2296 28.2014L14.1078 28.3733C13.8506 28.7405 13.705 29.0077 13.6306 29.2468C13.5751 29.4049 13.5578 29.5724 13.5798 29.7374C13.6018 29.9093 13.6644 30.0764 13.7626 30.2249C13.815 30.2983 13.8709 30.3702 13.9318 30.4405C14.0611 30.5787 14.207 30.7029 14.3667 30.8108C15.4709 31.5014 16.7527 31.911 18.083 31.9983C18.281 32.0043 18.479 31.9902 18.6736 31.9561C18.767 31.9358 18.8591 31.9107 18.9495 31.8811C19.1256 31.8198 19.2859 31.725 19.4199 31.603C19.5475 31.4855 19.6457 31.3436 19.7076 31.1874C19.8075 30.9577 19.8735 30.6639 19.9158 30.2296L19.9361 30.0264C19.9699 29.6655 19.9869 29.2421 20.0122 28.7436C20.0546 27.978 20.0867 27.2124 20.1138 26.4483L20.1696 25.0889C20.1917 24.762 20.1603 24.4338 20.0766 24.1155C20.0352 23.9661 19.9701 23.8237 19.8802 23.6936ZM29.6669 25.8218C29.4178 25.5888 29.134 25.3899 28.8241 25.2311L28.6345 25.1264C28.2978 24.9389 27.8933 24.7421 27.4178 24.5046C26.6901 24.1358 25.9624 23.7764 25.2262 23.4186L23.9282 22.7827C23.8605 22.7639 23.7929 22.7202 23.7286 22.6905C23.479 22.5728 23.2139 22.4856 22.9399 22.4311C22.8451 22.4141 22.7488 22.4047 22.6522 22.403C22.3576 22.4041 22.0729 22.5012 21.8484 22.6774C21.6239 22.8535 21.474 23.0972 21.4253 23.3655C21.4052 23.518 21.4109 23.6725 21.4422 23.8233C21.5066 24.1421 21.6622 24.4577 21.8213 24.7343L22.5152 25.9343C22.901 26.6124 23.2919 27.2843 23.693 27.9561C23.9502 28.3936 24.1669 28.7686 24.3665 29.0796C24.4055 29.1374 24.4478 29.1999 24.4816 29.2546C24.727 29.628 24.9233 29.8639 25.123 30.0311C25.2551 30.1496 25.4143 30.2393 25.5888 30.2936C25.7633 30.3479 25.9488 30.3656 26.1316 30.3452C26.2272 30.3349 26.3221 30.3198 26.4159 30.2999C26.6068 30.2516 26.7912 30.184 26.9659 30.0983C27.4938 29.8253 27.9803 29.489 28.4129 29.0983C28.9307 28.6296 29.3893 28.1139 29.7464 27.5264C29.7972 27.4436 29.8395 27.3561 29.875 27.2686C29.9086 27.1863 29.9374 27.1023 29.9613 27.0171C29.9833 26.9296 29.9985 26.8436 30.0104 26.7546C30.028 26.582 30.006 26.4079 29.9461 26.2436C29.8875 26.0859 29.7922 25.9418 29.6669 25.8218Z" fill="#065393"/>
</g>
<defs>
<clipPath id="clip0_2128_11184">
<rect width="22" height="25" fill="white" transform="translate(9 7)"/>
</clipPath>
</defs>
</svg>
