<svg width="40" height="40" viewBox="0 0 40 40" fill="none" xmlns="http://www.w3.org/2000/svg">
<rect width="40" height="40" fill="white"/>
<path d="M31 11C30.0424 11.6755 28.9821 12.1922 27.86 12.53C27.2577 11.8376 26.4573 11.3467 25.567 11.124C24.6767 10.9012 23.7395 10.9572 22.8821 11.2845C22.0247 11.6118 21.2884 12.1944 20.773 12.9538C20.2575 13.7131 19.9877 14.6124 20 15.53V16.53C18.2426 16.5756 16.5013 16.1859 14.931 15.3955C13.3607 14.6051 12.0103 13.4387 11 12C11 12 7 21 16 25C13.9405 26.398 11.4872 27.099 9 27C18 32 29 27 29 15.5C28.9991 15.2215 28.9723 14.9436 28.92 14.67C29.9406 13.6635 30.6608 12.3928 31 11V11Z" fill="#065393"/>
</svg>
