<svg width="18" height="19" viewBox="0 0 18 19" fill="none" xmlns="http://www.w3.org/2000/svg">
<path d="M16 9.94995C16 7.99995 15.3207 6.34595 13.962 4.98795C12.6033 3.62995 10.9493 2.95062 9 2.94995V0.949951C10.25 0.949951 11.421 1.18762 12.513 1.66295C13.605 2.13828 14.555 2.77995 15.363 3.58795C16.171 4.39595 16.8127 5.34595 17.288 6.43795C17.7633 7.52995 18.0007 8.70062 18 9.94995H16ZM12 9.94995C12 9.11662 11.7083 8.40828 11.125 7.82495C10.5417 7.24162 9.83333 6.94995 9 6.94995V4.94995C10.3833 4.94995 11.5627 5.43762 12.538 6.41295C13.5133 7.38828 14.0007 8.56728 14 9.94995H12ZM16.95 19C14.8 19 12.704 18.525 10.662 17.575C8.62 16.625 6.81167 15.3583 5.237 13.775C3.66233 12.1916 2.39567 10.379 1.437 8.33695C0.478334 6.29495 -0.000665972 4.19928 6.94927e-07 2.04995V1.52495C6.94927e-07 1.34162 0.0166673 1.16662 0.0500006 0.999951H5.9L6.825 6.02495L3.975 8.89995C4.675 10.1 5.55433 11.225 6.613 12.275C7.67167 13.325 8.834 14.2333 10.1 15L13 12.1L18 13.1V18.95C17.8333 18.9666 17.6583 18.9793 17.475 18.988C17.2917 18.9966 17.1167 19.0006 16.95 19Z" fill="white"/>
</svg>
