<svg width="129" height="57" viewBox="0 0 129 57" fill="none" xmlns="http://www.w3.org/2000/svg">
<g clip-path="url(#clip0_1412_21159)">
<path d="M0.0312813 42.5996H1.89103C1.89103 42.7609 1.89103 42.8685 1.90178 42.9115C1.91253 43.7181 1.97703 44.2666 2.07378 44.5355C2.18128 44.8151 2.39628 45.0194 2.74028 45.17C3.27778 45.4066 5.00853 45.5141 7.95403 45.5141C10.0933 45.5141 11.6197 45.4066 12.555 45.2023C13.4687 44.9979 13.931 44.2881 13.931 43.0728C13.931 42.4598 13.8557 41.9866 13.7052 41.6855C13.5547 41.3736 13.3075 41.1585 12.9527 41.0294C12.598 40.9004 12.0927 40.8251 11.4477 40.8036C10.8027 40.7821 8.71728 40.7713 5.18053 40.7713C3.98728 40.7713 3.04128 40.6638 2.32103 40.4379C1.61153 40.2121 1.06328 39.8679 0.676281 39.384C0.224781 38.8247 -0.000968755 37.9536 -0.000968755 36.7921C-0.000968755 35.5015 0.364531 34.5658 1.07403 33.9851C1.41803 33.6947 1.81578 33.4796 2.23503 33.329C2.66503 33.1785 3.25628 33.0602 4.03028 32.9741C5.29878 32.8236 6.79303 32.7483 8.53453 32.7483C10.147 32.7483 11.394 32.8343 12.2755 32.9957C13.157 33.157 13.845 33.4366 14.3287 33.8345C14.7372 34.1679 15.006 34.5443 15.1565 34.9853C15.307 35.4262 15.393 36.1038 15.4037 37.0179H13.4902V36.7921C13.4902 36.093 13.415 35.6198 13.2645 35.3832C13.0387 35.0068 12.555 34.7487 11.8025 34.5873C11.05 34.426 9.93203 34.3507 8.44853 34.3507C6.59953 34.3507 5.21278 34.426 4.27753 34.5658C3.35303 34.7057 2.72953 34.9315 2.39628 35.2541C2.08453 35.5553 1.93403 36.0715 1.93403 36.7813C1.93403 37.4266 2.00928 37.8783 2.15978 38.1579C2.31028 38.4268 2.61128 38.6419 3.06278 38.7817C3.71853 38.986 4.96553 39.1043 6.81453 39.1151C7.44878 39.1151 8.99678 39.1258 11.48 39.1366C12.512 39.1474 13.2967 39.2441 13.845 39.427C14.3932 39.6206 14.8447 39.9432 15.1887 40.4057C15.6187 40.9972 15.8445 41.836 15.8445 42.9223C15.8445 43.9655 15.6617 44.7828 15.307 45.3851C14.877 46.0841 14.0815 46.5574 12.9312 46.794C11.7702 47.0306 9.69553 47.1489 6.69628 47.1489C5.10528 47.1489 3.93353 47.1058 3.18103 47.009C2.42853 46.9123 1.83728 46.7402 1.39653 46.4928C0.859031 46.1917 0.504281 45.8045 0.289281 45.3421C0.0850313 44.8796 -0.0117188 44.1806 -0.0117188 43.2664C0.0205313 43.2019 0.0205313 42.9868 0.0312813 42.5996ZM34.2377 47.0951L32.5392 44.0623H20.9615L19.2522 47.0951H17.0915L25.2077 32.759H28.2607L36.3555 47.0951H34.2377ZM31.6255 42.3845L27.1642 34.4368H26.401L21.8752 42.3845H31.6255ZM38.097 32.759H41.279L53.8135 45.3313H54.2542V32.759H56.1677V47.0951H52.932L40.4297 34.5658H40.0105V47.0951H38.097V32.759ZM58.1242 32.759H74.389V34.4368H67.2402V47.0951H65.3267V34.4368H58.135V32.759H58.1242ZM89.525 47.0951L87.8265 44.0623H76.2487L74.5395 47.0951H72.3787L80.495 32.759H83.548L91.6427 47.0951H89.525ZM86.9127 42.3845L82.4515 34.4368H81.6882L77.1625 42.3845H86.9127Z" fill="white"/>
<path d="M98.7578 47.0948V32.7588H112.206V34.4365H100.671V38.9965H111.69V40.6743H100.671V47.0948H98.7578ZM114.162 47.0948V32.7588H128.191V34.4365H116.076V38.8244H127.675V40.5022H116.076V45.4171H128.213V47.0948H114.162Z" fill="white"/>
<path d="M7.24234 54.946C7.19934 55.0536 7.11334 55.1396 6.98434 55.1934C6.86609 55.2472 6.67259 55.2902 6.42534 55.3117C6.29634 55.3225 5.99534 55.344 5.52234 55.3547C5.04934 55.3655 4.67309 55.3762 4.38284 55.3762C3.42609 55.3762 2.69509 55.3547 2.18984 55.3117C1.91034 55.2902 1.70609 55.2364 1.56634 55.1396C1.43734 55.0428 1.35134 54.8923 1.31909 54.6772C1.29759 54.5481 1.26534 54.3008 1.24384 53.9459C1.22234 53.5909 1.21159 53.3006 1.21159 53.0747C1.21159 52.6015 1.24384 52.2359 1.30834 51.967C1.37284 51.6981 1.45884 51.526 1.59859 51.44C1.73834 51.354 2.02859 51.2894 2.46934 51.2572C2.92084 51.2142 3.58734 51.2034 4.46884 51.2034C5.69434 51.2034 6.47909 51.2572 6.81234 51.3647C6.99509 51.4292 7.12409 51.5153 7.17784 51.6228C7.24234 51.7304 7.27459 51.9132 7.27459 52.1713C7.27459 52.2036 7.27459 52.2681 7.27459 52.3649H8.11309C8.10234 51.8917 8.08084 51.5691 8.02709 51.4077C7.98409 51.2357 7.86584 51.0851 7.68309 50.956C7.50034 50.827 7.28534 50.7409 7.02734 50.6872C6.52209 50.5904 5.68359 50.5474 4.51184 50.5474C3.28634 50.5474 2.35109 50.5904 1.71684 50.6657C1.07184 50.7517 0.663345 51.0206 0.502095 51.483C0.373095 51.8809 0.308594 52.5047 0.308594 53.3759C0.308594 54.29 0.394595 54.9138 0.577345 55.2579C0.760095 55.6021 1.09334 55.8172 1.59859 55.9032C2.13609 55.9892 3.15734 56.0323 4.67309 56.0323C5.84484 56.0323 6.65109 55.9893 7.10259 55.914C7.66159 55.8279 7.99484 55.5698 8.11309 55.1719C8.15609 54.9891 8.19909 54.6449 8.22059 54.1502H7.32834C7.31759 54.5804 7.28534 54.8492 7.24234 54.946Z" fill="#3AA1DA"/>
<path d="M19.9054 51.3852C19.8302 51.2347 19.7334 51.1056 19.5937 50.9981C19.3787 50.826 19.0347 50.7077 18.5509 50.6539C18.0779 50.5894 17.2609 50.5679 16.0999 50.5679C14.6917 50.5679 13.6919 50.6109 13.1114 50.6754C12.4772 50.7507 12.0687 51.0088 11.8859 51.439C11.7354 51.8047 11.6602 52.4177 11.6602 53.2781C11.6602 54.0094 11.6924 54.5256 11.7677 54.8375C11.8322 55.1494 11.9719 55.386 12.1762 55.5581C12.3267 55.6871 12.4987 55.7839 12.6922 55.8484C12.8857 55.913 13.1544 55.956 13.4877 55.9775C13.6812 55.9882 14.0897 55.999 14.7132 56.0205C15.3367 56.0313 15.8957 56.042 16.4117 56.042C17.4437 56.042 18.1854 56.0098 18.6477 55.9452C19.0992 55.8807 19.4324 55.7732 19.6259 55.6011C19.8194 55.4398 19.9484 55.1924 20.0237 54.8482C20.0989 54.5041 20.1419 53.9986 20.1419 53.3318C20.1419 52.8049 20.1204 52.3747 20.0667 52.0305C20.0237 51.7401 19.9699 51.5358 19.9054 51.3852ZM19.1099 54.7084C19.0347 55.0203 18.8089 55.2032 18.4112 55.2569C17.9167 55.3322 17.1212 55.3645 16.0354 55.3645C15.2722 55.3645 14.5949 55.3537 14.0144 55.3215C13.6597 55.2999 13.4124 55.2784 13.2404 55.2462C13.0792 55.2139 12.9609 55.1601 12.8749 55.0849C12.7674 54.9881 12.6922 54.8052 12.6492 54.5364C12.6062 54.2567 12.5847 53.8265 12.5847 53.2243C12.5847 52.6435 12.6277 52.1918 12.7029 51.8907C12.7459 51.6971 12.8319 51.5681 12.9394 51.482C13.0577 51.396 13.2404 51.3422 13.4984 51.2992C13.9392 51.2347 14.6379 51.2132 15.5839 51.2132C16.5192 51.2132 17.1427 51.2239 17.4759 51.2347C17.8092 51.2454 18.0994 51.2669 18.3574 51.2992C18.7982 51.353 19.0562 51.5358 19.1207 51.8262C19.1852 52.1165 19.2174 52.622 19.2174 53.3318C19.2282 53.9126 19.1959 54.375 19.1099 54.7084Z" fill="#3AA1DA"/>
<path d="M31.4723 55.343H31.2681L25.3448 50.5679H23.8398V56.0098H24.7428V51.2562H24.9363L30.8488 56.0098H32.3753V50.5679H31.4723V55.343Z" fill="#3AA1DA"/>
<path d="M42.5692 53.0955C42.3112 53.0202 41.935 52.9879 41.4512 52.9879C40.2795 52.9879 39.5377 52.9772 39.2475 52.9772C38.3767 52.9772 37.7855 52.9342 37.4737 52.8481C37.2587 52.7943 37.119 52.7191 37.0437 52.6115C36.9685 52.504 36.9362 52.3319 36.9362 52.0953C36.9362 51.8264 37.0115 51.6328 37.1512 51.5145C37.3017 51.3962 37.6027 51.2994 38.0435 51.2564C38.4842 51.2026 39.14 51.1811 40.0107 51.1811C40.7202 51.1811 41.247 51.2134 41.6017 51.2779C41.9565 51.3425 42.1822 51.4392 42.2897 51.5791C42.365 51.6651 42.3972 51.8479 42.3972 52.1168V52.2028H43.3002C43.2895 51.8587 43.2572 51.6006 43.182 51.4285C43.1067 51.2672 42.9777 51.1166 42.7842 50.9875C42.5477 50.837 42.2252 50.7294 41.8167 50.6649C41.3975 50.6004 40.8062 50.5681 40.043 50.5681C39.226 50.5681 38.5057 50.6004 37.9145 50.6542C37.549 50.6864 37.2695 50.7294 37.0652 50.794C36.861 50.8477 36.6782 50.9338 36.517 51.0413C36.173 51.2564 36.0117 51.6221 36.0117 52.106C36.0117 52.547 36.1192 52.8804 36.3342 53.0955C36.517 53.2783 36.775 53.4074 37.1082 53.4934C37.4522 53.5794 37.893 53.6225 38.4627 53.6225C40.129 53.6225 41.118 53.6225 41.4297 53.6332C41.7307 53.644 41.9672 53.6655 42.1392 53.7192C42.3005 53.7623 42.4295 53.8483 42.494 53.9666C42.5692 54.0849 42.6015 54.257 42.6015 54.4936C42.6015 54.956 42.3865 55.2249 41.9565 55.3002C41.5157 55.3755 40.7955 55.4185 39.785 55.4185C38.3982 55.4185 37.5705 55.3755 37.3232 55.2894C37.162 55.2357 37.0545 55.1496 37.0115 55.0528C36.9685 54.9453 36.9362 54.7409 36.9255 54.4398C36.9255 54.4183 36.9255 54.386 36.9255 54.3215H36.044C36.044 54.4721 36.044 54.5474 36.044 54.5689C36.044 54.9238 36.087 55.1819 36.1945 55.3647C36.2912 55.5475 36.4632 55.6874 36.7212 55.8057C36.9255 55.9025 37.2157 55.967 37.5705 55.9992C37.9252 56.0315 38.4842 56.053 39.2367 56.053C40.6557 56.053 41.634 56.01 42.1822 55.924C42.7305 55.8379 43.1067 55.6551 43.311 55.3862C43.483 55.1604 43.5582 54.8485 43.5582 54.4506C43.5582 54.0311 43.4507 53.7192 43.2465 53.4934C43.0422 53.2891 42.838 53.1708 42.5692 53.0955Z" fill="#3AA1DA"/>
<path d="M46.5977 51.2026H50.0054V56.01H50.9084V51.2026H54.2947V50.5681H46.5977V51.2026Z" fill="#3AA1DA"/>
<path d="M64.0349 50.6324C63.7124 50.6001 62.9814 50.5786 61.8419 50.5679H57.6172V56.0205H58.5202V53.9341H61.8312C62.5944 53.9341 63.0352 53.9341 63.1642 53.9449C63.2932 53.9449 63.4437 53.9556 63.6049 53.9771C64.0242 54.0309 64.2714 54.2352 64.3359 54.5794C64.3574 54.7515 64.3682 55.0526 64.3682 55.5043V56.0313H65.2712V55.2569C65.2712 54.8052 65.2497 54.4933 65.2174 54.3428C65.1744 54.1922 65.0992 54.0524 64.9702 53.9449C64.7982 53.805 64.5617 53.7082 64.2714 53.676C64.6477 53.6115 64.9272 53.5039 65.0992 53.3426C65.2067 53.2458 65.2819 53.1167 65.3249 52.9447C65.3679 52.7833 65.3894 52.536 65.3894 52.2241C65.3894 51.8047 65.3142 51.482 65.1744 51.2562C64.9809 50.8905 64.5939 50.6862 64.0349 50.6324ZM64.1424 53.106C63.9812 53.1813 63.7877 53.235 63.5404 53.2566C63.2932 53.2781 62.7234 53.2888 61.8419 53.2888H58.5309V51.2024H61.8419C62.6589 51.2024 63.2179 51.2132 63.5189 51.2347C63.8092 51.2562 64.0349 51.3099 64.1747 51.396C64.3897 51.5143 64.4972 51.7832 64.4972 52.2026C64.4864 52.6758 64.3682 52.9769 64.1424 53.106Z" fill="#3AA1DA"/>
<path d="M76.0979 53.2458C76.0872 53.9449 76.0764 54.3966 76.0657 54.6009C76.0549 54.8267 75.9904 54.9881 75.8722 55.0956C75.7647 55.1924 75.5712 55.2569 75.3024 55.2999C74.8402 55.3537 74.0124 55.386 72.7977 55.386C71.9162 55.386 71.2389 55.3645 70.7659 55.3215C70.4864 55.2892 70.2822 55.2354 70.1532 55.1386C70.0242 55.0418 69.9489 54.902 69.9274 54.6869C69.9059 54.5256 69.8952 54.0524 69.8952 53.2566V50.5786H68.9922V53.2566C69.0029 54.0201 69.0137 54.5256 69.0459 54.7407C69.0674 54.9666 69.1319 55.1494 69.2287 55.3107C69.4329 55.6333 69.7662 55.8377 70.2069 55.913C70.4757 55.956 70.7229 55.9882 70.9487 55.999C71.1744 56.0098 71.8624 56.0205 73.0019 56.0313C74.3027 56.0098 75.1197 55.9775 75.4529 55.956C75.7862 55.9237 76.0657 55.8592 76.2914 55.7409C76.6677 55.5581 76.8827 55.2247 76.9472 54.7515C76.9687 54.4718 76.9902 53.9771 77.0009 53.2458V50.5679H76.0979V53.2458Z" fill="#3AA1DA"/>
<path d="M87.5695 54.946C87.5265 55.0536 87.4405 55.1396 87.3115 55.1934C87.1933 55.2472 86.9997 55.2902 86.7525 55.3117C86.6235 55.3225 86.3225 55.344 85.8495 55.3547C85.3765 55.3655 85.0003 55.3762 84.71 55.3762C83.7533 55.3762 83.0223 55.3547 82.517 55.3117C82.2375 55.2902 82.0333 55.2364 81.9043 55.1396C81.7753 55.0428 81.6892 54.8923 81.657 54.6772C81.6355 54.5481 81.614 54.3008 81.5817 53.9459C81.5602 53.5909 81.5495 53.3006 81.5495 53.0747C81.5495 52.6015 81.5818 52.2359 81.6355 51.967C81.7 51.6981 81.7967 51.526 81.9257 51.44C82.0547 51.354 82.3557 51.2894 82.7965 51.2572C83.248 51.2142 83.9145 51.2034 84.796 51.2034C86.0215 51.2034 86.8062 51.2572 87.1395 51.3647C87.3222 51.4185 87.4405 51.5045 87.505 51.6228C87.5695 51.7304 87.6017 51.9132 87.6017 52.1713C87.6017 52.2036 87.6017 52.2681 87.6017 52.3649H88.4402C88.4295 51.8917 88.408 51.5691 88.3543 51.4077C88.3113 51.2357 88.193 51.0851 88.0103 50.956C87.8275 50.827 87.6125 50.7409 87.3545 50.6872C86.8493 50.5904 86.0107 50.5474 84.839 50.5474C83.6135 50.5474 82.6782 50.5904 82.044 50.6657C81.3882 50.7409 80.9798 51.0098 80.8185 51.483C80.7003 51.8809 80.625 52.5155 80.625 53.3759C80.625 54.29 80.711 54.9138 80.883 55.2579C81.055 55.6021 81.399 55.8172 81.9043 55.9032C82.4418 55.9892 83.463 56.0323 84.968 56.0323C86.1398 56.0323 86.946 55.9893 87.3975 55.914C87.9565 55.8279 88.2897 55.5698 88.408 55.1719C88.451 54.9891 88.494 54.6449 88.5155 54.1502H87.634C87.6447 54.5804 87.6125 54.8492 87.5695 54.946Z" fill="#3AA1DA"/>
<path d="M91.5781 51.2026H94.9859V56.01H95.8888V51.2026H99.275V50.5681H91.5781V51.2026Z" fill="#3AA1DA"/>
<path d="M103.501 50.5681H102.598V56.0208H103.501V50.5681Z" fill="#3AA1DA"/>
<path d="M115.422 51.3855C115.358 51.2349 115.25 51.1058 115.11 50.9983C114.895 50.8262 114.551 50.7079 114.078 50.6542C113.605 50.5896 112.788 50.5681 111.627 50.5681C110.219 50.5681 109.219 50.6111 108.639 50.6757C107.994 50.7509 107.596 51.0091 107.413 51.4392C107.263 51.8049 107.188 52.4179 107.188 53.2783C107.188 54.0096 107.22 54.5258 107.295 54.8377C107.359 55.1496 107.499 55.3862 107.704 55.5583C107.854 55.6874 108.026 55.7842 108.22 55.8487C108.413 55.9132 108.682 55.9562 109.015 55.9777C109.209 55.9885 109.617 55.9992 110.241 56.0208C110.864 56.0315 111.423 56.0423 111.928 56.0423C112.96 56.0423 113.713 56.01 114.164 55.9455C114.627 55.8809 114.949 55.7734 115.143 55.6013C115.336 55.44 115.465 55.1926 115.551 54.8485C115.626 54.5043 115.669 53.9989 115.669 53.3321C115.669 52.8051 115.648 52.3749 115.594 52.0308C115.551 51.7404 115.497 51.536 115.422 51.3855ZM114.637 54.7087C114.562 55.0206 114.336 55.2034 113.939 55.2572C113.444 55.3325 112.649 55.3647 111.563 55.3647C110.8 55.3647 110.122 55.354 109.542 55.3217C109.187 55.3002 108.94 55.2787 108.779 55.2464C108.617 55.2142 108.499 55.1604 108.402 55.0851C108.295 54.9883 108.22 54.8055 108.177 54.5366C108.134 54.257 108.112 53.8268 108.112 53.2245C108.112 52.6438 108.155 52.1921 108.23 51.8909C108.273 51.6974 108.359 51.5683 108.467 51.4823C108.585 51.3962 108.768 51.3425 109.026 51.2994C109.467 51.2349 110.165 51.2134 111.111 51.2134C112.047 51.2134 112.67 51.2242 113.003 51.2349C113.337 51.2457 113.627 51.2672 113.885 51.2994C114.336 51.3532 114.584 51.536 114.648 51.8264C114.713 52.1168 114.745 52.6223 114.745 53.3321C114.756 53.9128 114.713 54.3753 114.637 54.7087Z" fill="#3AA1DA"/>
<path d="M126.999 50.5681V55.3432H126.794L120.86 50.5681H119.355V56.01H120.258V51.2564H120.463L126.375 56.01H127.902V50.5681H126.999Z" fill="#3AA1DA"/>
<path d="M55.8857 0C52.2414 0 49.2852 2.95755 49.2852 6.6034V29.6508H72.3009C75.9452 29.6508 78.9122 26.6825 78.9122 23.0366V0H55.8857Z" fill="white"/>
<path d="M50.6094 6.60381V28.3284H72.3029C75.2161 28.3284 77.5919 25.9408 77.5919 23.0263V1.32324H55.8769C52.9851 1.32324 50.6094 3.70003 50.6094 6.60381ZM58.0591 24.048H53.8344V20.0687H58.0591V24.048ZM74.3776 19.1438C74.3776 20.0472 74.3024 20.8216 74.1411 21.4454C73.9799 22.0691 73.6681 22.5746 73.2059 22.9618C72.7436 23.3489 72.1094 23.6286 71.3031 23.8006C70.4969 23.9727 70.2174 24.0587 68.9166 24.0587H61.4884V20.0795H68.2716C68.9489 20.0795 69.4326 19.9612 69.7014 19.7353C69.9701 19.5095 70.1099 19.0793 70.1099 18.4448V17.8318C70.1099 17.1542 69.9809 16.724 69.7229 16.552C69.4649 16.3799 69.0241 16.2938 68.4114 16.2938H61.4884V12.8846H69.3681C70.5506 12.8846 70.7441 12.9814 71.4966 13.175C72.2491 13.3686 72.8296 13.6697 73.2704 14.0891C73.7111 14.5086 74.0014 15.057 74.1519 15.7238C74.3131 16.3906 74.3884 17.2187 74.3884 18.1974V19.1438H74.3776ZM58.2311 5.59286H74.1519V9.44305H59.4566C58.9621 9.44305 58.5966 9.52909 58.3816 9.71192C58.1666 9.89475 58.0591 10.2174 58.0591 10.7014V10.8735H58.0484V16.2938C57.0164 16.2938 56.9304 16.1863 56.2854 15.982C55.6404 15.7776 55.1351 15.4765 54.7696 15.0678C54.4041 14.6591 54.1569 14.1537 54.0386 13.5514C53.9096 12.9491 53.8559 12.2393 53.8559 11.422V10.0238C53.8559 9.22796 53.9419 8.55041 54.1139 7.98041C54.2859 7.41041 54.5654 6.95871 54.9524 6.60381C55.3394 6.2489 55.8554 5.99079 56.5219 5.84022C57.1776 5.6789 57.2314 5.59286 58.2311 5.59286Z" fill="#3AA1DA"/>
</g>
<defs>
<clipPath id="clip0_1412_21159">
<rect width="129" height="57" fill="white"/>
</clipPath>
</defs>
</svg>
