<svg width="40" height="40" viewBox="0 0 40 40" fill="none" xmlns="http://www.w3.org/2000/svg">
<rect width="40" height="40" fill="white"/>
<path d="M25 10H15C12.2386 10 10 12.2386 10 15V25C10 27.7614 12.2386 30 15 30H25C27.7614 30 30 27.7614 30 25V15C30 12.2386 27.7614 10 25 10Z" fill="#065393" stroke="#065393" stroke-width="2" stroke-linecap="round" stroke-linejoin="round"/>
<path d="M23.9997 19.3698C24.1231 20.2021 23.981 21.052 23.5935 21.7988C23.206 22.5456 22.5929 23.1512 21.8413 23.5295C21.0898 23.9077 20.2382 24.0394 19.4075 23.9057C18.5768 23.7721 17.8095 23.3799 17.2145 22.785C16.6196 22.1901 16.2274 21.4227 16.0938 20.592C15.9601 19.7614 16.0918 18.9097 16.47 18.1582C16.8483 17.4067 17.4539 16.7936 18.2007 16.4061C18.9475 16.0186 19.7975 15.8764 20.6297 15.9998C21.4786 16.1257 22.2646 16.5213 22.8714 17.1281C23.4782 17.735 23.8738 18.5209 23.9997 19.3698Z" stroke="white" stroke-width="2" stroke-linecap="round" stroke-linejoin="round"/>
<path d="M25.5 14.5H25.51" stroke="white" stroke-width="2" stroke-linecap="round" stroke-linejoin="round"/>
</svg>
