<svg width="42" height="42" viewBox="0 0 42 42" fill="none" xmlns="http://www.w3.org/2000/svg">
<circle r="21" transform="matrix(-1 0 0 1 21 21)" fill="white"/>
<path d="M22.8297 27.9993C22.6803 27.9998 22.5327 27.9668 22.3977 27.9028C22.2627 27.8388 22.1438 27.7453 22.0497 27.6293L17.2197 21.6293C17.0726 21.4504 16.9922 21.2259 16.9922 20.9943C16.9922 20.7627 17.0726 20.5382 17.2197 20.3593L22.2197 14.3593C22.3894 14.1551 22.6333 14.0267 22.8978 14.0023C23.1622 13.9779 23.4255 14.0596 23.6297 14.2293C23.8339 14.399 23.9623 14.6429 23.9867 14.9074C24.0111 15.1718 23.9294 15.4351 23.7597 15.6393L19.2897 20.9993L23.6097 26.3593C23.732 26.5061 23.8096 26.6848 23.8335 26.8744C23.8574 27.0639 23.8265 27.2563 23.7444 27.4289C23.6624 27.6014 23.5326 27.7468 23.3705 27.8479C23.2084 27.949 23.0207 28.0015 22.8297 27.9993Z" fill="#125993"/>
</svg>
