<svg width="40" height="40" viewBox="0 0 40 40" fill="none" xmlns="http://www.w3.org/2000/svg">
<rect width="40" height="40" fill="white"/>
<g clip-path="url(#clip0_1412_21178)">
<path d="M28.4856 9.95093C29.3013 9.95093 29.9655 10.5967 29.9655 11.3933V28.5125C29.9655 29.3091 29.3013 29.956 28.4856 29.956H11.4364C10.6224 29.956 9.96094 29.3091 9.96094 28.5125V11.3933C9.96094 10.5967 10.6224 9.95093 11.4364 9.95093H28.4856ZM27.0079 26.9974V21.7617C27.0079 19.1905 26.4528 17.2137 23.4486 17.2137C22.005 17.2137 21.0369 18.0053 20.6413 18.7558H20.6006V17.4507H17.7564V26.9974H20.72V22.2756C20.72 21.0301 20.9555 19.8235 22.4994 19.8235C24.0221 19.8235 24.0411 21.2478 24.0411 22.3548V26.9974H27.0079ZM15.8951 17.4507H12.925V26.9974H15.8951V17.4507ZM14.4108 12.705C13.4579 12.705 12.6895 13.4759 12.6895 14.4256C12.6895 15.3755 13.4579 16.1464 14.4108 16.1464C15.36 16.1464 16.1306 15.3755 16.1306 14.4256C16.1306 13.4759 15.36 12.705 14.4108 12.705Z" fill="#065393"/>
</g>
<defs>
<clipPath id="clip0_1412_21178">
<rect width="20" height="20" fill="white" transform="translate(10 10)"/>
</clipPath>
</defs>
</svg>
