<svg width="40" height="40" viewBox="0 0 40 40" fill="none" xmlns="http://www.w3.org/2000/svg">
<rect width="40" height="40" fill="white"/>
<g clip-path="url(#clip0_2123_11188)">
<path d="M23.78 30V22.26H26.3722L26.76 19.2511H23.78V17.3311C23.78 16.46 24.0222 15.8656 25.2711 15.8656H26.8644V13.1744C26.0931 13.0926 25.3179 13.0529 24.5422 13.0556C22.2456 13.0556 20.6733 14.4578 20.6733 17.0333V19.2511H18.0756V22.26H20.6733V30H11.1111C10.8164 30 10.5338 29.8829 10.3254 29.6746C10.1171 29.4662 10 29.1836 10 28.8889V11.1111C10 10.8164 10.1171 10.5338 10.3254 10.3254C10.5338 10.1171 10.8164 10 11.1111 10H28.8889C29.1836 10 29.4662 10.1171 29.6746 10.3254C29.8829 10.5338 30 10.8164 30 11.1111V28.8889C30 29.1836 29.8829 29.4662 29.6746 29.6746C29.4662 29.8829 29.1836 30 28.8889 30H23.78Z" fill="#065393"/>
</g>
<defs>
<clipPath id="clip0_2123_11188">
<rect width="20" height="20" fill="white" transform="translate(10 10)"/>
</clipPath>
</defs>
</svg>
