<svg width="86" height="38" viewBox="0 0 86 38" fill="none" xmlns="http://www.w3.org/2000/svg">
<g clip-path="url(#clip0_1412_20908)">
<path d="M0.0208542 28.3996H1.26068C1.26068 28.5071 1.26068 28.5788 1.26785 28.6075C1.27502 29.1452 1.31802 29.5109 1.38252 29.6901C1.45418 29.8766 1.59752 30.0128 1.82685 30.1132C2.18518 30.2709 3.33902 30.3426 5.30268 30.3426C6.72885 30.3426 7.7465 30.2709 8.37 30.1347C8.97916 29.9984 9.28733 29.5252 9.28733 28.7151C9.28733 28.3064 9.23716 27.9909 9.13683 27.7901C9.0365 27.5822 8.87166 27.4388 8.63516 27.3528C8.39866 27.2667 8.06183 27.2166 7.63183 27.2022C7.20183 27.1879 5.81152 27.1807 3.45368 27.1807C2.65818 27.1807 2.02752 27.109 1.54735 26.9584C1.07435 26.8079 0.708854 26.5784 0.450854 26.2558C0.149854 25.883 -0.000645837 25.3022 -0.000645837 24.5279C-0.000645837 23.6675 0.243021 23.0437 0.716018 22.6566C0.945351 22.463 1.21052 22.3196 1.49002 22.2192C1.77668 22.1188 2.17085 22.04 2.68685 21.9826C3.53252 21.8822 4.52868 21.832 5.68968 21.832C6.76468 21.832 7.596 21.8894 8.18366 21.9969C8.77133 22.1045 9.23 22.2909 9.5525 22.5562C9.82483 22.7784 10.004 23.0294 10.1043 23.3234C10.2047 23.6173 10.262 24.069 10.2692 24.6784H8.9935V24.5279C8.9935 24.0618 8.94333 23.7464 8.843 23.5886C8.6925 23.3377 8.37 23.1656 7.86833 23.0581C7.36666 22.9505 6.62135 22.9003 5.63235 22.9003C4.39968 22.9003 3.47518 22.9505 2.85168 23.0437C2.23535 23.1369 1.81968 23.2875 1.59752 23.5026C1.38968 23.7034 1.28935 24.0475 1.28935 24.5207C1.28935 24.9509 1.33952 25.252 1.43985 25.4384C1.54018 25.6177 1.74085 25.7611 2.04185 25.8543C2.47902 25.9905 3.31035 26.0694 4.54302 26.0766C4.96585 26.0766 5.99785 26.0837 7.65333 26.0909C8.34133 26.0981 8.8645 26.1626 9.23 26.2845C9.5955 26.4135 9.8965 26.6286 10.1258 26.9369C10.4125 27.3313 10.563 27.8905 10.563 28.6147C10.563 29.3101 10.4412 29.8551 10.2047 30.2566C9.918 30.7226 9.38766 31.0381 8.62083 31.1958C7.84683 31.3535 6.46368 31.4324 4.46418 31.4324C3.40352 31.4324 2.62235 31.4037 2.12068 31.3392C1.61902 31.2747 1.22485 31.16 0.931018 30.9951C0.572687 30.7943 0.336187 30.5362 0.192854 30.2279C0.0566875 29.9196 -0.0078125 29.4535 -0.0078125 28.8441C0.0136875 28.8011 0.0136875 28.6577 0.0208542 28.3996ZM22.8252 31.3966L21.6928 29.3747H13.9743L12.8348 31.3966H11.3943L16.8052 21.8392H18.8405L24.237 31.3966H22.8252ZM21.0837 28.2562L18.1095 22.9577H17.6007L14.5835 28.2562H21.0837ZM25.398 21.8392H27.5193L35.8757 30.2207H36.1695V21.8392H37.4452V31.3966H35.288L26.9532 23.0437H26.6737V31.3966H25.398V21.8392ZM38.7495 21.8392H49.5927V22.9577H44.8268V31.3966H43.5512V22.9577H38.7567V21.8392H38.7495ZM59.6833 31.3966L58.551 29.3747H50.8325L49.693 31.3966H48.2525L53.6633 21.8392H55.6987L61.0952 31.3966H59.6833ZM57.9418 28.2562L54.9677 22.9577H54.4588L51.4417 28.2562H57.9418Z" fill="black"/>
<path d="M65.8398 31.3962V21.8389H74.8053V22.9574H67.1155V25.9974H74.4613V27.1158H67.1155V31.3962H65.8398ZM76.1096 31.3962V21.8389H85.4621V22.9574H77.3853V25.8826H85.1181V27.0011H77.3853V30.2777H85.4764V31.3962H76.1096Z" fill="black"/>
<path d="M4.82953 36.6307C4.80086 36.7024 4.74353 36.7598 4.65753 36.7956C4.5787 36.8314 4.4497 36.8601 4.28486 36.8745C4.19886 36.8816 3.9982 36.896 3.68286 36.9031C3.36753 36.9103 3.1167 36.9175 2.9232 36.9175C2.28536 36.9175 1.79803 36.9031 1.4612 36.8745C1.27486 36.8601 1.1387 36.8243 1.04553 36.7598C0.95953 36.6952 0.902196 36.5948 0.880696 36.4514C0.866363 36.3654 0.844863 36.2005 0.83053 35.9639C0.816196 35.7273 0.80903 35.5337 0.80903 35.3831C0.80903 35.0677 0.83053 34.8239 0.87353 34.6447C0.91653 34.4654 0.973863 34.3507 1.06703 34.2933C1.1602 34.236 1.3537 34.193 1.64753 34.1714C1.94853 34.1428 2.39286 34.1356 2.98053 34.1356C3.79753 34.1356 4.3207 34.1714 4.54286 34.2431C4.6647 34.2862 4.7507 34.3435 4.78653 34.4152C4.82953 34.4869 4.85103 34.6088 4.85103 34.7809C4.85103 34.8024 4.85103 34.8454 4.85103 34.9099H5.41003C5.40286 34.5945 5.38853 34.3794 5.3527 34.2718C5.32403 34.1571 5.2452 34.0567 5.12336 33.9707C5.00153 33.8847 4.8582 33.8273 4.6862 33.7915C4.34936 33.7269 3.79036 33.6982 3.0092 33.6982C2.1922 33.6982 1.5687 33.7269 1.14586 33.7771C0.715865 33.8345 0.443532 34.0137 0.336032 34.322C0.250032 34.5873 0.207031 35.0031 0.207031 35.5839C0.207031 36.1933 0.264365 36.6092 0.386199 36.8386C0.508032 37.0681 0.730196 37.2114 1.06703 37.2688C1.42536 37.3262 2.1062 37.3548 3.1167 37.3548C3.89786 37.3548 4.43536 37.3262 4.73636 37.276C5.10903 37.2186 5.3312 37.0465 5.41003 36.7813C5.4387 36.6594 5.46736 36.4299 5.4817 36.1001H4.88686C4.8797 36.3869 4.8582 36.5662 4.82953 36.6307Z" fill="#3AA1DA"/>
<path d="M13.2703 34.2568C13.2201 34.1564 13.1556 34.0704 13.0624 33.9987C12.9191 33.884 12.6898 33.8051 12.3673 33.7693C12.0519 33.7263 11.5073 33.7119 10.7333 33.7119C9.79444 33.7119 9.12794 33.7406 8.74094 33.7836C8.3181 33.8338 8.04577 34.0059 7.92394 34.2927C7.8236 34.5364 7.77344 34.9451 7.77344 35.5187C7.77344 36.0063 7.79494 36.3504 7.8451 36.5583C7.8881 36.7663 7.98127 36.924 8.11744 37.0387C8.21777 37.1247 8.33244 37.1893 8.46144 37.2323C8.59044 37.2753 8.7696 37.304 8.99177 37.3183C9.12077 37.3255 9.3931 37.3327 9.80877 37.347C10.2244 37.3542 10.5971 37.3613 10.9411 37.3613C11.6291 37.3613 12.1236 37.3398 12.4318 37.2968C12.7328 37.2538 12.9549 37.1821 13.0839 37.0674C13.2129 36.9598 13.2989 36.7949 13.3491 36.5655C13.3993 36.3361 13.4279 35.9991 13.4279 35.5546C13.4279 35.2032 13.4136 34.9164 13.3778 34.687C13.3491 34.4934 13.3133 34.3572 13.2703 34.2568ZM12.7399 36.4723C12.6898 36.6802 12.5393 36.8021 12.2741 36.838C11.9444 36.8881 11.4141 36.9096 10.6903 36.9096C10.1814 36.9096 9.72994 36.9025 9.34294 36.881C9.10644 36.8666 8.9416 36.8523 8.82694 36.8308C8.71944 36.8093 8.6406 36.7734 8.58327 36.7232C8.5116 36.6587 8.46144 36.5368 8.43277 36.3576C8.4041 36.1712 8.38977 35.8844 8.38977 35.4829C8.38977 35.0957 8.41844 34.7946 8.4686 34.5938C8.49727 34.4647 8.5546 34.3787 8.62627 34.3213C8.7051 34.264 8.82694 34.2281 8.99894 34.1995C9.29277 34.1564 9.7586 34.1421 10.3893 34.1421C11.0128 34.1421 11.4284 34.1493 11.6506 34.1564C11.8728 34.1636 12.0663 34.178 12.2383 34.1995C12.5321 34.2353 12.7041 34.3572 12.7471 34.5508C12.7901 34.7444 12.8116 35.0813 12.8116 35.5546C12.8188 35.9417 12.7973 36.25 12.7399 36.4723Z" fill="#3AA1DA"/>
<path d="M20.9829 36.8953H20.8467L16.8979 33.7119H15.8945V37.3398H16.4965V34.1708H16.6255L20.5672 37.3398H21.5849V33.7119H20.9829V36.8953Z" fill="#3AA1DA"/>
<path d="M28.3795 35.3968C28.2075 35.3466 27.9566 35.3251 27.6341 35.3251C26.853 35.3251 26.3585 35.318 26.165 35.318C25.5845 35.318 25.1903 35.2893 24.9825 35.2319C24.8391 35.1961 24.746 35.1459 24.6958 35.0742C24.6456 35.0025 24.6241 34.8878 24.6241 34.73C24.6241 34.5508 24.6743 34.4217 24.7675 34.3429C24.8678 34.264 25.0685 34.1995 25.3623 34.1708C25.6561 34.1349 26.0933 34.1206 26.6738 34.1206C27.1468 34.1206 27.498 34.1421 27.7345 34.1851C27.971 34.2281 28.1215 34.2927 28.1931 34.3859C28.2433 34.4432 28.2648 34.5651 28.2648 34.7444V34.8017H28.8668C28.8596 34.5723 28.8381 34.4002 28.788 34.2855C28.7378 34.178 28.6518 34.0776 28.5228 33.9915C28.3651 33.8912 28.1501 33.8195 27.8778 33.7764C27.5983 33.7334 27.2041 33.7119 26.6953 33.7119C26.1506 33.7119 25.6705 33.7334 25.2763 33.7693C25.0326 33.7908 24.8463 33.8195 24.7101 33.8625C24.574 33.8983 24.4521 33.9557 24.3446 34.0274C24.1153 34.1708 24.0078 34.4146 24.0078 34.7372C24.0078 35.0312 24.0795 35.2534 24.2228 35.3968C24.3446 35.5187 24.5166 35.6047 24.7388 35.6621C24.9681 35.7195 25.262 35.7481 25.6418 35.7481C26.7526 35.7481 27.412 35.7481 27.6198 35.7553C27.8205 35.7625 27.9781 35.7768 28.0928 35.8127C28.2003 35.8413 28.2863 35.8987 28.3293 35.9776C28.3795 36.0564 28.401 36.1712 28.401 36.3289C28.401 36.6372 28.2576 36.8164 27.971 36.8666C27.6771 36.9168 27.197 36.9455 26.5233 36.9455C25.5988 36.9455 25.047 36.9168 24.8821 36.8595C24.7746 36.8236 24.703 36.7663 24.6743 36.7017C24.6456 36.63 24.6241 36.4938 24.617 36.293C24.617 36.2787 24.617 36.2572 24.617 36.2142H24.0293C24.0293 36.3146 24.0293 36.3647 24.0293 36.3791C24.0293 36.6157 24.058 36.7878 24.1296 36.9096C24.1941 37.0315 24.3088 37.1247 24.4808 37.2036C24.617 37.2681 24.8105 37.3112 25.047 37.3327C25.2835 37.3542 25.6561 37.3685 26.1578 37.3685C27.1038 37.3685 27.756 37.3398 28.1215 37.2825C28.487 37.2251 28.7378 37.1032 28.874 36.924C28.9886 36.7734 29.0388 36.5655 29.0388 36.3002C29.0388 36.0206 28.9671 35.8127 28.831 35.6621C28.6948 35.5259 28.5586 35.447 28.3795 35.3968Z" fill="#3AA1DA"/>
<path d="M31.0664 34.1349H33.3382V37.3398H33.9402V34.1349H36.1977V33.7119H31.0664V34.1349Z" fill="#3AA1DA"/>
<path d="M42.6926 33.7549C42.4776 33.7334 41.9902 33.7191 41.2306 33.7119H38.4141V37.347H39.0161V35.9561H41.2234C41.7322 35.9561 42.0261 35.9561 42.1121 35.9632C42.1981 35.9632 42.2984 35.9704 42.4059 35.9847C42.6854 36.0206 42.8502 36.1568 42.8932 36.3863C42.9076 36.501 42.9147 36.7017 42.9147 37.0029V37.3542H43.5167V36.838C43.5167 36.5368 43.5024 36.3289 43.4809 36.2285C43.4522 36.1281 43.4021 36.0349 43.3161 35.9632C43.2014 35.87 43.0437 35.8055 42.8502 35.784C43.1011 35.741 43.2874 35.6693 43.4021 35.5617C43.4737 35.4972 43.5239 35.4112 43.5526 35.2964C43.5812 35.1889 43.5956 35.024 43.5956 34.8161C43.5956 34.5364 43.5454 34.3213 43.4522 34.1708C43.3232 33.927 43.0652 33.7908 42.6926 33.7549ZM42.7642 35.404C42.6567 35.4542 42.5277 35.49 42.3629 35.5044C42.1981 35.5187 41.8182 35.5259 41.2306 35.5259H39.0232V34.1349H41.2306C41.7752 34.1349 42.1479 34.1421 42.3486 34.1564C42.5421 34.1708 42.6926 34.2066 42.7857 34.264C42.9291 34.3429 43.0007 34.5221 43.0007 34.8017C42.9936 35.1172 42.9147 35.318 42.7642 35.404Z" fill="#3AA1DA"/>
<path d="M50.7333 35.4972C50.7261 35.9632 50.7189 36.2644 50.7118 36.4006C50.7046 36.5512 50.6616 36.6587 50.5828 36.7304C50.5111 36.7949 50.3821 36.8379 50.2029 36.8666C49.8948 36.9025 49.3429 36.924 48.5331 36.924C47.9454 36.924 47.4939 36.9096 47.1786 36.881C46.9923 36.8595 46.8561 36.8236 46.7701 36.7591C46.6841 36.6946 46.6339 36.6013 46.6196 36.458C46.6053 36.3504 46.5981 36.0349 46.5981 35.5044V33.7191H45.9961V35.5044C46.0033 36.0134 46.0104 36.3504 46.0319 36.4938C46.0463 36.6444 46.0893 36.7663 46.1538 36.8738C46.2899 37.0889 46.5121 37.2251 46.8059 37.2753C46.9851 37.304 47.1499 37.3255 47.3004 37.3327C47.4509 37.3398 47.9096 37.347 48.6693 37.3542C49.5364 37.3398 50.0811 37.3183 50.3033 37.304C50.5254 37.2825 50.7118 37.2395 50.8623 37.1606C51.1131 37.0387 51.2564 36.8164 51.2994 36.501C51.3138 36.3146 51.3281 35.9847 51.3353 35.4972V33.7119H50.7333V35.4972Z" fill="#3AA1DA"/>
<path d="M58.3797 36.6307C58.351 36.7024 58.2937 36.7598 58.2077 36.7956C58.1288 36.8314 57.9998 36.8601 57.835 36.8745C57.749 36.8816 57.5483 36.896 57.233 36.9031C56.9177 36.9103 56.6668 36.9175 56.4733 36.9175C55.8355 36.9175 55.3482 36.9031 55.0113 36.8745C54.825 36.8601 54.6888 36.8243 54.6028 36.7598C54.5168 36.6952 54.4595 36.5948 54.438 36.4514C54.4237 36.3654 54.4093 36.2005 54.3878 35.9639C54.3735 35.7273 54.3663 35.5337 54.3663 35.3831C54.3663 35.0677 54.3878 34.8239 54.4237 34.6447C54.4667 34.4654 54.5312 34.3507 54.6172 34.2933C54.7032 34.236 54.9038 34.193 55.1977 34.1714C55.4987 34.1428 55.943 34.1356 56.5307 34.1356C57.3477 34.1356 57.8708 34.1714 58.093 34.2431C58.2148 34.279 58.2937 34.3364 58.3367 34.4152C58.3797 34.4869 58.4012 34.6088 58.4012 34.7809C58.4012 34.8024 58.4012 34.8454 58.4012 34.9099H58.9602C58.953 34.5945 58.9387 34.3794 58.9028 34.2718C58.8742 34.1571 58.7953 34.0567 58.6735 33.9707C58.5517 33.8847 58.4083 33.8273 58.2363 33.7915C57.8995 33.7269 57.3405 33.6982 56.5593 33.6982C55.7423 33.6982 55.1188 33.7269 54.696 33.7771C54.2588 33.8273 53.9865 34.0065 53.879 34.322C53.8002 34.5873 53.75 35.0103 53.75 35.5839C53.75 36.1933 53.8073 36.6092 53.922 36.8386C54.0367 37.0681 54.266 37.2114 54.6028 37.2688C54.9612 37.3262 55.642 37.3548 56.6453 37.3548C57.4265 37.3548 57.964 37.3262 58.265 37.276C58.6377 37.2186 58.8598 37.0465 58.9387 36.7813C58.9673 36.6594 58.996 36.4299 59.0103 36.1001H58.4227C58.4298 36.3869 58.4083 36.5662 58.3797 36.6307Z" fill="#3AA1DA"/>
<path d="M61.0508 34.1349H63.3226V37.3398H63.9245V34.1349H66.182V33.7119H61.0508V34.1349Z" fill="#3AA1DA"/>
<path d="M69.0004 33.7119H68.3984V37.347H69.0004V33.7119Z" fill="#3AA1DA"/>
<path d="M76.9468 34.2568C76.9038 34.1564 76.8321 34.0704 76.7389 33.9987C76.5956 33.884 76.3663 33.8051 76.0509 33.7693C75.7356 33.7263 75.1909 33.7119 74.4169 33.7119C73.4781 33.7119 72.8116 33.7406 72.4246 33.7836C71.9946 33.8338 71.7294 34.0059 71.6075 34.2927C71.5072 34.5364 71.457 34.9451 71.457 35.5187C71.457 36.0063 71.4785 36.3504 71.5287 36.5583C71.5717 36.7663 71.6649 36.924 71.8011 37.0387C71.9014 37.1247 72.0161 37.1893 72.1451 37.2323C72.2741 37.2753 72.4533 37.304 72.6754 37.3183C72.8044 37.3255 73.0768 37.3327 73.4924 37.347C73.9081 37.3542 74.2808 37.3613 74.6176 37.3613C75.3056 37.3613 75.8073 37.3398 76.1083 37.2968C76.4164 37.2538 76.6314 37.1821 76.7604 37.0674C76.8894 36.9598 76.9754 36.7949 77.0328 36.5655C77.0829 36.3361 77.1116 35.9991 77.1116 35.5546C77.1116 35.2032 77.0973 34.9164 77.0614 34.687C77.0328 34.4934 76.9969 34.3572 76.9468 34.2568ZM76.4236 36.4723C76.3734 36.6802 76.2229 36.8021 75.9578 36.838C75.6281 36.8881 75.0978 36.9096 74.3739 36.9096C73.8651 36.9096 73.4136 36.9025 73.0266 36.881C72.7901 36.8666 72.6253 36.8523 72.5178 36.8308C72.4103 36.8093 72.3314 36.7734 72.2669 36.7232C72.1953 36.6587 72.1451 36.5368 72.1164 36.3576C72.0878 36.1712 72.0734 35.8844 72.0734 35.4829C72.0734 35.0957 72.1021 34.7946 72.1523 34.5938C72.1809 34.4647 72.2383 34.3787 72.3099 34.3213C72.3888 34.264 72.5106 34.2281 72.6826 34.1995C72.9764 34.1564 73.4423 34.1421 74.0729 34.1421C74.6964 34.1421 75.1121 34.1493 75.3343 34.1564C75.5564 34.1636 75.7499 34.178 75.9219 34.1995C76.2229 34.2353 76.3878 34.3572 76.4308 34.5508C76.4738 34.7444 76.4953 35.0813 76.4953 35.5546C76.5024 35.9417 76.4738 36.25 76.4236 36.4723Z" fill="#3AA1DA"/>
<path d="M84.6658 33.7119V36.8953H84.5296L80.5736 33.7119H79.5703V37.3398H80.1723V34.1708H80.3085L84.2501 37.3398H85.2678V33.7119H84.6658Z" fill="#3AA1DA"/>
<path d="M37.2597 0C34.8302 0 32.8594 1.9717 32.8594 4.40226V19.7672H48.2032C50.6327 19.7672 52.6107 17.7883 52.6107 15.3577V0H37.2597Z" fill="white"/>
<path d="M33.7422 4.40221V18.8853H48.2045C50.1467 18.8853 51.7305 17.2936 51.7305 15.3505V0.881836H37.2539C35.326 0.881836 33.7422 2.46636 33.7422 4.40221ZM38.7087 16.0317H35.8922V13.3788H38.7087V16.0317ZM49.5877 12.7622C49.5877 13.3645 49.5375 13.8807 49.43 14.2966C49.3225 14.7124 49.1147 15.0494 48.8065 15.3075C48.4984 15.5656 48.0755 15.752 47.538 15.8668C47.0005 15.9815 46.8142 16.0388 45.947 16.0388H40.9949V13.386H45.517C45.9685 13.386 46.291 13.3071 46.4702 13.1566C46.6494 13.006 46.7425 12.7192 46.7425 12.2962V11.8875C46.7425 11.4358 46.6565 11.149 46.4845 11.0343C46.3125 10.9196 46.0187 10.8622 45.6102 10.8622H40.9949V8.58941H46.248C47.0364 8.58941 47.1654 8.65393 47.667 8.78299C48.1687 8.91205 48.5557 9.1128 48.8495 9.39242C49.1434 9.67205 49.3369 10.0377 49.4372 10.4822C49.5447 10.9268 49.5949 11.4788 49.5949 12.1313V12.7622H49.5877ZM38.8234 3.72825H49.4372V6.29504H39.6404C39.3107 6.29504 39.067 6.3524 38.9237 6.47429C38.7804 6.59618 38.7087 6.81127 38.7087 7.13391V7.24865H38.7015V10.8622C38.0135 10.8622 37.9562 10.7905 37.5262 10.6543C37.0962 10.5181 36.7594 10.3173 36.5157 10.0449C36.272 9.77242 36.1072 9.43544 36.0284 9.03393C35.9424 8.63242 35.9065 8.15922 35.9065 7.61431V6.68221C35.9065 6.15165 35.9639 5.69995 36.0785 5.31995C36.1932 4.93995 36.3795 4.63882 36.6375 4.40221C36.8955 4.16561 37.2395 3.99353 37.6839 3.89316C38.121 3.78561 38.1569 3.72825 38.8234 3.72825Z" fill="#3AA1DA"/>
</g>
<defs>
<clipPath id="clip0_1412_20908">
<rect width="86" height="38" fill="white"/>
</clipPath>
</defs>
</svg>
