<svg width="111" height="111" viewBox="0 0 111 111" fill="none" xmlns="http://www.w3.org/2000/svg">
<rect y="0.177734" width="111" height="110" fill="white"/>
<g clip-path="url(#clip0_1412_21383)">
<path fill-rule="evenodd" clip-rule="evenodd" d="M56.7207 75.1777H55.2307C54.8391 75.1777 54.4624 75.0461 54.2041 74.8144L52.2257 73.5111H59.7257L57.7457 74.8144C57.4891 75.0461 57.1124 75.1777 56.7207 75.1777ZM59.7957 71.8444H52.1991C51.7391 71.8444 51.3657 71.4727 51.3657 71.0111C51.3657 70.5511 51.7391 70.1777 52.1991 70.1777H59.7957C60.2557 70.1777 60.6291 70.5511 60.6291 71.0111C60.6291 71.4727 60.2557 71.8444 59.7957 71.8444ZM57.2841 68.5111C57.5374 60.6694 62.6657 57.0077 62.6657 53.0861C62.6657 49.1927 59.6174 46.8444 56.0124 46.8444C52.7241 46.8444 49.3307 48.8977 49.3307 53.1011C49.3307 57.0127 54.6457 61.4394 54.7057 68.5111H51.3541C51.3274 61.8561 45.9974 59.1161 45.9974 53.0877C45.9974 47.1927 50.7257 43.4661 56.1107 43.5111C61.5891 43.5994 66.0007 47.4177 66.0007 53.0894C66.0007 59.1327 60.6857 61.7194 60.6424 68.5111H57.2841ZM68.8957 56.4627L73.3941 58.5027L72.0157 61.5394L67.6891 59.5777C68.1907 58.5777 68.6057 57.5527 68.8957 56.4627ZM43.1007 56.4627C43.3891 57.5694 43.7924 58.5644 44.2991 59.5794L39.9791 61.5394L38.6007 58.5027L43.1007 56.4627ZM74.3307 53.5111H69.3257C69.3607 52.3944 69.2591 51.2694 69.0174 50.1777H74.3307V53.5111ZM42.6691 53.5111H37.6641V50.1777H42.9757C42.7374 51.2677 42.6374 52.3877 42.6691 53.5027V53.5111ZM66.0691 44.4644L70.2107 41.5261L72.1407 44.2444L67.9657 47.2061C67.4791 46.2361 66.8491 45.3194 66.0691 44.4644ZM45.9241 44.4627C45.1574 45.3011 44.5291 46.2127 44.0274 47.2044L39.8557 44.2444L41.7841 41.5261L45.9241 44.4627ZM60.7057 40.9761L62.9174 36.4927L65.9057 37.9677L63.6941 42.4511C62.7657 41.8394 61.7591 41.3444 60.7057 40.9761ZM51.2874 40.9727C50.2357 41.3394 49.2274 41.8327 48.2974 42.4461L46.0874 37.9677L49.0774 36.4927L51.2874 40.9727ZM57.6641 40.2794C56.5507 40.1494 55.4824 40.1427 54.3307 40.2744V35.1777H57.6641V40.2794Z" fill="#065393"/>
</g>
<defs>
<clipPath id="clip0_1412_21383">
<rect width="40" height="40" fill="white" transform="translate(36 35.1777)"/>
</clipPath>
</defs>
</svg>
