<svg width="111" height="110" viewBox="0 0 111 110" fill="none" xmlns="http://www.w3.org/2000/svg">
<rect width="111" height="110" fill="#DAEEFA"/>
<path d="M54.9386 35.111C54.8207 35.1646 54.4346 35.5399 54.0808 35.9581L53.4589 36.7194H44.9449C36.0557 36.7194 35.9163 36.7302 35.348 37.1913C35.1228 37.3843 28.8178 47.2064 28.3567 48.0964C28.1315 48.5467 28.1744 48.9006 28.5175 49.2866L28.8285 49.6405L30.7157 49.6726L32.6029 49.7048V58.2724C32.6029 63.2478 32.56 66.8614 32.5064 66.8935C32.3027 67.0222 31.6593 68.1052 31.4985 68.6092C31.3912 68.8987 31.3162 69.4456 31.3162 69.8101V70.475L30.8873 70.55C29.9865 70.7001 29.6005 71.3113 29.6005 72.5659V73.3701L28.9893 73.413C28.5282 73.4559 28.3352 73.5202 28.1851 73.7133C27.917 74.0457 27.9385 74.421 28.2602 74.7319L28.5175 75H55.4426H82.3676L82.625 74.7319C82.9467 74.421 82.9681 74.0457 82.6893 73.7025C82.4856 73.4452 82.4427 73.4452 80.3839 73.413L78.2822 73.3809V61.5428V49.7048L80.1695 49.6726L82.0567 49.6405L82.3676 49.2866C82.7108 48.9006 82.7537 48.5467 82.5285 48.0964C82.0674 47.2064 75.7624 37.3843 75.5372 37.1913C74.9689 36.7302 74.8295 36.7194 65.9402 36.7194H57.4263L56.8044 35.9581C56.0323 35.036 55.6034 34.8429 54.9386 35.111ZM60.6646 43.121C63.4847 46.5201 65.8759 49.4153 65.9831 49.5547L66.1761 49.8013H65.4792H64.7822L60.4073 44.515C57.9839 41.5983 55.8929 39.175 55.7321 39.0999C55.4962 38.982 55.389 38.982 55.1531 39.0999C54.9922 39.175 52.9013 41.5983 50.4779 44.515L46.103 49.8013H45.3953C44.7305 49.8013 44.6983 49.7906 44.8484 49.6083C44.9342 49.5118 47.3361 46.6166 50.1777 43.1746C53.0299 39.7433 55.389 36.9339 55.4426 36.9339C55.4962 36.9339 57.8445 39.7218 60.6646 43.121ZM52.0113 38.3922C52.0113 38.4244 51.8397 38.671 51.6252 38.9284L51.2392 39.4002H47.3897C43.6796 39.4002 43.5295 39.4109 43.3258 39.6146C43.0362 39.9041 43.047 40.4832 43.3365 40.7512C43.5402 40.9442 43.8083 40.955 46.7142 41.0086L49.856 41.0622L49.3198 41.6734L48.773 42.2953H41.3849C37.321 42.2953 33.9969 42.2632 33.9969 42.231C33.9969 42.1988 34.147 41.9093 34.34 41.5983L34.6832 41.0193L37.5462 40.9871C40.184 40.955 40.4306 40.9442 40.6343 40.7512C40.9238 40.4832 40.9346 39.9041 40.6451 39.6146C40.4413 39.4109 40.2912 39.4002 38.1252 39.4002C36.8599 39.4002 35.8198 39.3573 35.8198 39.3144C35.8198 39.2608 35.9699 39.0141 36.1415 38.7782L36.4631 38.3279H44.2372C48.5156 38.3279 52.0113 38.36 52.0113 38.3922ZM74.7437 38.7782C74.9153 39.0141 75.0654 39.2608 75.0654 39.3144C75.0654 39.3573 71.6019 39.4002 67.3557 39.4002H59.6459L59.2599 38.9284C59.0455 38.671 58.8739 38.4244 58.8739 38.3922C58.8739 38.36 62.3695 38.3279 66.648 38.3279H74.422L74.7437 38.7782ZM76.5451 41.5876C76.7274 41.9093 76.8883 42.1988 76.8883 42.231C76.8883 42.2632 73.5642 42.2953 69.511 42.2953H62.1336L61.812 41.9415C61.6404 41.7592 61.383 41.4697 61.2436 41.2981L60.9863 41.0086H68.5888H76.1913L76.5451 41.5876ZM59.5065 45.9625L63.4847 50.7556V55.345C63.4847 60.2346 63.4954 60.3419 64.0101 60.5885C64.3211 60.7493 64.8358 60.5992 64.9859 60.3097C65.0502 60.1918 65.0931 58.3903 65.0931 55.7632V51.4312L66.4978 51.3883C67.8811 51.3561 67.9025 51.3561 68.1599 51.0559C68.4279 50.7342 68.4923 50.2517 68.31 49.9085C68.2028 49.7155 68.2778 49.7048 69.9077 49.6726C71.4089 49.6405 71.6448 49.619 71.8378 49.4367C72.1273 49.1687 72.138 48.5896 71.8485 48.3001C71.6448 48.0964 71.4947 48.0857 69.2429 48.0857H66.8517L66.4871 47.6246C66.2727 47.378 66.0475 47.0884 65.9617 46.9812C65.8223 46.8096 66.1654 46.7989 72.835 46.7989H79.8478L80.1909 47.3672C80.3839 47.6782 80.534 47.9677 80.534 48.0106C80.534 48.0535 79.258 48.0857 77.6925 48.0857C74.9903 48.0857 74.8402 48.0964 74.6365 48.3001C74.347 48.5896 74.3577 49.1687 74.6472 49.4367C74.8188 49.5976 75.0761 49.6512 75.7731 49.6834L76.6738 49.7155V61.5536V73.3916H70.8835H65.0931V68.4055V63.4086L64.8251 63.1513C64.6857 63.0011 64.4927 62.8832 64.4069 62.8832C64.1066 62.8832 63.7206 63.1191 63.6027 63.3872C63.5169 63.5587 63.4847 65.1779 63.4847 68.5127V73.3916H61.9835H60.4823V66.9579C60.4823 59.8593 60.493 59.9773 59.8175 59.5591C59.4744 59.3554 59.2921 59.3446 55.4426 59.3446C51.5931 59.3446 51.4108 59.3554 51.0677 59.5591C50.3921 59.9773 50.4028 59.8593 50.4028 66.9579V73.3916H48.9016H47.4004V62.0683V50.7556L51.4001 45.9411C53.5875 43.2818 55.4211 41.1265 55.464 41.148C55.5069 41.1587 57.3298 43.3247 59.5065 45.9625ZM47.4004 43.9681C47.4004 44.0003 47.1753 44.2898 46.9072 44.6115L46.4139 45.1905H39.294C35.3801 45.1905 32.174 45.1583 32.174 45.1262C32.174 45.094 32.3349 44.8045 32.5171 44.4828L32.871 43.9038H40.1304C44.13 43.9038 47.4004 43.9359 47.4004 43.9681ZM78.368 44.4828C78.5503 44.8045 78.7112 45.094 78.7112 45.1262C78.7112 45.1583 75.505 45.1905 71.5912 45.1905H64.4712L63.978 44.6115C63.7099 44.2898 63.4847 44.0003 63.4847 43.9681C63.4847 43.9359 66.7552 43.9038 70.7548 43.9038H78.0142L78.368 44.4828ZM44.9235 46.9812C44.8377 47.0884 44.6125 47.378 44.3981 47.6246L44.0335 48.0857H37.1923C33.4286 48.0857 30.3511 48.0535 30.3511 48.0106C30.3511 47.9677 30.5012 47.6782 30.6943 47.3672L31.0374 46.7989H38.0501C44.7197 46.7989 45.0629 46.8096 44.9235 46.9812ZM42.5752 49.8978C42.3714 50.2838 42.4465 50.82 42.7467 51.0988C43.0041 51.3347 43.1113 51.3561 44.4088 51.3883L45.792 51.4312V58.4975C45.792 62.3792 45.7813 65.5639 45.7706 65.5639C45.7491 65.5639 45.4703 65.4567 45.1486 65.3387C44.7197 65.1672 44.3337 65.1028 43.7011 65.1028C42.4572 65.1135 41.7602 65.4031 40.8595 66.2931L40.1625 66.99L39.3905 67.0115C38.8007 67.0329 38.5755 67.0008 38.479 66.8721C38.2217 66.5718 37.2566 66.0143 36.6776 65.8427C36.0342 65.6497 35.0906 65.6175 34.5545 65.7676L34.2113 65.8749V57.7791V49.6941H38.4469C42.6073 49.6941 42.6931 49.6941 42.5752 49.8978ZM58.8739 67.1723V73.3916H55.4426H52.0113V67.1723V60.9531H55.4426H58.8739V67.1723ZM44.8484 66.9686C45.0629 67.0865 45.3738 67.301 45.5239 67.4618C45.7813 67.7514 45.792 67.8157 45.792 69.1239V70.4964H41.8675H37.9322L37.9965 70.046C38.1145 69.1989 38.7686 68.6092 39.5513 68.6521C39.8301 68.6628 40.2698 68.6842 40.5378 68.7057C40.9989 68.7271 41.0204 68.7164 41.3528 68.2124C41.964 67.2903 42.4143 66.9257 43.1649 66.7327C43.6046 66.6255 44.3766 66.7327 44.8484 66.9686ZM36.6562 67.5583C36.9671 67.7085 37.2137 67.88 37.2137 67.9444C37.2137 67.998 37.0851 68.2124 36.935 68.4055C36.624 68.8236 36.3559 69.6064 36.3559 70.1426V70.4964H34.6403H32.9246V69.9066C32.9246 67.9229 34.8976 66.6791 36.6562 67.5583ZM45.7706 72.7696L45.8027 73.3916H38.5005H31.209V72.8233C31.209 72.5016 31.2411 72.2121 31.284 72.1799C31.3162 72.137 34.5866 72.1156 38.5434 72.1263L45.7384 72.1584L45.7706 72.7696Z" fill="#065393"/>
<path d="M54.3058 47.0562C53.3729 47.2814 52.6545 47.9247 52.1934 48.9112C51.9789 49.383 51.9575 49.5868 51.9575 51.4204C51.9575 54.4013 51.8395 54.3048 55.4424 54.3048C59.0453 54.3048 58.9273 54.4013 58.9273 51.4204C58.9273 49.5868 58.9059 49.383 58.6914 48.9112C58.5627 48.6324 58.3483 48.2679 58.2303 48.1177C57.4369 47.0991 55.8606 46.6809 54.3058 47.0562ZM56.5897 48.7933C57.2546 49.2973 57.3189 49.4688 57.3511 51.1523L57.394 52.6964H55.4531H53.5123V51.3775C53.5123 49.9299 53.5981 49.4688 53.9626 49.0721C54.3594 48.6432 54.7776 48.5038 55.5711 48.5467C56.0965 48.5681 56.3753 48.6324 56.5897 48.7933Z" fill="#065393"/>
<path d="M68.3839 53.8116C68.1801 54.0046 67.9871 54.3263 67.9442 54.5193C67.837 55.0876 67.8692 62.6793 67.9871 63.1083C68.0407 63.312 68.2445 63.623 68.4267 63.8052L68.7484 64.1162H70.8287H72.9089L73.2306 63.8052C73.4129 63.623 73.6166 63.312 73.6702 63.1083C73.7882 62.6793 73.8203 55.0876 73.7131 54.5193C73.6702 54.3263 73.4772 54.0046 73.2735 53.8116L72.9089 53.447H70.8287H68.7484L68.3839 53.8116ZM72.169 58.8084V62.5614H70.8287H69.4883V58.8084V55.0554H70.8287H72.169V58.8084Z" fill="#065393"/>
<path d="M37.6104 53.8116C37.4067 54.0046 37.2137 54.3263 37.1708 54.5193C37.0636 55.0876 37.0957 62.6793 37.2137 63.1083C37.2673 63.312 37.471 63.623 37.6533 63.8052L37.975 64.1162H40.0552H42.1355L42.4571 63.8052C42.6394 63.623 42.8432 63.312 42.8968 63.1083C43.0147 62.6793 43.0469 55.0876 42.9397 54.5193C42.8968 54.3263 42.7038 54.0046 42.5 53.8116L42.1355 53.447H40.0552H37.975L37.6104 53.8116ZM41.3956 58.8084V62.5614H40.0552H38.7149V58.8084V55.0554H40.0552H41.3956V58.8084Z" fill="#065393"/>
<path d="M53.0306 65.4568C52.6338 65.607 52.5159 65.875 52.4623 66.7221C52.4086 67.7622 52.5909 68.3627 53.0091 68.5021C53.4809 68.6737 53.867 68.47 54.0278 67.9767C54.2423 67.3441 54.1458 65.9394 53.8777 65.6713C53.6203 65.4247 53.2986 65.3389 53.0306 65.4568Z" fill="#065393"/>
</svg>
