<svg width="111" height="110" viewBox="0 0 111 110" fill="none" xmlns="http://www.w3.org/2000/svg">
<rect width="111" height="110" fill="white"/>
<g clip-path="url(#clip0_1453_20913)">
<path d="M38.9468 35.4603C38.5093 35.7259 38.439 35.9134 38.439 36.8822C38.439 37.8431 38.5328 38.0853 38.9937 38.3197L39.2203 38.4447V40.7728V43.1009L37.3687 44.5306C36.3453 45.3197 35.4156 46.0462 35.2984 46.1556C35.0249 46.4056 34.9468 46.7806 35.1031 47.0775C35.2906 47.4447 36.1734 48.5462 36.3531 48.6478C36.7828 48.89 36.9624 48.804 38.3453 47.7181L38.8296 47.3275V56.8509V66.3822L38.4468 66.6322C38.2281 66.765 37.9078 67.0462 37.7281 67.2494C37.4234 67.5853 36.9546 68.4369 36.9546 68.64C36.9546 68.6869 36.8453 68.7728 36.7203 68.8275C36.0718 69.0931 35.4703 70.0306 35.4703 70.7572C35.4703 71.0306 35.4156 71.2572 35.314 71.4212C35.1812 71.6478 35.1578 71.8197 35.1578 72.8119C35.1578 73.7962 35.1812 73.9759 35.314 74.1947C35.6343 74.7259 33.9781 74.6869 54.5171 74.6869H73.1031L73.2671 74.5072C73.4937 74.265 73.4859 73.9447 73.2437 73.7103C73.064 73.5228 73.0093 73.515 72.1109 73.515H71.1734V67.89C71.1734 64.7962 71.1812 62.265 71.1968 62.265C71.2124 62.265 71.6031 62.5619 72.0718 62.9212C72.5328 63.2806 73.0015 63.5931 73.1109 63.6165C73.5093 63.6947 73.7515 63.5228 74.3453 62.7181C75.0171 61.8119 75.0874 61.6322 74.8765 61.2806C74.7828 61.1244 72.4468 59.265 68.5953 56.2806C65.2203 53.6712 62.3296 51.4525 62.1656 51.3431C61.7906 51.0931 61.1656 51.0306 60.7828 51.1947C60.6343 51.2572 60.0718 51.6478 59.5328 52.0619L58.5562 52.8197L58.5171 51.8822C58.4703 50.8197 58.3843 50.6244 57.9156 50.6244C57.4312 50.6244 57.3921 50.7572 57.3453 52.3665L57.3062 53.7884L52.7437 57.3197C50.2359 59.2572 48.0718 60.9525 47.939 61.0853C47.7515 61.2728 47.6968 61.3978 47.6968 61.6322C47.6968 61.89 47.7906 62.0462 48.2828 62.6947C48.8921 63.4837 49.1656 63.6869 49.5406 63.6165C49.6499 63.5931 52.3531 61.5619 55.5406 59.0931L61.3374 54.6087L65.6499 57.9525L69.9624 61.2962L69.9859 67.4056L70.0015 73.515H67.6656H65.3374L65.2984 72.8353C65.2671 72.2572 65.2359 72.14 65.0874 72.015C64.8531 71.8275 64.4937 71.8353 64.2984 72.0306C64.1656 72.1634 64.1421 72.2884 64.1421 72.8509V73.515H61.3687H58.5953V69.0228V64.5306L61.3531 64.5462L64.1031 64.5697L64.1421 67.2884C64.1812 69.8665 64.189 70.015 64.3296 70.1244C64.7046 70.39 65.1812 70.1634 65.2749 69.6712C65.2984 69.5306 65.314 68.2103 65.2984 66.7415C65.2749 64.1869 65.2671 64.0619 65.1109 63.8509C64.7515 63.3587 64.7281 63.3587 61.3453 63.3587C58.0171 63.3587 57.9234 63.3665 57.5953 63.7884L57.4234 64.0072V68.7572V73.515H55.2046H52.9859L52.9624 72.5931C52.939 71.8665 52.8999 71.6244 52.7906 71.4603C52.5718 71.1244 52.2046 70.9369 51.7671 70.9369H51.3843L51.439 70.5619C51.5562 69.6244 51.1187 68.39 50.4078 67.679C48.9859 66.2572 46.7515 66.1947 45.3218 67.5384C44.9624 67.8744 44.9546 67.8822 44.6109 67.804C44.4156 67.7572 44.0953 67.7494 43.8999 67.7728C43.5406 67.8197 43.5406 67.8197 43.2437 67.4369C42.5796 66.5619 41.4703 66.015 40.3531 66.015H40.0015V56.2259V46.4369L44.2749 43.1244C46.6343 41.3119 48.6031 39.8197 48.6578 39.8119C48.7124 39.804 50.689 41.2962 53.0484 43.1244L57.3453 46.4447V47.554C57.3453 48.5697 57.3609 48.6869 57.5015 48.8275C57.7593 49.0853 58.0874 49.0619 58.3453 48.7806C58.4937 48.6087 58.5171 48.4994 58.5171 47.9681V47.3431L59.4234 48.0462C60.6968 49.0384 60.7984 49.0228 61.7671 47.7181C62.2046 47.14 62.3062 46.9525 62.3062 46.7181C62.3062 46.554 62.2515 46.3665 62.1968 46.2962C62.0484 46.1165 49.5718 36.4681 49.314 36.3353C49.0015 36.1712 48.2749 36.1947 47.9624 36.3822C47.814 36.4603 46.9781 37.0931 46.0953 37.7728C45.2124 38.4525 44.4468 39.0462 44.3999 39.0853C44.3218 39.14 44.2984 39.0775 44.2984 38.7962C44.2984 38.4915 44.3296 38.4212 44.4781 38.3665C44.7671 38.2494 44.9937 37.9837 45.0874 37.6322C45.2124 37.1556 45.1421 36.1087 44.9624 35.7962C44.6812 35.3275 44.5874 35.3119 41.7437 35.3119C39.3843 35.3119 39.1656 35.3275 38.9468 35.4603ZM43.9859 36.8744V37.265H41.7984H39.6109V36.8744V36.4837H41.7984H43.9859V36.8744ZM49.5484 37.9525C53.189 40.7337 60.8999 46.7494 60.9156 46.8197C60.9312 46.8744 60.8374 47.0228 60.7203 47.1634L60.5093 47.4134L54.7671 42.9681C51.6109 40.515 48.9468 38.4915 48.8531 38.4681C48.7515 38.4447 48.5953 38.4369 48.5015 38.4681C48.3999 38.4915 46.0015 40.3119 43.1656 42.5072C40.3296 44.7025 37.7359 46.7103 37.4078 46.9603L36.8062 47.4212L36.5718 47.1165L36.3296 46.8119L42.3218 42.179C48.0484 37.7415 48.564 37.3509 48.689 37.3431C48.7203 37.3431 49.1109 37.6165 49.5484 37.9525ZM43.1265 39.2572V40.0697L41.8218 41.0931C41.0953 41.6478 40.4859 42.1087 40.4546 42.1087C40.4156 42.1087 40.3921 41.2806 40.3921 40.2728V38.4369H41.7593H43.1265V39.2572ZM62.6734 53.1869C68.1578 57.4212 73.3453 61.4447 73.4703 61.5619C73.6187 61.7103 73.6187 61.7103 73.4312 61.9837C73.3296 62.14 73.2203 62.265 73.189 62.265C73.1656 62.265 70.5484 60.2572 67.3843 57.8119C64.2124 55.3587 61.5484 53.3353 61.4468 53.3119C61.3453 53.2884 61.189 53.3119 61.0953 53.3587C61.0015 53.4134 58.3609 55.4369 55.2281 57.8587C52.0953 60.2806 49.5015 62.265 49.4703 62.265C49.439 62.2572 49.3218 62.1322 49.2046 61.9759L48.9937 61.6947L49.1656 61.5619C57.0328 55.4603 61.2203 52.265 61.3296 52.265C61.4078 52.265 62.0171 52.679 62.6734 53.1869ZM41.3921 67.4212C41.8453 67.6165 42.3999 68.1634 42.6499 68.6634C42.8765 69.1009 43.0953 69.179 43.6499 69.015C44.3609 68.8119 45.0406 69.0384 45.4468 69.6322C45.6265 69.89 45.6656 70.0306 45.6656 70.4212V70.8978L44.9859 70.9369C44.4703 70.9681 44.2749 71.0072 44.1499 71.1244C43.9546 71.2962 43.9312 71.6947 44.0953 71.9212C44.2046 72.0619 44.3609 72.0697 47.9859 72.1087L51.7593 72.1478L51.7828 72.8275L51.8062 73.515H44.064H36.3296V72.8119V72.1087H39.1421C41.8531 72.1087 41.9624 72.1009 42.1109 71.9525C42.3453 71.7181 42.3218 71.304 42.064 71.1009C41.8609 70.9447 41.7671 70.9369 39.2515 70.9369H36.6421V70.7259C36.6421 70.4134 37.0015 70.0072 37.4624 69.804C37.8765 69.6165 37.8921 69.6009 38.1265 68.8665C38.5562 67.5228 40.0718 66.8509 41.3921 67.4212ZM48.8296 67.9837C49.8296 68.4447 50.4156 69.4994 50.2671 70.5619L50.2203 70.9369H48.5562H46.8999L46.8609 70.3665C46.8218 69.7415 46.6265 69.2181 46.2515 68.7494L46.0093 68.4447L46.3765 68.1947C46.5796 68.0619 46.8843 67.8978 47.064 67.8431C47.5484 67.679 48.3218 67.7415 48.8296 67.9837Z" fill="#065393"/>
<path d="M45.2269 44.1953C45.1097 44.2656 44.9534 44.4297 44.8753 44.5625C44.7347 44.7891 44.7269 45.0547 44.7269 49.8828C44.7269 55.5391 44.6956 55.2031 45.2581 55.5469C45.4925 55.6953 45.6722 55.7031 48.6175 55.7031C52.0159 55.7031 52.0941 55.6953 52.4144 55.25C52.5784 55.0156 52.5784 55.0078 52.5784 49.8828C52.5784 45.2734 52.5628 44.7266 52.4534 44.5313C52.1722 44.0547 52.2034 44.0625 48.6566 44.0625C45.8128 44.0703 45.4066 44.0781 45.2269 44.1953ZM48.0472 46.4453V47.6563H46.9925H45.9378V46.4453V45.2344H46.9925H48.0472V46.4453ZM51.4066 46.4453V47.6641L50.3363 47.6406L49.2581 47.6172L49.2347 46.4219L49.2113 45.2344H50.3128H51.4066V46.4453ZM48.0472 49.8828V50.9375H46.9925H45.9378V49.8828V48.8281H46.9925H48.0472V49.8828ZM51.4066 49.8828V50.9375H50.3128H49.2191V49.8828V48.8281H50.3128H51.4066V49.8828ZM48.0472 53.3203V54.5313H46.9925H45.9378V53.3203V52.1094H46.9925H48.0472V53.3203ZM51.4066 53.3203V54.5391L50.3363 54.5156L49.2581 54.4922L49.2347 53.3984C49.2269 52.8047 49.2347 52.2656 49.2503 52.2109C49.2816 52.1328 49.555 52.1094 50.3519 52.1094H51.4066V53.3203Z" fill="#065393"/>
<path d="M59.2578 67.5156C58.9453 67.6797 58.9062 67.8125 58.9062 68.7188C58.9062 69.4766 58.9297 69.6172 59.0703 69.7969C59.2891 70.0781 59.6953 70.0781 59.9141 69.7969C60.0547 69.6172 60.0781 69.4844 60.0781 68.7188C60.0703 67.8203 60.0312 67.6797 59.7109 67.5156C59.5078 67.4062 59.4609 67.4062 59.2578 67.5156Z" fill="#065393"/>
</g>
<defs>
<clipPath id="clip0_1453_20913">
<rect width="40" height="40" fill="white" transform="translate(35 35)"/>
</clipPath>
</defs>
</svg>
