<svg width="111" height="110" viewBox="0 0 111 110" fill="none" xmlns="http://www.w3.org/2000/svg">
<rect width="111" height="110" fill="#DAEEFA"/>
<path d="M51.4837 36.8984C51.0227 37.0625 50.9134 37.3672 50.968 38.4375C50.9915 38.9297 51.0384 39.4375 51.0618 39.5625C51.1087 39.7734 51.1009 39.7891 50.929 39.7344C50.093 39.4844 49.0852 39.6484 48.3587 40.1484C47.468 40.7578 47.054 41.6562 47.1321 42.8281C47.1712 43.4531 47.1634 43.5156 47.0384 43.5156C46.7805 43.5156 45.9759 43.9766 45.6477 44.3125C45.0071 44.9844 44.679 45.9766 44.8352 46.8203C44.9134 47.2578 44.8977 47.3438 44.718 47.3438C44.4602 47.3438 43.7337 47.7656 43.3821 48.1094C42.6477 48.8516 42.3274 50 42.6087 50.9531C42.7571 51.4766 42.7571 51.4844 42.6399 51.4844C42.3899 51.4844 41.6868 51.8984 41.3665 52.2344C40.4524 53.1641 40.2493 54.5 40.8352 55.6562C40.9524 55.8984 41.3977 56.4219 41.9602 56.9922L42.8821 57.9375L39.1712 61.6406C37.1243 63.6797 35.3509 65.4922 35.2259 65.6562C34.9446 66.0312 34.9368 66.3203 35.1946 66.625C35.429 66.9062 35.7415 66.9922 36.0618 66.875C36.1946 66.8281 37.9524 65.125 40.1946 62.8828L44.1087 58.9766L44.4524 59.1328C44.9446 59.3438 45.4446 59.3984 45.9759 59.3047C47.3196 59.0547 48.304 58.0469 48.4134 56.7969C48.4602 56.3359 48.4602 56.3281 48.718 56.2891C48.8665 56.2656 49.1009 56.2344 49.2415 56.2109C49.679 56.1406 50.2649 55.8203 50.6477 55.4297C51.1634 54.9141 51.4134 54.3984 51.5227 53.5859L51.5696 53.2266L52.0384 53.1797C52.9212 53.1016 53.843 52.4609 54.2571 51.6328C54.3665 51.4297 54.4915 51.0078 54.5462 50.7031L54.6399 50.1562H54.9212C55.8665 50.1484 56.9055 49.4219 57.3743 48.4375C57.593 47.9844 57.6165 47.8516 57.6165 47.2188C57.6165 46.5469 57.6009 46.4688 57.3196 45.9297L57.0227 45.3516L59.7415 42.6484C62.6555 39.7422 62.7415 39.6719 63.3821 39.7969C63.9915 39.9141 64.5305 40.5469 64.5305 41.1484C64.5305 41.6875 64.3196 41.9609 62.343 43.9453C60.4368 45.8594 60.3899 45.9141 60.3899 46.2266C60.3899 46.7578 60.9134 47.125 61.3977 46.9375C61.5149 46.8984 62.304 46.1719 63.1634 45.3203C64.8587 43.6406 65.0149 43.5312 65.6712 43.6328C66.054 43.6875 66.4915 44.0156 66.6868 44.3828C66.8196 44.6406 66.8274 45.2109 66.7102 45.5234C66.6712 45.6406 65.9134 46.4688 65.0305 47.3516C63.3274 49.0703 63.2884 49.125 63.5227 49.6406C63.6399 49.8984 64.0852 50.1094 64.3587 50.0391C64.4837 50.0078 65.0618 49.5078 65.7493 48.8203C66.429 48.1562 67.054 47.6094 67.218 47.5391C68.0071 47.2109 68.9524 47.7188 69.1087 48.5703C69.218 49.1406 69.0462 49.4062 67.7649 50.7109C67.0774 51.4141 66.5462 52.0156 66.5149 52.1328C66.3743 52.7188 66.8821 53.2344 67.4602 53.0938C67.5696 53.0625 67.9915 52.7266 68.3899 52.3438C69.1712 51.6016 69.3821 51.5 70.0071 51.5859C70.9134 51.7031 71.3977 52.7891 70.9134 53.6172C70.6712 54.0156 62.804 61.8672 62.1477 62.3516C60.429 63.625 58.6243 64.3359 56.5618 64.5312C56.0071 64.5859 55.718 64.6484 55.6009 64.7422C55.5071 64.8203 53.8196 66.5 51.8587 68.4844C48.4212 71.9375 48.2805 72.0938 48.2805 72.375C48.2805 72.8047 48.6243 73.125 49.0696 73.125H49.4055L52.0774 70.4609L54.7415 67.7969L55.4759 68.1562C56.429 68.6172 57.2571 68.8281 58.3196 68.8828L59.179 68.9219L61.2884 71.0234C63.3899 73.1094 63.4055 73.125 63.7337 73.125C64.2884 73.125 64.6555 72.6094 64.4602 72.125C64.4055 72 63.343 70.8828 62.0852 69.6328L59.804 67.3594L58.7102 67.3203C57.5774 67.2812 56.9134 67.1328 56.218 66.7812L55.9212 66.625L56.1712 66.3672C56.3899 66.1406 56.4837 66.1094 56.9759 66.0625C58.6868 65.8984 60.7102 65.1797 62.2337 64.2031C63.218 63.5625 64.1165 62.7266 68.179 58.6562C72.5071 54.3125 72.5149 54.3047 72.6477 53.3359C72.8196 52.0234 72.0774 50.7188 70.8899 50.2266C70.4993 50.0625 70.4602 50.0234 70.4993 49.8438C70.5227 49.7344 70.5852 49.4531 70.6321 49.2109C70.8899 47.8828 69.9602 46.4062 68.6321 46.0156L68.3196 45.9219V45.0547C68.3196 44.2578 68.304 44.1406 68.1009 43.7344C67.9759 43.4844 67.7259 43.125 67.5305 42.9297C67.2024 42.5859 66.3587 42.1094 66.0852 42.1094C65.9759 42.1094 65.9602 42.0625 66.0227 41.8125C66.179 41.1328 66.0462 40.2891 65.6712 39.6562C65.3899 39.1719 64.7571 38.6328 64.2337 38.4297C63.6165 38.1953 62.6087 38.1797 62.1087 38.4062L61.7493 38.5703L61.2884 38.1484C61.0305 37.9141 60.5462 37.5859 60.1946 37.4141C59.0462 36.8594 59.0305 36.8516 55.1946 36.8281C52.593 36.8047 51.6868 36.8203 51.4837 36.8984ZM58.8899 38.5469C59.3821 38.7031 60.1243 39.1328 60.3665 39.3906L60.5384 39.5781L58.218 41.8984L55.8977 44.2188L54.8665 43.1875L53.8274 42.1484L55.2727 42.1719C56.468 42.1953 56.7571 42.1797 56.9759 42.0703C57.4368 41.8516 57.5696 41.2734 57.2337 40.9141C56.9837 40.6406 56.9055 40.6328 55.3118 40.6094C53.7649 40.5781 53.5618 40.5234 53.0227 39.9297C52.6555 39.5234 52.3743 38.5938 52.5618 38.4062C52.593 38.375 53.9368 38.3594 55.5462 38.375C58.0384 38.4062 58.5384 38.4297 58.8899 38.5469ZM50.5696 41.2812C50.8899 41.4219 55.8977 46.4531 56.0071 46.7422C56.4368 47.875 55.1868 49.0078 54.1165 48.4688C53.7884 48.3047 49.1868 43.7344 48.8977 43.2891C48.1634 42.1562 49.343 40.75 50.5696 41.2812ZM48.3196 45.1484C48.5227 45.2422 49.3743 46.0469 50.7493 47.4297C53.0384 49.7422 53.1087 49.8359 53.0071 50.5156C52.9524 50.8984 52.6243 51.3359 52.2571 51.5312C51.9759 51.6719 51.3977 51.6719 51.0696 51.5312C50.929 51.4688 49.843 50.4453 48.6555 49.25C46.7884 47.3672 46.4837 47.0234 46.4055 46.7344C46.1087 45.5938 47.2493 44.6484 48.3196 45.1484ZM45.9993 48.9531C46.2805 49.0625 49.0852 51.7734 49.6243 52.4453C50.3743 53.375 49.7649 54.7031 48.593 54.7031C48.3899 54.7031 48.1243 54.6484 47.9993 54.5859C47.6634 54.4062 44.2415 50.9375 44.1399 50.6797C43.7259 49.5469 44.8743 48.4766 45.9993 48.9531ZM43.8665 53.0078C44.1321 53.0625 46.5618 55.4141 46.7727 55.8125C46.8352 55.9375 46.8899 56.2031 46.8899 56.4062C46.8899 57.4844 45.718 58.1406 44.804 57.5781C44.679 57.5 44.0384 56.8906 43.3821 56.2344C42.3977 55.2344 42.1868 54.9766 42.1087 54.6953C41.8977 53.8984 42.343 53.1562 43.1555 52.9609C43.3977 52.9062 43.4368 52.9141 43.8665 53.0078Z" fill="#065393"/>
<path d="M70.0388 58.8432C69.5856 59.0932 69.4685 59.6635 69.7966 60.0228C70.3044 60.5697 71.1403 60.2182 71.1169 59.476C71.1013 58.9447 70.4919 58.5932 70.0388 58.8432Z" fill="#065393"/>
<path d="M71.7891 60.9295C71.6094 61.1092 71.5625 61.2264 71.5625 61.4842C71.5625 61.7967 71.6016 61.8514 72.5859 62.8514C73.1484 63.4295 73.7344 63.9529 73.8828 64.0232C74.2266 64.1873 74.5469 64.117 74.8047 63.8123C75.1953 63.3514 75.0313 62.9998 73.8984 61.9061C72.7734 60.8279 72.6094 60.7029 72.2969 60.7029C72.0938 60.7029 71.9609 60.7654 71.7891 60.9295Z" fill="#065393"/>
</svg>
