<svg width="111" height="110" viewBox="0 0 111 110" fill="none" xmlns="http://www.w3.org/2000/svg">
<rect width="111" height="110" fill="white"/>
<g clip-path="url(#clip0_1471_20911)">
<path d="M51.4464 36.4062C48.8526 36.4375 48.5245 36.4609 48.337 36.5859C48.0089 36.7969 47.8995 37.0234 47.7745 37.7734C47.5557 39.0312 47.0792 39.9453 46.212 40.7656C45.9073 41.0547 45.4386 41.4062 45.1573 41.5547C43.8448 42.2344 43.712 42.5703 44.0245 44.375C45.0401 50.2656 48.0089 55.0391 52.4229 57.9141C53.5479 58.6406 54.7432 59.2422 55.0792 59.2422C55.5479 59.2422 57.4229 58.1875 58.712 57.1953C61.8448 54.7969 64.2042 51.1797 65.3839 46.9922C65.8604 45.2656 66.2042 43.0859 66.0636 42.5547C65.9854 42.2188 65.6339 41.8828 65.087 41.6094C63.4151 40.7656 62.4854 39.5 62.1495 37.6328C62.0245 36.9453 61.8448 36.6406 61.4542 36.4531C61.2198 36.3438 60.7823 36.3281 57.7589 36.3438C55.8761 36.3516 53.0323 36.3828 51.4464 36.4062ZM60.9776 37.7891C61.337 39.9062 62.5089 41.5625 64.3214 42.5078C64.9073 42.8125 64.9229 42.8281 64.9229 43.1094C64.9229 43.5703 64.6339 45.1953 64.3839 46.1719C63.1729 50.8438 60.6886 54.5 57.087 56.9062C56.6807 57.1719 56.0714 57.5391 55.7198 57.7188L55.087 58.0547L54.5948 57.8047C49.5792 55.2969 46.0557 50.0938 45.1339 43.8281C45.0714 43.4219 45.0323 43.0469 45.0557 43C45.0714 42.9531 45.2511 42.8359 45.4542 42.7422C47.3292 41.8281 48.6026 40.0547 48.9464 37.875L48.9932 37.5781L51.6651 37.5547C53.1339 37.5469 55.8214 37.5312 57.6339 37.5156L60.9307 37.5L60.9776 37.7891Z" fill="#065393"/>
<path d="M53.4543 38.5936L50.1418 38.6327L49.9231 38.8749C49.8059 39.0155 49.6418 39.3124 49.5715 39.5389C49.1184 40.9139 48.0715 42.2811 46.8137 43.1249C46.5871 43.2811 46.3528 43.5155 46.2825 43.6639C46.1575 43.9217 46.1653 43.9764 46.3606 44.953C46.6028 46.1249 46.6809 46.3202 46.9621 46.4764C47.134 46.5702 47.2121 46.5702 47.3996 46.4921C47.8059 46.328 47.8371 46.1249 47.6184 45.2108C47.509 44.7733 47.4231 44.3592 47.4231 44.2889C47.4231 44.2186 47.6106 44.0155 47.845 43.8358C48.9856 42.953 50.0559 41.5624 50.5168 40.3514L50.7434 39.7655H53.095C54.384 39.7655 56.2903 39.7421 57.3137 39.7108L59.1887 39.6639L59.3371 40.0467C59.9387 41.6561 60.9465 42.8983 62.5793 44.0467C62.595 44.0546 62.5325 44.4686 62.4309 44.9452C62.22 45.9764 62.2356 46.1405 62.5168 46.3514C62.6887 46.4842 62.7746 46.4999 62.9387 46.4374C63.2903 46.3202 63.4231 46.0311 63.6418 44.9139C63.8371 43.8983 63.845 43.8436 63.72 43.578C63.634 43.3983 63.3996 43.1796 63.0637 42.9452C62.4621 42.5389 61.595 41.6874 61.2434 41.1639C60.9387 40.7186 60.4387 39.7342 60.3137 39.3358C60.0793 38.6014 59.8371 38.5077 58.1106 38.5311C57.3684 38.5389 55.2746 38.5702 53.4543 38.5936Z" fill="#065393"/>
<path d="M58.3359 43.4453C58.2578 43.4922 57.3906 44.7422 56.4062 46.2266L54.625 48.9297L53.625 47.9688C53.0703 47.4453 52.5391 46.9844 52.4453 46.9453C52.0938 46.8125 51.7188 47.0859 51.7188 47.4766C51.7188 47.7813 51.7734 47.8438 53.3516 49.3281C54.3125 50.2344 54.5156 50.3906 54.7266 50.3906C54.8828 50.3906 55.0312 50.3281 55.1328 50.2109C55.5078 49.8125 59.2188 44.0938 59.2188 43.9219C59.2188 43.8281 59.1328 43.6563 59.0234 43.5547C58.8203 43.3516 58.5703 43.3125 58.3359 43.4453Z" fill="#065393"/>
<path d="M61.6953 47.8984C61.6172 47.9452 61.3672 48.3749 61.1406 48.8515C59.875 51.5468 58.1016 53.6327 55.8047 55.1327C55.4609 55.3593 55.125 55.5468 55.0625 55.5468C54.8984 55.5468 53.5469 54.6484 52.8906 54.1015C51.2656 52.7421 50.0234 51.1405 49.0156 49.1015C48.7422 48.539 48.4531 48.039 48.3828 47.9843C48.0391 47.7265 47.5 48.0312 47.5 48.4843C47.5 48.7655 48.3359 50.4452 48.9375 51.3749C50.2891 53.4452 52.0703 55.1718 54.1172 56.3905C55.0156 56.9296 55.1562 56.9296 56.0625 56.3593C57.1172 55.703 57.8438 55.1249 58.7344 54.2655C59.6875 53.3437 60.1875 52.7421 60.8984 51.6796C61.4922 50.789 62.5781 48.664 62.5781 48.3827C62.5781 48.2812 62.4922 48.1093 62.3828 48.0077C62.1797 47.8046 61.9297 47.7655 61.6953 47.8984Z" fill="#065393"/>
<path d="M36.0156 54.8512C35.6094 54.9762 35.3438 55.195 35.1641 55.57C35 55.9059 35 55.9606 35 63.734C35 69.07 35.0234 71.6246 35.0859 71.7731C35.1875 72.0387 35.5156 72.3981 35.7969 72.5465C36.1094 72.7106 41.625 72.7106 41.9453 72.5465C42.4453 72.2809 42.6953 71.8512 42.75 71.1246L42.7734 70.8825L46.1328 72.1637C47.9844 72.859 49.7188 73.5075 49.9922 73.5934C50.8438 73.859 50.2734 73.9293 61.7578 72.2653C62.9609 72.0934 64.1328 71.8981 64.3672 71.8278C64.875 71.6793 65.6953 71.2731 66.1328 70.9606C66.4688 70.7106 74.2422 63.7262 74.4688 63.4684C74.9922 62.8668 75.1328 61.6246 74.75 60.8981C74.4922 60.4059 74.0625 59.9762 73.6016 59.7496C73.1641 59.5387 72.3984 59.4762 71.8906 59.6168C71.6328 59.6793 70.3047 60.5309 67.5391 62.3825L63.5547 65.0465L62.7344 64.9996L61.9141 64.9606L61.8594 64.4918C61.6641 62.9293 60.5156 61.695 58.9844 61.4059C58.75 61.359 56.7109 61.1637 54.4531 60.9684L50.3516 60.6168L49.7031 60.3512C49.3438 60.2106 48.3906 59.734 47.5703 59.2965C45.5625 58.2184 44.9141 57.9762 43.4609 57.7965L42.75 57.7028L42.7188 56.7184C42.6953 55.8043 42.6797 55.7106 42.4844 55.4137C42.0938 54.8121 42.0391 54.8043 38.9844 54.7887C37.3438 54.7809 36.1797 54.8043 36.0156 54.8512ZM41.4688 56.0309C41.5391 56.1012 41.5625 56.7106 41.5625 58.2965V60.4762L41.7578 60.6637C41.8594 60.7731 42.0391 60.859 42.1484 60.859C42.2578 60.859 42.4375 60.7731 42.5391 60.6637C42.7188 60.4918 42.7344 60.4215 42.7344 59.6871C42.7344 58.7731 42.6562 58.8278 43.7734 59.0231C44.6719 59.1793 45.5391 59.5075 46.5469 60.0621C47.7734 60.7496 49.0312 61.359 49.6484 61.5856C50.1328 61.7575 50.6484 61.82 54.4141 62.1481C56.7344 62.3434 58.8125 62.5621 59.0391 62.6246C59.8828 62.859 60.6016 63.7106 60.6875 64.6012L60.7188 64.9684L55.2109 65.3043C52.1875 65.4918 49.5859 65.6246 49.4375 65.5934C49.2891 65.57 49.0234 65.4215 48.8516 65.2731C48.3203 64.82 47.7344 64.9762 47.7344 65.5621C47.7344 65.8981 48.2734 66.4137 48.8828 66.6403C49.3047 66.8043 49.4219 66.8121 50.5078 66.7653C51.6953 66.7184 54.7422 66.5309 59.0625 66.2496C60.9922 66.1246 61.6641 66.109 62.6016 66.1637C63.2422 66.2106 63.8203 66.2184 63.8906 66.195C63.9609 66.1637 65.8359 64.9293 68.0469 63.445C71.9609 60.82 72.0781 60.7496 72.5 60.7184C72.8516 60.695 72.9766 60.7184 73.1953 60.8746C73.7734 61.2653 73.9766 61.8903 73.7109 62.4528C73.6172 62.6481 72.3984 63.7887 69.7812 66.1559C67.6953 68.0309 65.8203 69.7028 65.625 69.8668C65.1797 70.2418 64.4766 70.5856 63.8672 70.734C63.6094 70.7965 60.6719 71.2418 57.3438 71.7262C52.8359 72.3746 51.1719 72.5856 50.8203 72.5543C50.375 72.5153 49.4531 72.1793 43.5547 69.9293L42.7734 69.6246L42.7344 66.1325L42.6953 62.6403L42.5078 62.4918C42.2734 62.3043 42.0234 62.3043 41.7891 62.4918L41.6016 62.6403L41.5625 67.0465L41.5234 71.445H38.8672H36.2109L36.1875 63.7965C36.1797 58.2106 36.1953 56.1246 36.2578 56.0465C36.3828 55.8981 41.3203 55.8825 41.4688 56.0309Z" fill="#065393"/>
<path d="M38.0835 66.4219C37.8101 66.5156 37.3648 66.8281 37.1617 67.0625C36.4663 67.8594 36.5913 69.2344 37.4273 69.9453C37.7632 70.2344 38.3492 70.4688 38.7476 70.4688C39.4742 70.4688 40.2945 69.9297 40.6304 69.2344C41.1382 68.1953 40.5601 66.8203 39.4585 66.4453C39.0601 66.3125 38.4351 66.2969 38.0835 66.4219ZM39.2007 67.6094C39.7867 67.9062 39.7788 68.7812 39.2007 69.1406C38.896 69.3281 38.6617 69.3359 38.357 69.1797C38.0288 69.0156 37.8882 68.7656 37.8882 68.375C37.8882 68.0859 37.9351 67.9844 38.1538 67.7656C38.4507 67.4688 38.8179 67.4141 39.2007 67.6094Z" fill="#065393"/>
</g>
<defs>
<clipPath id="clip0_1471_20911">
<rect width="40" height="40" fill="white" transform="translate(35 35)"/>
</clipPath>
</defs>
</svg>
