<svg width="42" height="42" viewBox="0 0 42 42" fill="none" xmlns="http://www.w3.org/2000/svg">
<circle cx="21" cy="21" r="21" fill="#135993"/>
<path d="M19.1703 27.9993C19.3197 27.9998 19.4673 27.9668 19.6023 27.9028C19.7373 27.8388 19.8562 27.7453 19.9503 27.6293L24.7803 21.6293C24.9274 21.4504 25.0078 21.2259 25.0078 20.9943C25.0078 20.7627 24.9274 20.5382 24.7803 20.3593L19.7803 14.3593C19.6106 14.1551 19.3667 14.0267 19.1022 14.0023C18.8378 13.9779 18.5745 14.0596 18.3703 14.2293C18.1661 14.399 18.0377 14.6429 18.0133 14.9074C17.9889 15.1718 18.0706 15.4351 18.2403 15.6393L22.7103 20.9993L18.3903 26.3593C18.268 26.5061 18.1904 26.6848 18.1665 26.8744C18.1426 27.0639 18.1735 27.2563 18.2556 27.4289C18.3376 27.6014 18.4674 27.7468 18.6295 27.8479C18.7916 27.949 18.9793 28.0015 19.1703 27.9993Z" fill="#F5F5F5"/>
</svg>
