<svg width="118" height="24" viewBox="0 0 118 24" fill="none" xmlns="http://www.w3.org/2000/svg">
<path d="M19.2089 8.27657L13.2581 7.41173L10.5979 2.01876C10.5253 1.8711 10.4058 1.75157 10.2581 1.67891C9.88778 1.4961 9.43778 1.64845 9.25262 2.01876L6.59247 7.41173L0.641683 8.27657C0.47762 8.30001 0.32762 8.37735 0.212776 8.49454C0.0739362 8.63724 -0.00257088 8.82923 6.5967e-05 9.02831C0.00270281 9.22739 0.0842678 9.41729 0.226838 9.55626L4.53231 13.7539L3.51512 19.6813C3.49127 19.8191 3.50653 19.961 3.55917 20.0906C3.6118 20.2203 3.69972 20.3326 3.81294 20.4148C3.92616 20.497 4.06015 20.5459 4.19973 20.5558C4.33931 20.5658 4.47888 20.5364 4.60262 20.4711L9.92528 17.6727L15.2479 20.4711C15.3933 20.5485 15.562 20.5742 15.7237 20.5461C16.1315 20.4758 16.4058 20.0891 16.3354 19.6813L15.3183 13.7539L19.6237 9.55626C19.7409 9.44142 19.8183 9.29142 19.8417 9.12735C19.905 8.7172 19.619 8.33751 19.2089 8.27657Z" fill="#FCC725"/>
<path d="M43.2089 8.27657L37.2581 7.41173L34.5979 2.01876C34.5253 1.8711 34.4058 1.75157 34.2581 1.67891C33.8878 1.4961 33.4378 1.64845 33.2526 2.01876L30.5925 7.41173L24.6417 8.27657C24.4776 8.30001 24.3276 8.37735 24.2128 8.49454C24.0739 8.63724 23.9974 8.82923 24.0001 9.02831C24.0027 9.22739 24.0843 9.41729 24.2268 9.55626L28.5323 13.7539L27.5151 19.6813C27.4913 19.8191 27.5065 19.961 27.5592 20.0906C27.6118 20.2203 27.6997 20.3326 27.8129 20.4148C27.9262 20.497 28.0602 20.5459 28.1997 20.5558C28.3393 20.5658 28.4789 20.5364 28.6026 20.4711L33.9253 17.6727L39.2479 20.4711C39.3933 20.5485 39.562 20.5742 39.7237 20.5461C40.1315 20.4758 40.4058 20.0891 40.3354 19.6813L39.3183 13.7539L43.6237 9.55626C43.7409 9.44142 43.8183 9.29142 43.8417 9.12735C43.905 8.7172 43.619 8.33751 43.2089 8.27657Z" fill="#FCC725"/>
<path d="M67.2089 8.27657L61.2581 7.41173L58.5979 2.01876C58.5253 1.8711 58.4058 1.75157 58.2581 1.67891C57.8878 1.4961 57.4378 1.64845 57.2526 2.01876L54.5925 7.41173L48.6417 8.27657C48.4776 8.30001 48.3276 8.37735 48.2128 8.49454C48.0739 8.63724 47.9974 8.82923 48.0001 9.02831C48.0027 9.22739 48.0843 9.41729 48.2268 9.55626L52.5323 13.7539L51.5151 19.6813C51.4913 19.8191 51.5065 19.961 51.5592 20.0906C51.6118 20.2203 51.6997 20.3326 51.8129 20.4148C51.9262 20.497 52.0602 20.5459 52.1997 20.5558C52.3393 20.5658 52.4789 20.5364 52.6026 20.4711L57.9253 17.6727L63.2479 20.4711C63.3933 20.5485 63.562 20.5742 63.7237 20.5461C64.1315 20.4758 64.4058 20.0891 64.3354 19.6813L63.3183 13.7539L67.6237 9.55626C67.7409 9.44142 67.8183 9.29142 67.8417 9.12735C67.905 8.7172 67.619 8.33751 67.2089 8.27657Z" fill="#FCC725"/>
<path d="M91.2089 8.27657L85.2581 7.41173L82.5979 2.01876C82.5253 1.8711 82.4058 1.75157 82.2581 1.67891C81.8878 1.4961 81.4378 1.64845 81.2526 2.01876L78.5925 7.41173L72.6417 8.27657C72.4776 8.30001 72.3276 8.37735 72.2128 8.49454C72.0739 8.63724 71.9974 8.82923 72.0001 9.02831C72.0027 9.22739 72.0843 9.41729 72.2268 9.55626L76.5323 13.7539L75.5151 19.6813C75.4913 19.8191 75.5065 19.961 75.5592 20.0906C75.6118 20.2203 75.6997 20.3326 75.8129 20.4148C75.9262 20.497 76.0602 20.5459 76.1997 20.5558C76.3393 20.5658 76.4789 20.5364 76.6026 20.4711L81.9253 17.6727L87.2479 20.4711C87.3933 20.5485 87.562 20.5742 87.7237 20.5461C88.1315 20.4758 88.4058 20.0891 88.3354 19.6813L87.3183 13.7539L91.6237 9.55626C91.7409 9.44142 91.8183 9.29142 91.8417 9.12735C91.905 8.7172 91.619 8.33751 91.2089 8.27657Z" fill="#FCC725"/>
<path d="M115.209 8.27657L109.258 7.41173L106.598 2.01876C106.525 1.8711 106.406 1.75157 106.258 1.67891C105.888 1.4961 105.438 1.64845 105.253 2.01876L102.592 7.41173L96.6417 8.27657C96.4776 8.30001 96.3276 8.37735 96.2128 8.49454C96.0739 8.63724 95.9974 8.82923 96.0001 9.02831C96.0027 9.22739 96.0843 9.41729 96.2268 9.55626L100.532 13.7539L99.5151 19.6813C99.4913 19.8191 99.5065 19.961 99.5592 20.0906C99.6118 20.2203 99.6997 20.3326 99.8129 20.4148C99.9262 20.497 100.06 20.5459 100.2 20.5558C100.339 20.5658 100.479 20.5364 100.603 20.4711L105.925 17.6727L111.248 20.4711C111.393 20.5485 111.562 20.5742 111.724 20.5461C112.132 20.4758 112.406 20.0891 112.335 19.6813L111.318 13.7539L115.624 9.55626C115.741 9.44142 115.818 9.29142 115.842 9.12735C115.905 8.7172 115.619 8.33751 115.209 8.27657Z" fill="#FCC725"/>
</svg>
