<svg width="20" height="20" viewBox="0 0 20 20" fill="none" xmlns="http://www.w3.org/2000/svg">
<path d="M10.0013 18.9577C5.05964 18.9577 1.04297 14.941 1.04297 9.99935C1.04297 5.05768 5.05964 1.04102 10.0013 1.04102C14.943 1.04102 18.9596 5.05768 18.9596 9.99935C18.9596 14.941 14.943 18.9577 10.0013 18.9577ZM10.0013 2.29102C5.7513 2.29102 2.29297 5.74935 2.29297 9.99935C2.29297 14.2493 5.7513 17.7077 10.0013 17.7077C14.2513 17.7077 17.7096 14.2493 17.7096 9.99935C17.7096 5.74935 14.2513 2.29102 10.0013 2.29102Z" fill="#065393"/>
<path d="M8.81719 12.9827C8.65052 12.9827 8.49219 12.916 8.37552 12.7993L6.01719 10.441C5.77552 10.1993 5.77552 9.79935 6.01719 9.55768C6.25885 9.31602 6.65885 9.31602 6.90052 9.55768L8.81719 11.4743L13.1005 7.19102C13.3422 6.94935 13.7422 6.94935 13.9839 7.19102C14.2255 7.43268 14.2255 7.83268 13.9839 8.07435L9.25885 12.7993C9.14219 12.916 8.98385 12.9827 8.81719 12.9827Z" fill="#065393"/>
</svg>
