<svg width="17" height="20" viewBox="0 0 17 20" fill="none" xmlns="http://www.w3.org/2000/svg">
<path d="M10.298 12.7623C9.97736 13.1023 10.2481 13.7223 10.2481 13.7223L12.6623 17.9648C12.6623 17.9648 13.0589 18.5236 13.4021 18.5236C13.7465 18.5236 14.0873 18.2248 14.0873 18.2248L15.9956 15.3536C15.9956 15.3536 16.188 14.9911 16.1927 14.6736C16.1999 14.2223 15.5539 14.0986 15.5539 14.0986L11.0354 12.5711C11.0354 12.5711 10.5925 12.4473 10.298 12.7611V12.7623ZM10.0688 10.6248C10.3004 11.0373 10.938 10.9173 10.938 10.9173L15.4458 9.53109C15.4458 9.53109 16.0597 9.26859 16.1476 8.91734C16.2331 8.56609 16.0467 8.14359 16.0467 8.14359L13.8925 5.47234C13.8925 5.47234 13.7061 5.13484 13.319 5.10109C12.8915 5.06234 12.629 5.60734 12.629 5.60734L10.0819 9.82609C10.0819 9.82609 9.85624 10.2461 10.07 10.6261L10.0688 10.6248ZM7.93842 8.97984C8.46924 8.84234 8.55355 8.03109 8.55355 8.03109L8.51792 1.27609C8.51792 1.27609 8.43836 0.442339 8.08211 0.217339C7.52399 -0.138911 7.35892 0.047339 7.19861 0.072339L3.4568 1.53609C3.4568 1.53609 3.08986 1.66359 2.89986 1.98609C2.62674 2.44234 3.17655 3.10984 3.17655 3.10984L7.0668 8.69109C7.0668 8.69109 7.45036 9.10859 7.93961 8.98234L7.93842 8.97984ZM7.01455 11.7136C7.02761 11.1923 6.4208 10.8798 6.4208 10.8798L2.39874 8.74109C2.39874 8.74109 1.80261 8.48234 1.51286 8.66234C1.2908 8.79984 1.09486 9.04984 1.07586 9.26984L0.813423 12.6648C0.813423 12.6648 0.774236 13.2536 0.919111 13.5211C1.12455 13.9011 1.79905 13.6361 1.79905 13.6361L6.49561 12.5436C6.67849 12.4148 6.99674 12.4023 7.01455 11.7136ZM8.18186 13.5461C7.7793 13.3286 7.29599 13.7798 7.29599 13.7798L4.15149 17.4236C4.15149 17.4236 3.75961 17.9811 3.85936 18.3236C3.95317 18.6448 4.10874 18.8036 4.32961 18.9161L7.48717 19.9648C7.48717 19.9648 7.86955 20.0486 8.16049 19.9598C8.57255 19.8348 8.49655 19.1561 8.49655 19.1561L8.5678 14.2223C8.5678 14.2223 8.54999 13.7473 8.18186 13.5461Z" fill="#065393"/>
</svg>
