<svg width="24" height="20" viewBox="0 0 24 20" fill="none" xmlns="http://www.w3.org/2000/svg">
<g clip-path="url(#clip0_1412_20978)">
<path d="M24 2.38602C23.1013 2.78416 22.148 3.04549 21.1719 3.16134C22.1887 2.55196 22.9693 1.58699 23.3369 0.437242C22.3704 1.01079 21.3129 1.41489 20.2103 1.63209C19.312 0.67518 18.0324 0.0771484 16.6162 0.0771484C13.8968 0.0771484 11.6921 2.28177 11.6921 5.0009C11.6921 5.38687 11.7357 5.76262 11.8196 6.12309C7.72744 5.91768 4.09931 3.95746 1.67072 0.978461C1.24697 1.70568 1.00416 2.55159 1.00416 3.45384C1.00416 5.16215 1.8735 6.66918 3.19462 7.55221C2.4127 7.52772 1.64798 7.31653 0.964313 6.93627C0.964031 6.9569 0.964031 6.97752 0.964031 6.99824C0.964031 9.3839 2.66128 11.374 4.91372 11.8264C4.18864 12.0236 3.42809 12.0524 2.69016 11.9107C3.31669 13.8669 5.13516 15.2904 7.28972 15.3303C5.60456 16.6508 3.48141 17.4381 1.17459 17.4381C0.777094 17.4381 0.385219 17.4147 0 17.3692C2.17903 18.7663 4.76719 19.5815 7.54781 19.5815C16.6047 19.5815 21.5573 12.0786 21.5573 5.57193C21.5573 5.35837 21.5526 5.14602 21.543 4.9349C22.507 4.23804 23.339 3.37491 24 2.38602Z" fill="#065393"/>
</g>
<defs>
<clipPath id="clip0_1412_20978">
<rect width="24" height="19.5938" fill="white"/>
</clipPath>
</defs>
</svg>
